<?xml version="1.0" encoding="UTF-8"?>
<svg width="80px" height="80px" viewBox="0 0 80 80" version="1.1" xmlns="http://www.w3.org/2000/svg" xmlns:xlink="http://www.w3.org/1999/xlink">
    <!-- Generator: Sketch 52.5 (67469) - http://www.bohemiancoding.com/sketch -->
    <title>icon47</title>
    <desc>Created with Sketch.</desc>
    <defs>
        <linearGradient x1="50.0000339%" y1="-4.28885841%" x2="50.0000339%" y2="102.117253%" id="linearGradient-1">
            <stop stop-color="#FA9305" offset="0%"></stop>
            <stop stop-color="#F36214" offset="34.3%"></stop>
            <stop stop-color="#D2353B" offset="61.6%"></stop>
            <stop stop-color="#B10762" offset="100%"></stop>
        </linearGradient>
    </defs>
    <g id="nabix-Agent" stroke="none" stroke-width="1" fill="none" fill-rule="evenodd">
        <g id="icon47" fill="url(#linearGradient-1)" fill-rule="nonzero">
            <path d="M74.9187248,19.7082913 L80,20.9160787 L80,65.8064516 C80,69.3636594 77.1055948,72.2580645 73.5483871,72.2580645 L56.7741935,72.2580645 L56.7741935,77.4193548 L61.9354839,77.4193548 L61.9354839,80 L18.0645161,80 L18.0645161,77.4193548 L23.2258065,77.4193548 L23.2258065,72.2580645 L6.4516129,72.2580645 C2.89440516,72.2580645 0,69.3636594 0,65.8064516 L0,27.0967742 C0,23.5395665 2.89440516,20.6451613 6.4516129,20.6451613 L26.9455645,20.6451613 L30.8889869,19.7070313 C31.2310987,18.6851058 31.6387348,17.6953126 32.109375,16.7483619 L29.3731098,12.3072077 L38.1149194,3.56539823 L42.5560735,6.30166323 C43.5017642,5.83228323 44.4928176,5.4233871 45.5147429,5.08127516 L46.7225303,0 L59.0839213,0 L60.2929687,5.08127516 C61.3148942,5.4233871 62.3046874,5.83102323 63.2516381,6.30166323 L67.6927923,3.56665823 L76.4346018,12.3084677 L73.6983368,16.7496219 C74.1677168,17.6953126 74.5766129,18.686366 74.9187248,19.7082913 Z M54.1935484,77.4193548 L54.1935484,72.2580645 L25.8064516,72.2580645 L25.8064516,77.4193548 L54.1935484,77.4193548 Z M73.5483871,69.6774194 C75.6823337,69.6774194 77.4193548,67.9403982 77.4193548,65.8064516 L77.4193548,64.516129 L2.58064516,64.516129 L2.58064516,65.8064516 C2.58064516,67.9403982 4.31766629,69.6774194 6.4516129,69.6774194 L73.5483871,69.6774194 Z M77.4193548,61.9354839 L77.4193548,33.890499 L74.9174647,34.4865171 C74.5753529,35.5084426 74.1677168,36.4982358 73.6970766,37.4451865 L76.4333418,41.8863406 L67.6915323,50.6281502 L63.2503781,47.8918852 C62.3046874,48.3612652 61.313634,48.7701613 60.2917087,49.1122732 L59.0839213,54.1935484 L46.7225303,54.1935484 L45.5134829,49.1110131 C44.4915574,48.7689013 43.500504,48.3612652 42.5548135,47.890625 L38.1136594,50.6268902 L29.3718498,41.8850806 L32.1081148,37.4439265 C31.6387348,36.4982358 31.2298387,35.5071824 30.8877268,34.4852571 L25.8064516,33.2774697 L25.8064516,23.2258065 L6.4516129,23.2258065 C4.31766629,23.2258065 2.58064516,24.9628276 2.58064516,27.0967742 L2.58064516,61.9354839 L77.4193548,61.9354839 Z M77.4193548,31.2386594 L77.4193548,22.954889 L72.8874748,21.8787803 L72.6732611,21.1662047 C72.2668852,19.8116179 71.7313508,18.5137348 71.0811492,17.3072077 L70.7276966,16.6513356 L73.1678427,12.6915323 L67.3097277,6.83341742 L63.3499244,9.27356355 L62.6940524,8.92011097 C61.4875252,8.26864919 60.1883821,7.73311484 58.8350555,7.32799903 L58.1224798,7.11378532 L57.045111,2.58064516 L48.7613406,2.58064516 L47.6852319,7.11252516 L46.9726563,7.32673887 C45.6180695,7.73311484 44.3201865,8.26864919 43.1136594,8.91885081 L42.4577873,9.27230339 L38.4979839,6.83215726 L32.639869,12.6902723 L35.0800152,16.6500756 L34.7265626,17.3059476 C34.0751008,18.5124748 33.5395665,19.8116179 33.1344506,21.1649445 L32.9202369,21.8775202 L28.3870968,22.954889 L28.3870968,31.2386594 L32.9202369,32.3147681 L33.1344506,33.0273437 C33.5408266,34.3819305 34.076361,35.6798135 34.7265626,36.8863406 L35.0800152,37.5422127 L32.639869,41.5020161 L38.4979839,47.360131 L42.4577873,44.9199848 L43.1136594,45.2734374 C44.3176663,45.923639 45.6168095,46.4591734 46.9713961,46.8655494 L47.6839718,47.0797631 L48.7613406,51.6129032 L57.045111,51.6129032 L58.1224798,47.0810232 L58.8350555,46.8668095 C60.1896421,46.4604335 61.4875252,45.9248992 62.6927923,45.2746976 L63.3486644,44.921245 L67.3084677,47.3613911 L73.1665826,41.5032761 L70.7264365,37.5434727 L71.079889,36.8876008 C71.7313508,35.6810735 72.2668852,34.3819305 72.672001,33.0286039 L72.8862147,32.3160282 L77.4193548,31.2386594 Z M52.9032258,9.03225806 C62.8647934,9.03225806 70.9677419,17.1352066 70.9677419,27.0967742 C70.9677419,37.0583418 62.8647934,45.1612903 52.9032258,45.1612903 C42.9416582,45.1612903 34.8387097,37.0583418 34.8387097,27.0967742 C34.8387097,17.1352066 42.9416582,9.03225806 52.9032258,9.03225806 Z M52.9032258,42.5806452 C61.4415323,42.5806452 68.3870968,35.6350806 68.3870968,27.0967742 C68.3870968,18.5584677 61.4415323,11.6129032 52.9032258,11.6129032 C44.3649194,11.6129032 37.4193548,18.5584677 37.4193548,27.0967742 C37.4193548,35.6350806 44.3649194,42.5806452 52.9032258,42.5806452 Z M40,25.8064516 L42.5806452,25.8064516 L42.5806452,28.3870968 L40,28.3870968 L40,25.8064516 Z M45.1612903,25.8064516 L65.8064516,25.8064516 L65.8064516,28.3870968 L45.1612903,28.3870968 L45.1612903,25.8064516 Z M47.7419355,30.9677419 L63.2258065,30.9677419 L63.2258065,33.5483871 L47.7419355,33.5483871 L47.7419355,30.9677419 Z M42.5806452,30.9677419 L45.1612903,30.9677419 L45.1612903,33.5483871 L42.5806452,33.5483871 L42.5806452,30.9677419 Z M47.7419355,20.6451613 L63.2258065,20.6451613 L63.2258065,23.2258065 L47.7419355,23.2258065 L47.7419355,20.6451613 Z M42.5806452,20.6451613 L45.1612903,20.6451613 L45.1612903,23.2258065 L42.5806452,23.2258065 L42.5806452,20.6451613 Z M28.3870968,43.8709677 L28.3870968,51.6129032 L30.9677419,51.6129032 L30.9677419,54.1935484 L5.16129032,54.1935484 L5.16129032,27.0967742 L7.74193548,27.0967742 L7.74193548,51.6129032 L10.3225806,51.6129032 L10.3225806,33.5483871 L18.0645161,33.5483871 L18.0645161,51.6129032 L20.6451613,51.6129032 L20.6451613,43.8709677 L28.3870968,43.8709677 Z M23.2258065,46.4516129 L23.2258065,51.6129032 L25.8064516,51.6129032 L25.8064516,46.4516129 L23.2258065,46.4516129 Z M12.9032258,36.1290323 L12.9032258,51.6129032 L15.483871,51.6129032 L15.483871,36.1290323 L12.9032258,36.1290323 Z" id="Combined-Shape"></path>
        </g>
    </g>
</svg>