<?xml version="1.0" encoding="UTF-8"?>
<svg width="80px" height="80px" viewBox="0 0 80 80" version="1.1" xmlns="http://www.w3.org/2000/svg" xmlns:xlink="http://www.w3.org/1999/xlink">
    <!-- Generator: Sketch 52.5 (67469) - http://www.bohemiancoding.com/sketch -->
    <title>icon49</title>
    <desc>Created with Sketch.</desc>
    <defs>
        <linearGradient x1="50.0000339%" y1="-4.28885841%" x2="50.0000339%" y2="102.117253%" id="linearGradient-1">
            <stop stop-color="#FA9305" offset="0%"></stop>
            <stop stop-color="#F36214" offset="34.3%"></stop>
            <stop stop-color="#D2353B" offset="61.6%"></stop>
            <stop stop-color="#B10762" offset="100%"></stop>
        </linearGradient>
    </defs>
    <g id="nabix-Agent" stroke="none" stroke-width="1" fill="none" fill-rule="evenodd">
        <g id="icon49" fill="url(#linearGradient-1)" fill-rule="nonzero">
            <path d="M58.6666667,25.3333333 C57.9303385,25.3333333 57.3333333,24.7363282 57.3333333,24 L57.3333333,18.6666667 C57.3352865,17.1204427 58.2278647,15.7128907 59.6269532,15.0533853 C58.078776,12.8359375 58.4355468,9.811198 60.4563802,8.014974 C62.4772135,6.218099 65.5227865,6.218099 67.5436198,8.014974 C69.5644532,9.811198 69.921224,12.8359375 68.3730468,15.0533853 C69.7721353,15.7128907 70.6647135,17.1204427 70.6666667,18.6666667 L70.6666667,24 C70.6666667,24.7363282 70.0696615,25.3333333 69.3333333,25.3333333 C68.5970052,25.3333333 68,24.7363282 68,24 L68,18.6666667 C68,17.9303385 67.4029948,17.3333333 66.6666667,17.3333333 L61.3333333,17.3333333 C60.5970052,17.3333333 60,17.9303385 60,18.6666667 L60,24 C60,24.7363282 59.4029948,25.3333333 58.6666667,25.3333333 Z M64,9.33333333 C62.5273437,9.33333333 61.3333333,10.5273437 61.3333333,12 C61.3333333,13.4726563 62.5273437,14.6666667 64,14.6666667 C65.4726563,14.6666667 66.6666667,13.4726563 66.6666667,12 C66.6666667,10.5273437 65.4726563,9.33333333 64,9.33333333 Z M64,32 C55.1634115,32 48,24.8365885 48,16 C48,7.1634115 55.1634115,0 64,0 C72.8365885,0 80,7.1634115 80,16 C80,24.8365885 72.8365885,32 64,32 Z M64,2.66666667 C56.6360677,2.66666667 50.6666667,8.63606767 50.6666667,16 C50.6666667,23.3639323 56.6360677,29.3333333 64,29.3333333 C71.3639323,29.3333333 77.3333333,23.3639323 77.3333333,16 C77.3333333,8.63606767 71.3639323,2.66666667 64,2.66666667 Z M68.3730468,63.0533853 C69.7721353,63.7128907 70.6647135,65.1204427 70.6666667,66.6666667 L70.6666667,72 C70.6666667,72.7363282 70.0696615,73.3333333 69.3333333,73.3333333 C68.5970052,73.3333333 68,72.7363282 68,72 L68,66.6666667 C68,65.9303385 67.4029948,65.3333333 66.6666667,65.3333333 L61.3333333,65.3333333 C60.5970052,65.3333333 60,65.9303385 60,66.6666667 L60,72 C60,72.7363282 59.4029948,73.3333333 58.6666667,73.3333333 C57.9303385,73.3333333 57.3333333,72.7363282 57.3333333,72 L57.3333333,66.6666667 C57.3352865,65.1204427 58.2278647,63.7128907 59.6269532,63.0533853 C58.078776,60.8359375 58.4355468,57.811198 60.4563802,56.014974 C62.4772135,54.218099 65.5227865,54.218099 67.5436198,56.014974 C69.5644532,57.811198 69.921224,60.8359375 68.3730468,63.0533853 Z M64,57.3333333 C62.5273437,57.3333333 61.3333333,58.5273437 61.3333333,60 C61.3333333,61.4726563 62.5273437,62.6666667 64,62.6666667 C65.4726563,62.6666667 66.6666667,61.4726563 66.6666667,60 C66.6666667,58.5273437 65.4726563,57.3333333 64,57.3333333 Z M64,48 C72.8365885,48 80,55.1634115 80,64 C80,72.8365885 72.8365885,80 64,80 C55.1634115,80 48,72.8365885 48,64 C48,55.1634115 55.1634115,48 64,48 Z M64,77.3333333 C71.3639323,77.3333333 77.3333333,71.3639323 77.3333333,64 C77.3333333,56.6360677 71.3639323,50.6666667 64,50.6666667 C56.6360677,50.6666667 50.6666667,56.6360677 50.6666667,64 C50.6666667,71.3639323 56.6360677,77.3333333 64,77.3333333 Z M16,32 C15.9973958,28.3945313 18.407552,25.2324218 21.8847657,24.2792968 C25.3619792,23.3255208 29.047526,24.8164063 30.8841147,27.9192708 C32.7207032,31.0221353 32.2552083,34.970052 29.7467448,37.5598958 C32.6529948,38.3489583 34.6692708,40.9882813 34.6666667,44 L34.6666667,54.6666667 C34.6666667,55.4029948 34.0696615,56 33.3333333,56 C32.5970052,56 32,55.4029948 32,54.6666667 L32,44 C32,41.7910157 30.2089843,40 28,40 L27.6269532,40 L26.639974,42.7734375 L27.9733073,50.453125 C28.0234375,50.7845052 27.9472657,51.1223958 27.7597657,51.3997397 L25.093099,55.3997397 C24.8457032,55.7688802 24.4309897,55.9895833 23.9869792,55.9895833 C23.5423177,55.9895833 23.1276042,55.7688802 22.8802083,55.3997397 L20.2135417,51.3997397 C20.0260417,51.1223958 19.9498698,50.7845052 20,50.453125 L21.3333333,42.7734375 L20.3730468,40 L20,40 C17.7910157,40 16,41.7910157 16,44 L16,54.6666667 C16,55.4029948 15.4029948,56 14.6666667,56 C13.9303385,56 13.3333333,55.4029948 13.3333333,54.6666667 L13.3333333,44 C13.3307292,40.9882813 15.3470052,38.3489583 18.2532552,37.5598958 C16.8092448,36.0690103 16.001302,34.0755208 16,32 Z M24,42.8802083 C23.9752603,42.6640625 23.9980468,42.4459635 24.0664063,42.2402343 L24.813151,40 L23.186849,40 L24,42.2402343 C24.046224,42.4505208 24.046224,42.6692708 24,42.8802083 L22.733073,50.360026 L24,52.266927 L25.3333333,50.360026 L24,42.8802083 Z M24,26.6666667 C21.0546875,26.6666667 18.6666667,29.0546875 18.6666667,32 C18.6666667,34.9453125 21.0546875,37.3333333 24,37.3333333 C26.9453125,37.3333333 29.3333333,34.9453125 29.3333333,32 C29.3333333,29.0546875 26.9453125,26.6666667 24,26.6666667 Z M18.6666667,63.3997397 C18.4707032,63.9420573 17.9492187,64.296875 17.3730468,64.279948 C17.2454427,64.3001302 17.1145833,64.3001302 16.9869792,64.279948 C6.66796867,61.094401 -0.251953167,51.4088542 0.078125,40.6152343 C0.407552,29.8209635 7.90625,20.5761718 18.3997397,18.0266927 C19.1139323,17.860026 19.828776,18.3007813 20,19.0130208 C20.1764323,19.7272135 19.7408853,20.4492187 19.0266927,20.6269532 C9.70572917,22.8984375 3.047526,31.1132813 2.75520833,40.703125 C2.46289067,50.2923177 8.608073,58.8977865 17.7734375,61.733073 C18.1132813,61.8352865 18.3990885,62.0683593 18.5664063,62.3808593 C18.734375,62.6940103 18.7701823,63.0605468 18.6666667,63.3997397 Z M29.0266927,62.0664063 L29.0266927,62.1334635 C38.1022135,59.9140625 44.6777343,52.048177 45.2526042,42.7226563 C45.827474,33.3977865 40.2675782,24.7832032 31.5332032,21.4667968 C30.8411458,21.2089843 30.4889323,20.438802 30.7467448,19.7467448 C31.0045573,19.0546875 31.7747397,18.702474 32.4667968,18.9602865 C42.3125,22.6790365 48.5872397,32.3789063 47.9414063,42.8841147 C47.295573,53.389323 39.8808593,62.2480468 29.6536458,64.733073 C29.546875,64.7460937 29.4394532,64.7460937 29.3333333,64.733073 C28.5970052,64.8177083 27.9316407,64.2897135 27.8463542,63.5533853 C27.7617187,62.8170573 28.2903647,62.1510417 29.0266927,62.0664063 Z M62.6666667,36 C62.6666667,35.2636718 63.2636718,34.6666667 64,34.6666667 C64.7363282,34.6666667 65.3333333,35.2636718 65.3333333,36 L65.3333333,44 C65.3333333,44.7363282 64.7363282,45.3333333 64,45.3333333 C63.2636718,45.3333333 62.6666667,44.7363282 62.6666667,44 L62.6666667,36 Z M25.3333333,20 C24.5970052,20 24,19.4029948 24,18.6666667 L24,10.6666667 C24,6.985026 26.985026,4 30.6666667,4 L45.3333333,4 C46.0696615,4 46.6666667,4.59700517 46.6666667,5.33333333 C46.6666667,6.0696615 46.0696615,6.66666667 45.3333333,6.66666667 L30.6666667,6.66666667 C28.4576823,6.66666667 26.6666667,8.45768233 26.6666667,10.6666667 L26.6666667,18.6666667 C26.6666667,19.4029948 26.0696615,20 25.3333333,20 Z M44,76 C44.7363282,76 45.3333333,76.5970052 45.3333333,77.3333333 C45.3333333,78.0696615 44.7363282,78.6666667 44,78.6666667 L29.3333333,78.6666667 C27.235026,78.6666667 25.2591147,77.6783853 24,76 C22.7408853,77.6783853 20.764974,78.6666667 18.6666667,78.6666667 C17.9303385,78.6666667 17.3333333,78.0696615 17.3333333,77.3333333 C17.3333333,76.5970052 17.9303385,76 18.6666667,76 C20.875651,76 22.6666667,74.2089843 22.6666667,72 L22.6666667,64 C22.6666667,63.2636718 23.2636718,62.6666667 24,62.6666667 C24.7363282,62.6666667 25.3333333,63.2636718 25.3333333,64 L25.3333333,72 C25.3333333,74.2089843 27.124349,76 29.3333333,76 L44,76 Z M2.66666667,65.3333333 C9.29427083,65.3333333 14.6666667,70.7057292 14.6666667,77.3333333 L14.6666667,78.6666667 C14.6666667,79.4029948 14.0696615,80 13.3333333,80 C12.5970052,80 12,79.4029948 12,78.6666667 L12,77.3333333 C12,72.1783853 7.82161467,68 2.66666667,68 L1.33333333,68 C0.597005167,68 2.42561526e-12,67.4029948 2.42561526e-12,66.6666667 C2.42561526e-12,65.9303385 0.597005167,65.3333333 1.33333333,65.3333333 L2.66666667,65.3333333 Z M14.6666667,9.33333333 C13.9303385,9.33333333 13.3333333,8.73632817 13.3333333,8 C13.3333333,7.26367183 13.9303385,6.66666667 14.6666667,6.66666667 C18.3483073,6.66666667 21.3333333,9.65169267 21.3333333,13.3333333 C21.3333333,14.0696615 20.7363282,14.6666667 20,14.6666667 C19.2636718,14.6666667 18.6666667,14.0696615 18.6666667,13.3333333 C18.6666667,11.124349 16.875651,9.33333333 14.6666667,9.33333333 Z M1.33333333,18.6666667 C0.597005167,18.6666667 2.42561526e-12,18.0696615 2.42561526e-12,17.3333333 C2.42561526e-12,16.5970052 0.597005167,16 1.33333333,16 C5.014974,16 8,13.014974 8,9.33333333 C8,5.65169267 5.014974,2.66666667 1.33333333,2.66666667 C0.597005167,2.66666667 2.42561526e-12,2.0696615 2.42561526e-12,1.33333333 C2.42561526e-12,0.597005167 0.597005167,3.90798505e-14 1.33333333,3.90798505e-14 C6.48828133,3.90798505e-14 10.6666667,4.17838533 10.6666667,9.33333333 C10.6666667,14.4882813 6.48828133,18.6666667 1.33333333,18.6666667 Z M2.66666667,9.33333333 C2.66666667,10.0696615 2.0696615,10.6666667 1.33333333,10.6666667 C0.597005167,10.6666667 2.42539322e-12,10.0696615 2.42539322e-12,9.33333333 C2.42539322e-12,8.59700517 0.597005167,8 1.33333333,8 C2.0696615,8 2.66666667,8.59700517 2.66666667,9.33333333 Z" id="Combined-Shape"></path>
        </g>
    </g>
</svg>