<?xml version="1.0" encoding="UTF-8"?>
<svg width="80px" height="80px" viewBox="0 0 80 80" version="1.1" xmlns="http://www.w3.org/2000/svg" xmlns:xlink="http://www.w3.org/1999/xlink">
    <!-- Generator: Sketch 52.5 (67469) - http://www.bohemiancoding.com/sketch -->
    <title>icon43</title>
    <desc>Created with Sketch.</desc>
    <defs>
        <linearGradient x1="50.0000339%" y1="-4.28885841%" x2="50.0000339%" y2="102.117253%" id="linearGradient-1">
            <stop stop-color="#FA9305" offset="0%"></stop>
            <stop stop-color="#F36214" offset="34.3%"></stop>
            <stop stop-color="#D2353B" offset="61.6%"></stop>
            <stop stop-color="#B10762" offset="100%"></stop>
        </linearGradient>
    </defs>
    <g id="nabix-Agent" stroke="none" stroke-width="1" fill="none" fill-rule="evenodd">
        <g id="icon43" fill="url(#linearGradient-1)" fill-rule="nonzero">
            <path d="M71.5810938,63.9326563 C76.2467187,64.071875 80,67.9078125 80,72.6067188 L80,78.4375 C80,79.3003125 79.3003125,80 78.4375,80 L52.8125,80 L27.1875,80 L1.5625,80 C0.6996875,80 0,79.3003125 0,78.4375 L0,72.6067188 C0,67.9078125 3.75328125,64.071875 8.41890625,63.9326563 C7.60015625,62.7578125 7.118125,61.3315625 7.118125,59.7940625 L7.118125,58.3704688 C7.118125,54.3690625 10.3735937,51.1135938 14.375,51.1135938 C18.3764062,51.1135938 21.631875,54.3690625 21.631875,58.3704688 L21.631875,59.7940625 C21.631875,61.3315625 21.1498437,62.7578125 20.3310937,63.9326563 C23.1667187,64.0173438 25.6639062,65.466875 27.1875,67.6470313 C28.7110937,65.466875 31.2084375,64.0171875 34.0439062,63.9326563 C33.2251562,62.7578125 32.743125,61.3315625 32.743125,59.7940625 L32.743125,58.3704688 C32.743125,54.3690625 35.9985937,51.1135938 40,51.1135938 C44.0014063,51.1135938 47.256875,54.3690625 47.256875,58.3704688 L47.256875,59.7940625 C47.256875,61.3315625 46.7748438,62.7578125 45.9560938,63.9326563 C48.7917188,64.0173438 51.2889063,65.466875 52.8125,67.6470313 C54.3360937,65.466875 56.8334375,64.0171875 59.6689062,63.9326563 C58.8501562,62.7578125 58.368125,61.3315625 58.368125,59.7940625 L58.368125,58.3704688 C58.368125,54.3690625 61.6235937,51.1135938 65.625,51.1135938 C69.6264063,51.1135938 72.881875,54.3690625 72.881875,58.3704688 L72.881875,59.7940625 C72.881875,61.3315625 72.3998438,62.7578125 71.5810938,63.9326563 Z M10.243125,58.3704688 L10.243125,59.7940625 C10.243125,62.0723438 12.0967187,63.9259375 14.375,63.9259375 C16.6532812,63.9259375 18.506875,62.0723438 18.506875,59.7940625 L18.506875,58.3704688 C18.506875,56.0921875 16.6532812,54.2385938 14.375,54.2385938 C12.0967187,54.2385938 10.243125,56.0921875 10.243125,58.3704688 Z M25.625,76.875 L25.625,72.6067188 C25.625,69.5432813 23.1326562,67.0510938 20.069375,67.0510938 L15.9375,67.0510938 L15.9375,73.2946875 C15.9375,74.1575 15.2378125,74.8571875 14.375,74.8571875 C13.5121875,74.8571875 12.8125,74.1575 12.8125,73.2946875 L12.8125,67.0510938 L8.680625,67.0510938 C5.6171875,67.0510938 3.125,69.5434375 3.125,72.6067188 L3.125,76.875 L25.625,76.875 Z M35.868125,58.3704688 L35.868125,59.7940625 C35.868125,62.0723438 37.7217187,63.9259375 40,63.9259375 C42.2782812,63.9259375 44.131875,62.0723438 44.131875,59.7940625 L44.131875,58.3704688 C44.131875,56.0921875 42.2782812,54.2385938 40,54.2385938 C37.7217188,54.2385938 35.868125,56.0921875 35.868125,58.3704688 Z M51.25,76.875 L51.25,72.6067188 C51.25,69.5432813 48.7576562,67.0510938 45.694375,67.0510938 L41.5823437,67.0510938 L41.5823437,73.2946875 C41.5823437,74.1575 40.8826562,74.8571875 40.0198437,74.8571875 C39.1570312,74.8571875 38.4573437,74.1575 38.4573437,73.2946875 L38.4573437,67.0510938 L34.305625,67.0510938 C31.2421875,67.0510938 28.75,69.5434375 28.75,72.6067188 L28.75,76.875 L51.25,76.875 Z M61.493125,58.3704688 L61.493125,59.7940625 C61.493125,62.0723438 63.3467188,63.9259375 65.625,63.9259375 C67.9032812,63.9259375 69.756875,62.0723438 69.756875,59.7940625 L69.756875,58.3704688 C69.756875,56.0921875 67.9032812,54.2385938 65.625,54.2385938 C63.3467188,54.2385938 61.493125,56.0921875 61.493125,58.3704688 Z M76.875,76.875 L76.875,72.6067188 C76.875,69.5432813 74.3826562,67.0510938 71.319375,67.0510938 L67.2271875,67.0510938 L67.2271875,73.2946875 C67.2271875,74.1575 66.5275,74.8571875 65.6646875,74.8571875 C64.801875,74.8571875 64.1021875,74.1575 64.1021875,73.2946875 L64.1021875,67.0510938 L59.930625,67.0510938 C56.8671875,67.0510938 54.375,69.5434375 54.375,72.6067188 L54.375,76.875 L76.875,76.875 Z M41.1045313,30.3015625 C41.3953125,30.5921875 41.5625,30.9953125 41.5625,31.40625 C41.5625,31.8171875 41.3951563,32.2203125 41.1045313,32.5109375 C40.8140625,32.8015625 40.4109375,32.96875 40,32.96875 C39.5890625,32.96875 39.1860937,32.8015625 38.8953125,32.5109375 C38.6045313,32.2203125 38.4375,31.8171875 38.4375,31.40625 C38.4375,30.9953125 38.6046875,30.5921875 38.8953125,30.3015625 C39.1859375,30.0109375 39.5890625,29.84375 40,29.84375 C40.4109375,29.84375 40.8140625,30.0109375 41.1045313,30.3015625 Z M47.59,20.6296875 C53.965625,20.6296875 59.1525,25.8165625 59.1525,32.1921875 L59.1525,36.875 C59.1525,37.7379688 58.4528125,38.4375 57.59,38.4375 L41.5625,38.4375 L41.5625,42.1875 L46.886875,42.1875 C47.7496875,42.1875 48.449375,42.8871875 48.449375,43.75 C48.449375,44.6128125 47.7496875,45.3125 46.886875,45.3125 L41.5625,45.3125 L41.5625,47.3535938 C41.5625,48.2164063 40.8628125,48.9160938 40,48.9160938 C39.1371875,48.9160938 38.4375,48.2164063 38.4375,47.3535938 L38.4375,45.3125 L15.9375,45.3125 L15.9375,47.3535938 C15.9375,48.2164063 15.2378125,48.9160938 14.375,48.9160938 C13.5121875,48.9160938 12.8125,48.2165625 12.8125,47.3535938 L12.8125,43.75 C12.8125,42.8871875 13.5121875,42.1875 14.375,42.1875 L38.4375,42.1875 L38.4375,38.4375 L22.41,38.4375 C21.5471875,38.4375 20.8475,37.7379688 20.8475,36.875 L20.8475,32.1923438 C20.8475,25.8167188 26.034375,20.6298438 32.41,20.6298438 L33.053125,20.6298438 C31.5895312,18.985625 30.6979687,16.8217188 30.6979687,14.4526563 L30.6979687,9.3021875 C30.6979687,4.17296875 34.8707812,4.26325641e-14 40,4.26325641e-14 C45.1292187,4.26325641e-14 49.3020312,4.17296875 49.3020312,9.3021875 L49.3020312,9.644375 L49.3020312,14.4525 C49.3020312,16.8217188 48.4104687,18.985625 46.946875,20.6296875 L47.59,20.6296875 Z M40,3.125 C36.5939062,3.125 33.8229687,5.89609375 33.8229687,9.3021875 L33.8229687,9.60265625 L36.0446875,9.60265625 C38.1034375,9.60265625 40.0423437,8.6978125 41.3645312,7.11984375 C41.8546875,6.535 42.695625,6.3896875 43.3535937,6.77625 L46.1107812,8.39609375 C45.67125,5.41796875 43.0982812,3.125 40,3.125 Z M33.8229687,12.7278125 L33.8229687,14.4526563 C33.8229687,17.8585938 36.5939062,20.6298438 40,20.6298438 C43.4060937,20.6298438 46.1770312,17.85875 46.1770312,14.4526563 L46.1770312,12.0595313 L42.8332812,10.095 C40.9896875,11.7815625 38.5798437,12.7278125 36.0446875,12.7278125 L33.8229687,12.7278125 Z M56.0275,35.3125 L56.0275,32.1921875 C56.0275,27.5396875 52.2423437,23.7546875 47.59,23.7546875 L41.5625,23.7546875 L41.5625,25.46875 C41.5625,26.3317188 40.8628125,27.03125 40,27.03125 C39.1371875,27.03125 38.4375,26.3317188 38.4375,25.46875 L38.4375,23.7546875 L32.41,23.7546875 C27.7576562,23.7546875 23.9725,27.5396875 23.9725,32.1921875 L23.9725,35.3125 L56.0275,35.3125 Z M53.6171875,42.6453125 C53.9079688,42.9359375 54.0751563,43.3390625 54.0751563,43.75 C54.0751563,44.1609375 53.9078125,44.5640625 53.6171875,44.8545313 C53.3251563,45.1453125 52.9235938,45.3125 52.5109375,45.3125 C52.1,45.3125 51.6984375,45.1451563 51.4078125,44.8545313 C51.115625,44.5640625 50.95,44.1609375 50.95,43.75 C50.95,43.3390625 51.115625,42.9359375 51.4078125,42.6453125 C51.6967188,42.3545313 52.0998438,42.1875 52.5109375,42.1875 C52.9235938,42.1875 53.3267188,42.3546875 53.6171875,42.6453125 Z M65.6646875,42.1875 C66.5275,42.1875 67.2271875,42.8871875 67.2271875,43.75 L67.2271875,47.3535938 C67.2271875,48.2164063 66.5275,48.9160938 65.6646875,48.9160938 C64.801875,48.9160938 64.1021875,48.2164063 64.1021875,47.3535938 L64.1021875,45.3125 L57.59,45.3125 C56.7271875,45.3125 56.0275,44.6128125 56.0275,43.75 C56.0275,42.8871875 56.7271875,42.1875 57.59,42.1875 L65.6646875,42.1875 Z" id="Combined-Shape"></path>
        </g>
    </g>
</svg>