<?xml version="1.0" encoding="UTF-8"?>
<svg width="80px" height="80px" viewBox="0 0 80 80" version="1.1" xmlns="http://www.w3.org/2000/svg" xmlns:xlink="http://www.w3.org/1999/xlink">
    <!-- Generator: Sketch 52.5 (67469) - http://www.bohemiancoding.com/sketch -->
    <title>icon44</title>
    <desc>Created with Sketch.</desc>
    <defs>
        <linearGradient x1="50.0000339%" y1="-4.28885841%" x2="50.0000339%" y2="102.117253%" id="linearGradient-1">
            <stop stop-color="#FA9305" offset="0%"></stop>
            <stop stop-color="#F36214" offset="34.3%"></stop>
            <stop stop-color="#D2353B" offset="61.6%"></stop>
            <stop stop-color="#B10762" offset="100%"></stop>
        </linearGradient>
    </defs>
    <g id="nabix-Agent" stroke="none" stroke-width="1" fill="none" fill-rule="evenodd">
        <g id="icon44" fill="url(#linearGradient-1)">
            <path d="M75.4503125,29.816875 C75.6882813,30.64625 75.20875,31.5117188 74.3790625,31.749375 C74.2353125,31.7907813 74.0901563,31.8104688 73.9476563,31.8104688 C73.2682813,31.8104688 72.643125,31.3639063 72.4465625,30.678125 C69.9832813,22.088125 64.058125,14.689375 56.19,10.3792188 C55.433125,9.96453125 55.1557813,9.01484375 55.5703125,8.258125 C55.985,7.50140625 56.9345313,7.224375 57.6914063,7.6384375 C66.2860938,12.3465625 72.7589063,20.4303125 75.4503125,29.816875 Z M51.4520313,4.9384375 C52.2723438,5.20578125 52.720625,6.0878125 52.4529688,6.90828125 C52.2379688,7.56765625 51.6257813,7.98671875 50.9678125,7.98671875 C50.8071875,7.98671875 50.6439063,7.96171875 50.4829688,7.90921875 L50.4267188,7.89109375 C49.6051563,7.62703125 49.153125,6.7471875 49.416875,5.925625 C49.680625,5.1040625 50.5603125,4.651875 51.3823438,4.915625 L51.4520313,4.9384375 Z M7.15078125,26.9220312 C7.9659375,27.2053125 8.39671875,28.0957812 8.1134375,28.9109375 C7.8365625,29.7075 7.586875,30.5242187 7.37140625,31.3378125 C7.18625,32.0379687 6.55375,32.5009375 5.86203125,32.5009375 C5.7296875,32.5009375 5.59515625,32.4840625 5.46125,32.4484375 C4.62703125,32.2276562 4.12984375,31.3723437 4.350625,30.5382812 C4.5859375,29.6485937 4.8590625,28.7557812 5.161875,27.8846875 C5.44515625,27.0696875 6.33515625,26.63875 7.15078125,26.9220312 Z M12.508125,17.780625 C13.2023438,18.2932812 13.349375,19.2717187 12.8365625,19.965625 C12.3353125,20.644375 11.8539063,21.3496875 11.4057813,22.0626562 C11.1089063,22.535 10.6007813,22.79375 10.0814063,22.79375 C9.7971875,22.79375 9.50953125,22.7164062 9.25125,22.5539062 C8.520625,22.0945312 8.30078125,21.13 8.76015625,20.3995312 C9.2496875,19.6207812 9.77546875,18.8501562 10.323125,18.1090625 C10.8359375,17.4145312 11.8145313,17.2678125 12.508125,17.780625 Z M29.9075,6.11421875 C30.1901562,6.92953125 29.7582812,7.8196875 28.9429687,8.10234375 C28.146875,8.3784375 27.3515625,8.688125 26.5792187,9.02328125 C26.3767187,9.11109375 26.165625,9.1528125 25.958125,9.1528125 C25.354375,9.1528125 24.7795312,8.80078125 24.5240625,8.21140625 C24.1804687,7.41984375 24.5439062,6.4996875 25.335625,6.15625 C26.1798437,5.79 27.0492187,5.45140625 27.919375,5.1496875 C28.7348437,4.86703125 29.625,5.29890625 29.9075,6.11421875 Z M20.3259375,10.6303125 C20.8379687,11.325 20.6898437,12.303125 19.9953125,12.8151562 C19.3170312,13.315 18.6490625,13.8470312 18.0098437,14.3965625 C17.715,14.65 17.3526562,14.7742187 16.9920312,14.7742187 C16.5525,14.7742187 16.1154687,14.5896875 15.8065625,14.2304687 C15.2439062,13.5760937 15.3184375,12.5895312 15.9728125,12.0270312 C16.6709375,11.426875 17.4004687,10.8457812 18.1410937,10.2996875 C18.8357812,9.78734375 19.8139062,9.935625 20.3259375,10.6303125 Z M4.6875,35.3125 C7.2721875,35.3125 9.375,37.4153125 9.375,40 C9.375,42.5846875 7.2721875,44.6875 4.6875,44.6875 C2.1028125,44.6875 0,42.5846875 0,40 C0,37.4153125 2.1028125,35.3125 4.6875,35.3125 Z M4.6875,41.5625 C5.5490625,41.5625 6.25,40.8615625 6.25,40 C6.25,39.1384375 5.5490625,38.4375 4.6875,38.4375 C3.8259375,38.4375 3.125,39.1384375 3.125,40 C3.125,40.8615625 3.8259375,41.5625 4.6875,41.5625 Z M75.3125,35.3125 C77.8971875,35.3125 80,37.4153125 80,40 C80,42.5846875 77.8971875,44.6875 75.3125,44.6875 C72.7278125,44.6875 70.625,42.5846875 70.625,40 C70.625,37.4153125 72.7278125,35.3125 75.3125,35.3125 Z M75.3125,41.5625 C76.1740625,41.5625 76.875,40.8615625 76.875,40 C76.875,39.1384375 76.1740625,38.4375 75.3125,38.4375 C74.4509375,38.4375 73.75,39.1384375 73.75,40 C73.75,40.8615625 74.4509375,41.5625 75.3125,41.5625 Z M40,0 C42.5846875,0 44.6875,2.1028125 44.6875,4.6875 C44.6875,7.2721875 42.5846875,9.375 40,9.375 C37.4153125,9.375 35.3125,7.2721875 35.3125,4.6875 C35.3125,2.1028125 37.4153125,0 40,0 Z M40,6.25 C40.8615625,6.25 41.5625,5.5490625 41.5625,4.6875 C41.5625,3.8259375 40.8615625,3.125 40,3.125 C39.1384375,3.125 38.4375,3.8259375 38.4375,4.6875 C38.4375,5.5490625 39.1384375,6.25 40,6.25 Z M24.001875,69.7251562 C24.7615625,70.1348437 25.045,71.0828125 24.6354688,71.8421875 C24.3529688,72.3659375 23.8146875,72.6632812 23.25875,72.6632812 C23.0084375,72.6632812 22.754375,72.6028125 22.5184375,72.4757812 C13.8153125,67.78125 7.26578125,59.6559375 4.54953125,50.1832812 C4.3115625,49.35375 4.79109375,48.4884375 5.620625,48.250625 C6.450625,48.0120312 7.315625,48.4923437 7.55328125,49.3217187 C10.039375,57.9907812 16.0345313,65.4276562 24.001875,69.7251562 Z M29.5792188,72.1109375 C30.3998438,72.378125 30.8484375,73.2598438 30.5814063,74.0803125 C30.3665625,74.74 29.7542188,75.1595313 29.0959375,75.1595313 C28.9354688,75.1595313 28.7725,75.1346875 28.611875,75.0823438 L28.5773438,75.07125 C27.7557813,74.806875 27.304375,73.9265625 27.5685938,73.1051563 C27.8328125,72.28375 28.7126563,71.8323438 29.5346875,72.0964063 L29.5792188,72.1109375 Z M55.4759375,71.7885937 C55.8195312,72.5801562 55.4560937,73.5003125 54.664375,73.84375 C53.8201562,74.21 52.9507812,74.5485937 52.080625,74.8503125 C51.91125,74.9090625 51.7385937,74.9370312 51.5689062,74.9370312 C50.9217187,74.9370312 50.3165625,74.5317187 50.0926562,73.8857812 C49.81,73.0704687 50.241875,72.1803125 51.0571875,71.8976562 C51.8532812,71.6215625 52.6485937,71.311875 53.4209375,70.9767187 C54.2123437,70.6329687 55.1323437,70.9970312 55.4759375,71.7885937 Z M70.74875,57.4460938 C71.479375,57.9054688 71.6992187,58.87 71.2401562,59.6004688 C70.750625,60.3792188 70.2248437,61.1498438 69.6771875,61.8909375 C69.3707812,62.3059375 68.8979687,62.5253125 68.4192187,62.5253125 C68.0965625,62.5253125 67.77125,62.4257813 67.4920312,62.219375 C66.7978125,61.7067188 66.6507812,60.7282813 67.1635937,60.034375 C67.6648437,59.355625 68.14625,58.6503125 68.594375,57.9373438 C69.0534375,57.2067188 70.018125,56.9865625 70.74875,57.4460938 Z M64.1935938,65.7695312 C64.75625,66.4239062 64.6817188,67.4104687 64.0273438,67.9729687 C63.3292188,68.573125 62.5996875,69.1542187 61.8590625,69.7003125 C61.58,69.9059375 61.2551563,70.0051562 60.933125,70.0051562 C60.4534375,70.0051562 59.9804688,69.7853125 59.6740625,69.3696875 C59.1620313,68.675 59.3101563,67.696875 60.0046875,67.1848437 C60.6829688,66.685 61.3509375,66.1529687 61.9901563,65.6034375 C62.6445313,65.0410937 63.6310938,65.1153125 64.1935938,65.7695312 Z M74.53875,47.5515625 C75.3729687,47.7723437 75.8701562,48.6276562 75.6492187,49.4617187 C75.4139062,50.3514062 75.1407812,51.2442187 74.8379687,52.1153125 C74.61375,52.7604687 74.0089062,53.1651562 73.3621875,53.1651562 C73.191875,53.1651562 73.0190625,53.1370312 72.8490625,53.0779687 C72.0339062,52.7946875 71.603125,51.9042187 71.8864062,51.0890625 C72.1632812,50.2925 72.4129687,49.4757812 72.6284375,48.6621875 C72.8492187,47.8279687 73.7048437,47.3303125 74.53875,47.5515625 Z M40,70.625 C42.5846875,70.625 44.6875,72.7278125 44.6875,75.3125 C44.6875,77.8971875 42.5846875,80 40,80 C37.4153125,80 35.3125,77.8971875 35.3125,75.3125 C35.3125,72.7278125 37.4153125,70.625 40,70.625 Z M40,76.875 C40.8615625,76.875 41.5625,76.1740625 41.5625,75.3125 C41.5625,74.4509375 40.8615625,73.75 40,73.75 C39.1384375,73.75 38.4375,74.4509375 38.4375,75.3125 C38.4375,76.1740625 39.1384375,76.875 40,76.875 Z M47.59,38.4375 C53.965625,38.4375 59.1525,43.624375 59.1525,50 L59.1525,57.8078125 C59.1525,58.670625 58.4528125,59.3703125 57.59,59.3703125 L22.41,59.3703125 C21.5471875,59.3703125 20.8475,58.670625 20.8475,57.8078125 L20.8475,50 C20.8475,43.624375 26.034375,38.4375 32.41,38.4375 L33.0529687,38.4375 C31.5895313,36.7934375 30.6979688,34.6295313 30.6979688,32.2604688 L30.6979688,28.973125 L30.6979688,27.4521875 L30.6979688,27.11 C30.6979688,21.9807813 34.8707813,17.8079688 40,17.8079688 C45.1292188,17.8079688 49.3020313,21.9807813 49.3020313,27.11 L49.3020313,27.4521875 L49.3020313,28.973125 L49.3020313,32.2604688 C49.3020313,34.6295313 48.4104688,36.7934375 46.9470313,38.4375 L47.59,38.4375 Z M40,20.9328125 C36.5939063,20.9328125 33.8229688,23.70375 33.8229688,27.1098438 L33.8229688,27.410625 L36.0446875,27.410625 C38.1034375,27.410625 40.0423438,26.505625 41.3645312,24.9276563 C41.8546875,24.3428125 42.6957813,24.1973438 43.3535938,24.5840625 L46.1107813,26.2039063 C45.67125,23.2259375 43.0982813,20.9328125 40,20.9328125 Z M33.8229687,30.535625 L33.8229687,32.2604688 C33.8229687,35.6665625 36.5939062,38.4375 40,38.4375 C43.4060938,38.4375 46.1770313,35.6665625 46.1770313,32.2603125 L46.1770313,29.8671875 L42.8332813,27.9026563 C40.9898438,29.5892188 38.5798437,30.535625 36.0446875,30.535625 L33.8229688,30.535625 Z M56.0275,56.2453125 L56.0275,50 C56.0275,45.3476563 52.2423437,41.5625 47.59,41.5625 L41.5625,41.5625 L41.5625,48.125 C41.5625,48.9878125 40.8628125,49.6875 40,49.6875 C39.1371875,49.6875 38.4375,48.9878125 38.4375,48.125 L38.4375,41.5625 L32.41,41.5625 C27.7576563,41.5625 23.9725,45.3476563 23.9725,50 L23.9725,56.2453125 L56.0275,56.2453125 Z M28.469375,31.2178125 C29.0795313,31.828125 29.0795313,32.8173438 28.469375,33.4275 C27.8589063,34.0378125 26.8698438,34.0375 26.2595313,33.4275 L25.2917188,32.4595313 L16.688125,41.063125 C16.3829688,41.368125 15.983125,41.5207813 15.5832813,41.5207813 C15.1834375,41.5207813 14.7835938,41.3682813 14.4782813,41.0629688 C13.868125,40.4526563 13.868125,39.4632813 14.4782813,38.853125 L24.186875,29.1446875 C24.48,28.8517188 24.8773438,28.6870313 25.2917188,28.6870313 C25.7060938,28.6870313 26.1035938,28.8517188 26.3965625,29.1448438 L28.469375,31.2178125 Z M61.3290625,18.5673437 C62.191875,18.5673437 62.8915625,19.2670312 62.8915625,20.1298437 L62.8915625,24.5182812 C62.8915625,25.3810937 62.191875,26.0807812 61.3290625,26.0807812 C60.4660937,26.0807812 59.7665625,25.3810937 59.7665625,24.5182812 L59.7665625,23.899375 L54.0042187,29.6617187 C53.6990625,29.9667187 53.2992187,30.119375 52.899375,30.119375 C52.4995312,30.119375 52.0996875,29.9667187 51.7945312,29.6617187 C51.184375,29.0514062 51.184375,28.0620312 51.7945312,27.451875 L57.5540625,21.6923437 L56.9407812,21.6923437 C56.0779687,21.6923437 55.3782812,20.9926562 55.3782812,20.1298437 C55.3782812,19.2670312 56.0779687,18.5673437 56.9407812,18.5673437 L61.3290625,18.5673437 Z" id="Combined-Shape"></path>
        </g>
    </g>
</svg>