<svg height="512" viewBox="0 0 58 58" width="512" xmlns="http://www.w3.org/2000/svg"><g id="Page-1" fill="none" fill-rule="evenodd"><g id="026---Campaign-Settings" fill-rule="nonzero"><path id="Shape" d="m57.93 27.068c-.0488239-.5435298-.4133611-1.0072368-.93-1.183l-3.555-1.258c-.2484856-1.3814457-.6148242-2.739073-1.095-4.058l2.46-2.869c.3569387-.4109638.4391732-.9932631.21-1.487-.2773333-.576-.579-1.1453333-.905-1.708s-.6683333-1.1086667-1.027-1.638c-.310693-.4457757-.8540547-.6677398-1.388-.567l-3.711.688c-.9057408-1.0727414-1.9002586-2.0672592-2.973-2.973l.684-3.71c.1041298-.53434097-.1156089-1.07996645-.561-1.393-.528-.36133333-1.074-.70366667-1.638-1.027s-1.1333333-.62333333-1.708-.9c-.4937369-.22917325-1.0760362-.14693865-1.487.21l-2.876 2.451c-1.3183384-.47939097-2.6752911-.84505896-4.056-1.093l-1.259-3.553c-.1770478-.51507141-.6404837-.8778285-1.183-.926-.638-.052-1.282-.074-1.932-.074s-1.294.022-1.932.07c-.5435298.04882388-1.0072368.41336111-1.183.93l-1.259 3.553c-1.3807089.24794104-2.7376616.61360903-4.056 1.093l-2.87-2.456c-.4109638-.35693865-.9932631-.43917325-1.487-.21-.576.27666667-1.1453333.57666667-1.708.9s-1.1103333.66733333-1.643 1.032c-.4457671.31277929-.6659169.85845302-.562 1.393l.688 3.711c-1.0727414.9057408-2.0672592 1.9002586-2.973 2.973l-3.71-.689c-.53434097-.1041298-1.07996645.1156089-1.393.561-.36133333.528-.70366667 1.074-1.027 1.638s-.62333333 1.1333333-.9 1.708c-.23315432.4943816-.15277781 1.0797578.205 1.493l2.456 2.874c-.48017584 1.318927-.8465144 2.6765543-1.095 4.058l-3.551 1.253c-.51507141.1770478-.8778285.6404837-.926 1.183-.052.638-.074 1.282-.074 1.932s.022 1.294.07 1.932c.04907296.5434309.41351603 1.0070182.93 1.183l3.555 1.258c.24814581 1.3814187.61414997 2.7390466 1.094 4.058l-2.459 2.874c-.35693865.4109638-.43917325.9932631-.21 1.487.27666667.576.57666667 1.1453333.9 1.708s.66566667 1.1086667 1.027 1.638c.31303355.4453911.85865903.6651298 1.393.561l3.709-.687c.9060755 1.0730746 1.9009254 2.0679245 2.974 2.974l-.683 3.714c-.1041298.534341.1156089 1.0799664.561 1.393.528.3606667 1.074.703 1.638 1.027s1.1333333.6256667 1.708.905c.4937369.2291732 1.0760362.1469387 1.487-.21l2.873-2.454c1.3194805.479263 2.6773898.8452528 4.059 1.094l1.259 3.545c.1770478.5150714.6404837.8778285 1.183.926.638.048 1.282.07 1.932.07s1.294-.022 1.932-.07c.5425163-.0481715 1.0059522-.4109286 1.183-.926l1.258-3.554c1.3816102-.2487472 2.7395195-.614737 4.059-1.094l2.873 2.454c.4109638.3569387.9932631.4391732 1.487.21.576-.2773333 1.1453333-.579 1.708-.905s1.1086667-.6683333 1.638-1.027c.4424028-.3113072.6621203-.8523907.562-1.384l-.687-3.709c1.0730746-.9060755 2.0679245-1.9009254 2.974-2.974l3.713.683c.534341.1041298 1.0799664-.1156089 1.393-.561.3606667-.528.703-1.074 1.027-1.638s.6256667-1.1333333.905-1.708c.2291732-.4937369.1469387-1.0760362-.21-1.487l-2.455-2.874c.47985-1.3189534.8458542-2.6765813 1.094-4.058l3.546-1.259c.5149166-.1772651.8775804-.6405818.926-1.183.048-.638.07-1.282.07-1.932s-.018-1.294-.066-1.932z" fill="#894b9d"/><circle id="Oval" cx="29" cy="29" fill="#955ba5" r="21"/><path id="Shape" d="m24 14h10c1.1045695 0 2 .8954305 2 2v2h-14v-2c0-1.1045695.8954305-2 2-2z" fill="#f0c419"/><rect id="Rectangle-path" fill="#f0c419" height="4" rx="1" width="28" x="15" y="36"/><path id="Shape" d="m16 36v-17c0-.5522847.4477153-1 1-1h24c.5522847 0 1 .4477153 1 1v17z" fill="#ecf0f1"/><path id="Shape" d="m23 18c1.6568542 0 3 1.3431458 3 3 0 .5522847-.4477153 1-1 1h-4c-.5522847 0-1-.4477153-1-1 0-1.6568542 1.3431458-3 3-3z" fill="#95a5a5"/><path id="Shape" d="m35 18c1.6568542 0 3 1.3431458 3 3 0 .5522847-.4477153 1-1 1h-4c-.5522847 0-1-.4477153-1-1 0-1.6568542 1.3431458-3 3-3z" fill="#95a5a5"/><path id="Shape" d="m27.934 31.641-2.064-5.367c-.301952-.7689749-1.043866-1.2747105-1.87-1.2747105s-1.568048.5057356-1.87 1.2747105l-2.064 5.367c-.1982702.515834.0591661 1.0947297.575 1.293.515834.1982702 1.0947298-.0591661 1.293-.575l.524-1.359h3.086l.522 1.359c.1982702.5158339.777166.7732702 1.293.575.5158339-.1982703.7732702-.777166.575-1.293zm-4.705-2.641.771-2.008.775 2.008z" fill="#35495e"/><path id="Shape" d="m33 33h-1c-1.1045695 0-2-.8954305-2-2v-4c0-1.1045695.8954305-2 2-2h1c2.209139 0 4 1.790861 4 4s-1.790861 4-4 4zm-1-6v4h1c1.1045695 0 2-.8954305 2-2s-.8954305-2-2-2z" fill="#35495e"/><path id="Shape" d="m32 40v9.78c-1.9892449.2933268-4.0107551.2933268-6 0v-9.78z" fill="#f29c1f"/></g></g></svg>