<svg height="512" viewBox="0 0 58 58" width="512" xmlns="http://www.w3.org/2000/svg"><g id="Page-1" fill="none" fill-rule="evenodd"><g id="086---Website-optimisation" fill-rule="nonzero"><path id="Shape" d="m40.52 52h14.48c1.6568542 0 3-1.3431458 3-3v-46c0-1.65685425-1.3431458-3-3-3h-52c-1.65685425 0-3 1.34314575-3 3v46c0 1.6568542 1.34314575 3 3 3z" fill="#ecf0f1"/><path id="Shape" d="m58 3v9h-58v-9c0-1.65685425 1.34314575-3 3-3h52c1.6568542 0 3 1.34314575 3 3z" fill="#3b97d3"/><circle id="Oval" cx="6" cy="6" fill="#ff5364" r="2"/><circle id="Oval" cx="14" cy="6" fill="#f0c419" r="2"/><circle id="Oval" cx="22" cy="6" fill="#65ddb9" r="2"/><rect id="Rectangle-path" fill="#285680" height="4" rx="2" width="14" x="40" y="4"/><path id="Shape" d="m11 17h-7c-.55228475 0-1-.4477153-1-1s.44771525-1 1-1h7c.5522847 0 1 .4477153 1 1s-.4477153 1-1 1z" fill="#3f5c6c"/><path id="Shape" d="m54 17h-7c-.5522847 0-1-.4477153-1-1s.4477153-1 1-1h7c.5522847 0 1 .4477153 1 1s-.4477153 1-1 1z" fill="#3f5c6c"/><path id="Shape" d="m32.02 52.86c.9521955-.1733532 1.8886419-.4241871 2.8-.75l1.98 1.69c.2808017.2477754.6828235.3029548 1.02.14.803155-.3830823 1.5754606-.8277431 2.31-1.33.3094909-.2138498.4626669-.5908985.39-.96l-.48-2.56c.7420156-.622017 1.427983-1.3079844 2.05-2.05l2.56.48c.3691015.0726669.7461502-.0805091.96-.39.5022637-.7345351.9469248-1.5068412 1.33-2.31.1629548-.3371765.1077754-.7391983-.14-1.02l-1.69-1.99c.3270367-.9075613.5779041-1.840788.75-2.79l2.45-.87c.3574744-.1216615.6088063-.4436804.64-.82.0674843-.8853826.0674843-1.7746174 0-2.66-.0311937-.3763196-.2825256-.6983385-.64-.82l-2.45-.87c-.1720959-.949212-.4229633-1.8824387-.75-2.79l1.69-1.99c.2477754-.2808017.3029548-.6828235.14-1.02-.3830823-.803155-.8277431-1.5754606-1.33-2.31-.2138498-.3094909-.5908985-.4626669-.96-.39l-2.56.48c-.622017-.7420156-1.3079844-1.427983-2.05-2.05l.48-2.56c.0726669-.3691015-.0805091-.7461502-.39-.96-.7345351-.5022637-1.5068412-.9469248-2.31-1.33-.3371765-.1629548-.7391983-.1077754-1.02.14l-1.99 1.69c-.9075613-.3270367-1.840788-.5779041-2.79-.75l-.87-2.45c-.1216615-.3574744-.4436804-.6088063-.82-.64-.8853826-.0674843-1.7746174-.0674843-2.66 0-.3763196.0311937-.6983385.2825256-.82.64l-.87 2.45c-.949212.1720959-1.8824387.4229633-2.79.75l-1.99-1.69c-.2808017-.2477754-.6828235-.3029548-1.02-.14-.803155.3830823-1.5754606.8277431-2.31 1.33-.3094909.2138498-.4626669.5908985-.39.96l.48 2.56c-.7420156.622017-1.427983 1.3079844-2.05 2.05l-2.56-.48c-.3691015-.0726669-.7461502.0805091-.96.39-.5022637.7345351-.9469248 1.5068412-1.33 2.31-.1629548.3371765-.1077754.7391983.14 1.02l1.69 1.99c-.3270367.9075613-.5779041 1.840788-.75 2.79l-2.45.87c-.35747445.1216615-.60880627.4436804-.64.82-.06748426.8853826-.06748426 1.7746174 0 2.66.03119373.3763196.28252555.6983385.64.82l2.45.87c.1720959.949212.4229633 1.8824387.75 2.79l-1.69 1.99c-.2477754.2808017-.3029548.6828235-.14 1.02.3830823.803155.8277431 1.5754606 1.33 2.31.2138498.3094909.5908985.4626669.96.39l2.56-.48c.622017.7420156 1.3079844 1.427983 2.05 2.05l-.48 2.56c-.0726669.3691015.0805091.7461502.39.96.7345351.5022637 1.5068412.9469248 2.31 1.33.3371765.1629548.7391983.1077754 1.02-.14l1.98-1.69c.9113581.3258129 1.8478045.5766468 2.8.75z" fill="#35495e"/><path id="Shape" d="m32 48.65c6.4174451-1.5220307 10.6781828-7.6085261 9.9119797-14.1593361-.7662032-6.5508099-6.3165132-11.4897745-12.9119797-11.4897745s-12.1457765 4.9389646-12.9119797 11.4897745c-.7662031 6.55081 3.4945346 12.6373054 9.9119797 14.1593361z" fill="#2c3e50"/><path id="Shape" d="m26 45.138v9.7c-.0328863 1.6385867 1.2111021 3.0216708 2.844 3.162.8223173.0428192 1.6260856-.2542453 2.2229029-.8215622.5968173-.5673168.9342112-1.3550072.9330971-2.1784378v-9.843c.0064192-.4069085.2534136-.7713137.629-.928 3.1023244-1.3811667 5.1707795-4.3823611 5.3573165-7.7731194.1865371-3.3907583-1.5402203-6.6007402-4.4723165-8.3138806-.3111487-.1813136-.6954368-.1826685-1.0078563-.0035535s-.5054083.5114319-.5061437.8715535v5.98c.0024724.8254402-.3347106 1.6155527-.9324008 2.1848716-.5976902.5693188-1.4032543.8677091-2.2275992.8251284-1.6336357-.152163-2.8727482-1.53962-2.84-3.18v-5.81c-.001594-.3605663-.1956607-.6928211-.5089387-.8713359s-.6980497-.1760988-1.0090613.0063359c-2.8745121 1.676837-4.5931451 4.7993532-4.472 8.125.1468957 3.4506993 2.2247168 6.5244976 5.372 7.947.3696677.158183.6117519.5189589.618.921z" fill="#95a5a5"/></g></g></svg>