<svg height="512" viewBox="0 0 59 58" width="512" xmlns="http://www.w3.org/2000/svg"><g id="Page-1" fill="none" fill-rule="evenodd"><g id="005---SEO-Copywriting" fill-rule="nonzero"><path id="Shape" d="m50 56c-.5522847 0-1-.4477153-1-1v-5c0-.5522847.4477153-1 1-1s1 .4477153 1 1v5c0 .5522847-.4477153 1-1 1z" fill="#2c3e50"/><path id="Shape" d="m46 44 3.072 7.4c.1620062.3678797.526028.605329.928.605329s.7659938-.2374493.928-.605329l3.072-7.4-4-2z" fill="#35495e"/><path id="Shape" d="m58 12h-4c-.5522847 0-1-.4477153-1-1s.4477153-1 1-1h4c.5522847 0 1 .4477153 1 1s-.4477153 1-1 1z" fill="#35495e"/><path id="Shape" d="m34.586 58h-33.586c-.55228475 0-1-.4477153-1-1v-56c0-.55228475.44771525-1 1-1h40c.5522847 0 1 .44771525 1 1v49.586c-.0000566.2651948-.1054506.5195073-.293.707l-6.414 6.414c-.1874927.1875494-.4418052.2929434-.707.293z" fill="#f0c419"/><path id="Shape" d="m11 17c-2.209139 0-4-1.790861-4-4 0-.5522847.44771525-1 1-1s1 .4477153 1 1c0 1.1045695.8954305 2 2 2s2-.8954305 2-2-.8954305-2-2-2c-2.209139 0-4-1.790861-4-4s1.790861-4 4-4 4 1.790861 4 4c0 .55228475-.4477153 1-1 1s-1-.44771525-1-1c0-1.1045695-.8954305-2-2-2s-2 .8954305-2 2 .8954305 2 2 2c2.209139 0 4 1.790861 4 4s-1.790861 4-4 4z" fill="#955ba5"/><path id="Shape" d="m31 17c-2.209139 0-4-1.790861-4-4v-6c0-2.209139 1.790861-4 4-4s4 1.790861 4 4v6c0 2.209139-1.790861 4-4 4zm0-12c-1.1045695 0-2 .8954305-2 2v6c0 1.1045695.8954305 2 2 2s2-.8954305 2-2v-6c0-1.1045695-.8954305-2-2-2z" fill="#955ba5"/><path id="Shape" d="m24 15h-5v-4h3c.5522847 0 1-.4477153 1-1 0-.55228475-.4477153-1-1-1h-3v-4h5c.5522847 0 1-.44771525 1-1s-.4477153-1-1-1h-5c-1.1045695 0-2 .8954305-2 2v10c0 1.1045695.8954305 2 2 2h5c.5522847 0 1-.4477153 1-1s-.4477153-1-1-1z" fill="#955ba5"/><g fill="#3d324c"><path id="Shape" d="m37 21h-32c-.55228475 0-1-.4477153-1-1s.44771525-1 1-1h32c.5522847 0 1 .4477153 1 1s-.4477153 1-1 1z"/><path id="Shape" d="m37 25h-32c-.55228475 0-1-.4477153-1-1s.44771525-1 1-1h32c.5522847 0 1 .4477153 1 1s-.4477153 1-1 1z"/><path id="Shape" d="m37 29h-3c-.5522847 0-1-.4477153-1-1s.4477153-1 1-1h3c.5522847 0 1 .4477153 1 1s-.4477153 1-1 1z"/><path id="Shape" d="m30 29h-25c-.55228475 0-1-.4477153-1-1s.44771525-1 1-1h25c.5522847 0 1 .4477153 1 1s-.4477153 1-1 1z"/><path id="Shape" d="m37 33h-21c-.5522847 0-1-.4477153-1-1s.4477153-1 1-1h21c.5522847 0 1 .4477153 1 1s-.4477153 1-1 1z"/><path id="Shape" d="m12 33h-7c-.55228475 0-1-.4477153-1-1s.44771525-1 1-1h7c.5522847 0 1 .4477153 1 1s-.4477153 1-1 1z"/><path id="Shape" d="m37 37h-32c-.55228475 0-1-.4477153-1-1s.44771525-1 1-1h32c.5522847 0 1 .4477153 1 1s-.4477153 1-1 1z"/><path id="Shape" d="m37 41h-7c-.5522847 0-1-.4477153-1-1s.4477153-1 1-1h7c.5522847 0 1 .4477153 1 1s-.4477153 1-1 1z"/><path id="Shape" d="m26 41h-21c-.55228475 0-1-.4477153-1-1s.44771525-1 1-1h21c.5522847 0 1 .4477153 1 1s-.4477153 1-1 1z"/><path id="Shape" d="m37 45h-17c-.5522847 0-1-.4477153-1-1s.4477153-1 1-1h17c.5522847 0 1 .4477153 1 1s-.4477153 1-1 1z"/><path id="Shape" d="m16 45h-11c-.55228475 0-1-.4477153-1-1s.44771525-1 1-1h11c.5522847 0 1 .4477153 1 1s-.4477153 1-1 1z"/><path id="Shape" d="m33 49h-28c-.55228475 0-1-.4477153-1-1s.44771525-1 1-1h28c.5522847 0 1 .4477153 1 1s-.4477153 1-1 1z"/><path id="Shape" d="m31 53h-26c-.55228475 0-1-.4477153-1-1s.44771525-1 1-1h26c.5522847 0 1 .4477153 1 1s-.4477153 1-1 1z"/></g><path id="Shape" d="m48 8h4c1.1045695 0 2 .8954305 2 2v34h-8v-34c0-1.1045695.8954305-2 2-2z" fill="#3f5c6c"/><path id="Shape" d="m58 27c-.5522847 0-1-.4477153-1-1v-17c0-.55228475.4477153-1 1-1s1 .44771525 1 1v17c0 .5522847-.4477153 1-1 1z" fill="#547580"/><path id="Shape" d="m50 3c1.1045695 0 2 .8954305 2 2v3h-4v-3c0-1.1045695.8954305-2 2-2z" fill="#35495e"/><path id="Shape" d="m50 15c-.5522847 0-1-.4477153-1-1v-2c0-.5522847.4477153-1 1-1s1 .4477153 1 1v2c0 .5522847-.4477153 1-1 1z" fill="#547580"/><path id="Shape" d="m50 31c-.5522847 0-1-.4477153-1-1v-12c0-.5522847.4477153-1 1-1s1 .4477153 1 1v12c0 .5522847-.4477153 1-1 1z" fill="#547580"/><path id="Shape" d="m41.9 51c-.0417173.1092178-.1065277.2081389-.19.29l-6.42 6.42c-.0818611.0834723-.1807822.1482827-.29.19v-4.9c.0032948-1.1032019.8967981-1.9967052 2-2z" fill="#f3d55b"/></g></g></svg>