<svg height="512" viewBox="0 0 58 58" width="512" xmlns="http://www.w3.org/2000/svg"><g id="Page-1" fill="none" fill-rule="evenodd"><g id="057---Design-Ad-Website" fill-rule="nonzero" transform="translate(-1)"><path id="Shape" d="m55 9.75v36.07c.0452102 1.152631-.8477494 2.1259569-2 2.18h-50c-.75145654-.0190873-1.42988263-.4546677-1.76-1.13-.15683282-.3278864-.23881036-.6865381-.24-1.05v-39.64c-.04521019-1.152631.84774936-2.12595691 2-2.18h46.25z" fill="#84b5cb"/><path id="Shape" d="m43.28 4c-.06 9.85-5 40.51-42.04 42.87-.15683282-.3278864-.23881036-.6865381-.24-1.05v-39.64c-.04521019-1.152631.84774936-2.12595691 2-2.18z" fill="#9fc9d3"/><path id="Shape" d="m49.254 4 3.4-3.4c.7938103-.79320538 2.0801897-.79320538 2.874 0l2.873 2.873c.7932054.79381034.7932054 2.08018966 0 2.874l-3.401 3.399z" fill="#fb7b76"/><path id="Shape" d="m35 48 3 6-10 2-10-2 3-6 7-2z" fill="#2980ba"/><rect id="Rectangle-path" fill="#3b97d3" height="4" rx="2" width="32" x="12" y="54"/><path id="Rectangle-path" d="m42.684 10.061h14.213v4.059h-14.213z" fill="#2980ba" transform="matrix(.707 -.707 .707 .707 6.034 38.748)"/><path id="Shape" d="m53.38 5.63-10.05 10.05h-.01l-2.87-2.88 10.05-10.05z" fill="#3b97d3"/><path id="Shape" d="m40.447 12.806-2.386 6.848c-.1356333.3663301-.0455402.7781016.2306791 1.0543209s.6879908.3663124 1.0543209.2306791l6.848-2.386z" fill="#fdd7ad"/><path id="Shape" d="m33 14v4c-.0032948 1.1032019-.8967981 1.9967052-2 2h-24c-1.10320187-.0032948-1.9967052-.8967981-2-2v-8c.0032948-1.10320187.89679813-1.9967052 2-2h20v4c.0032948 1.1032019.8967981 1.9967052 2 2z" fill="#ff5364"/><path id="Shape" d="m33 10v4h-4c-1.1032019-.0032948-1.9967052-.8967981-2-2v-4h4c1.1032019.0032948 1.9967052.89679813 2 2z" fill="#fb7b76"/><path id="Shape" d="m21 34v3c0 .5522847-.4477153 1-1 1h-13c-.55228475 0-1-.4477153-1-1v-3z" fill="#3b97d3"/><path id="Shape" d="m21 25v9h-15v-9c0-.5522847.44771525-1 1-1h13c.5522847 0 1 .4477153 1 1z" fill="#ecf0f1"/><path id="Shape" d="m13 31c-.4043959-.0000863-.7689341-.2437275-.923678-.6173454-.1547439-.373618-.0692299-.8036603.216678-1.0896546l.293-.293-.293-.293c-.3789722-.3923789-.3735524-1.0160848.0121814-1.4018186s1.0094397-.3911536 1.4018186-.0121814l1 1c.3903819.3904999.3903819 1.0235001 0 1.414l-1 1c-.1874927.1875494-.4418052.2929434-.707.293z" fill="#e64c3c"/><g fill="#3f5c6c"><path id="Shape" d="m51 26h-26c-.5522847 0-1-.4477153-1-1s.4477153-1 1-1h26c.5522847 0 1 .4477153 1 1s-.4477153 1-1 1z"/><path id="Shape" d="m51 30h-4c-.5522847 0-1-.4477153-1-1s.4477153-1 1-1h4c.5522847 0 1 .4477153 1 1s-.4477153 1-1 1z"/><path id="Shape" d="m43 30h-18c-.5522847 0-1-.4477153-1-1s.4477153-1 1-1h18c.5522847 0 1 .4477153 1 1s-.4477153 1-1 1z"/><path id="Shape" d="m51 34h-19c-.5522847 0-1-.4477153-1-1s.4477153-1 1-1h19c.5522847 0 1 .4477153 1 1s-.4477153 1-1 1z"/><path id="Shape" d="m28 34h-3c-.5522847 0-1-.4477153-1-1s.4477153-1 1-1h3c.5522847 0 1 .4477153 1 1s-.4477153 1-1 1z"/><path id="Shape" d="m38 38h-13c-.5522847 0-1-.4477153-1-1s.4477153-1 1-1h13c.5522847 0 1 .4477153 1 1s-.4477153 1-1 1z"/></g><path id="Shape" d="m55 42v3.82c.0452102 1.152631-.8477494 2.1259569-2 2.18h-50c-1.15225064-.0540431-2.04521019-1.027369-2-2.18v-3.82z" fill="#3b97d3"/></g></g></svg>