<?xml version="1.0" encoding="UTF-8"?>
<svg width="56px" height="56px" viewBox="0 0 56 56" version="1.1" xmlns="http://www.w3.org/2000/svg" xmlns:xlink="http://www.w3.org/1999/xlink">
    <!-- Generator: Sketch 52.5 (67469) - http://www.bohemiancoding.com/sketch -->
    <title>icon42</title>
    <desc>Created with Sketch.</desc>
    <defs>
        <linearGradient x1="50.0000339%" y1="-4.28885841%" x2="50.0000339%" y2="102.117253%" id="linearGradient-1">
            <stop stop-color="#FA9305" offset="0%"></stop>
            <stop stop-color="#F36214" offset="34.3%"></stop>
            <stop stop-color="#D2353B" offset="61.6%"></stop>
            <stop stop-color="#B10762" offset="100%"></stop>
        </linearGradient>
    </defs>
    <g id="nabix-Agent" stroke="none" stroke-width="1" fill="none" fill-rule="evenodd">
        <g id="icon42" fill="url(#linearGradient-1)" fill-rule="nonzero">
            <path d="M55.8983274,15.3239437 C55.8983274,22.849912 50.4410211,29.1117958 43.2786091,30.3948063 L43.2786091,32.4507042 L45.081426,32.4507042 L45.081426,51.3802817 C45.081426,53.865317 43.059419,55.8873239 40.5743838,55.8873239 C38.0889084,55.8873239 36.0673415,53.865317 36.0673415,51.3802817 L36.0673415,32.4507042 L37.8701584,32.4507042 L37.8701584,30.3948063 C30.7073064,29.1117958 25.2504401,22.849912 25.2504401,15.3239437 C25.2504401,12.6043134 25.9696303,10.053257 27.2169894,7.83670772 L24.6632923,7.06954231 C24.1676936,7.699824 23.4075705,8.11267606 22.5462148,8.11267606 C22.1241197,8.11267606 21.7293134,8.00704225 21.3723592,7.83318659 L18.7143486,12.4441021 C18.8582747,12.7746479 18.940581,13.1382042 18.940581,13.5211268 C18.940581,15.0118838 17.7271127,16.2253521 16.2363556,16.2253521 C14.7451584,16.2253521 13.5321303,15.0118838 13.5321303,13.5211268 C13.5321303,13.1144366 13.6285211,12.7323944 13.7896126,12.3864437 L10.1941021,7.83582749 C9.83890839,8.00792248 9.44498242,8.11267606 9.025088,8.11267606 C8.91329228,8.11267606 8.80589792,8.09286975 8.69674299,8.07922535 L4.6584507,16.1558098 C5.12720068,16.6426056 5.4194542,17.3006162 5.4194542,18.028169 C5.4194542,18.6923415 5.1694542,19.2926936 4.77112676,19.7632043 L7.86487673,25.0673415 C9.86047538,24.0316901 12.1210388,23.4366197 14.5206866,23.4366197 C22.5224472,23.4366197 29.0316901,29.946743 29.0316901,37.9485035 C29.0316901,38.693662 28.9621478,39.4727112 28.8208626,40.3309859 L28.6720951,41.2257922 L15.5374119,38.9652288 L17.7975352,52.0977113 L16.9040494,52.2464789 C16.0523768,52.3890845 15.2715669,52.4573064 14.5206866,52.4573064 C6.51980631,52.4573064 0.0110035155,45.9485035 0.0110035155,37.9476232 C0.0110035155,32.9907571 2.51232394,28.609595 6.31602118,25.9903168 L3.21874997,20.6808979 C3.05589792,20.7125881 2.88820417,20.7323944 2.71522885,20.7323944 C1.22403166,20.7323944 0.0110035155,19.5189261 0.0110035155,18.028169 C0.0110035155,16.5374119 1.22403166,15.3239437 2.71522885,15.3239437 C2.82702468,15.3239437 2.93397882,15.34375 3.04313375,15.3573944 L7.08142603,7.28080992 C6.61267606,6.79401408 6.32086265,6.13600349 6.32086265,5.4084507 C6.32086265,3.91769363 7.53389082,2.70422535 9.025088,2.70422535 C10.5158451,2.70422535 11.7293134,3.91769363 11.7293134,5.4084507 C11.7293134,5.81514085 11.6324824,6.1971831 11.4713909,6.54313375 L15.0669014,11.09375 C15.4220951,10.921655 15.8151408,10.8169014 16.2363556,10.8169014 C16.6588908,10.8169014 17.0536971,10.9225352 17.4106514,11.0963909 L20.0691021,6.48547538 C19.9238557,6.15492958 19.8419894,5.7913733 19.8419894,5.4084507 C19.8419894,3.91769363 21.0550176,2.70422535 22.5462148,2.70422535 C24.0215669,2.70422535 25.2196303,3.89216552 25.2455986,5.36179583 L28.2447183,6.26188383 C31.0374119,2.47359155 35.5162852,4.26325641e-14 40.5743838,4.26325641e-14 C49.0242078,4.26325641e-14 55.8983274,6.87411966 55.8983274,15.3239437 Z M15.7099472,50.5897887 L13.6751761,38.7632043 L4.82438377,46.1395246 C7.15625003,48.8961268 10.6355634,50.6536091 14.5215669,50.6536091 C14.9040494,50.6536091 15.2970951,50.6329226 15.7099472,50.5897887 Z M27.2288732,37.9476232 C27.2288732,31.2147887 21.9617077,25.7037852 15.3349472,25.2808099 L15.3349472,37.0994718 L27.1650528,39.1355634 C27.2081866,38.7209508 27.2288732,38.3279049 27.2288732,37.9476232 Z M13.5321303,25.2900528 C11.8301057,25.421655 10.2235915,25.8895246 8.775088,26.6276408 L9.80369713,28.3908451 L8.24603876,29.2992958 L7.22931335,27.5558979 C3.95994715,29.8582747 1.81382039,33.6540494 1.81382039,37.9476232 C1.81382039,40.4198943 2.53477115,42.7222711 3.76144361,44.6764965 L13.5321303,36.5360915 L13.5321303,25.2900528 Z M1.81382039,18.028169 C1.81382039,18.5255281 2.21830986,18.9295775 2.71522885,18.9295775 C3.21170772,18.9295775 3.6166373,18.5255281 3.6166373,18.028169 C3.6166373,17.5308099 3.21170772,17.1267606 2.71522885,17.1267606 C2.21830986,17.1267606 1.81382039,17.5308099 1.81382039,18.028169 Z M9.025088,6.30985915 C9.52156687,6.30985915 9.92649645,5.9058098 9.92649645,5.4084507 C9.92649645,4.91109161 9.52156687,4.50704225 9.025088,4.50704225 C8.52816901,4.50704225 8.12367955,4.91109161 8.12367955,5.4084507 C8.12367955,5.9058098 8.52816901,6.30985915 9.025088,6.30985915 Z M16.2363556,14.4225352 C16.7328345,14.4225352 17.1377641,14.0184859 17.1377641,13.5211268 C17.1377641,13.0237677 16.7328345,12.6197183 16.2363556,12.6197183 C15.7394366,12.6197183 15.3349472,13.0237677 15.3349472,13.5211268 C15.3349472,14.0184859 15.7394366,14.4225352 16.2363556,14.4225352 Z M22.5462148,6.30985915 C23.0426936,6.30985915 23.4476232,5.9058098 23.4476232,5.4084507 C23.4476232,4.91109161 23.0426936,4.50704225 22.5462148,4.50704225 C22.0492958,4.50704225 21.6448063,4.91109161 21.6448063,5.4084507 C21.6448063,5.9058098 22.0492958,6.30985915 22.5462148,6.30985915 Z M27.053257,15.3239437 C27.053257,22.7794895 33.1188381,28.8450704 40.5743838,28.8450704 C48.0299296,28.8450704 54.0955105,22.7794895 54.0955105,15.3239437 C54.0955105,7.86839786 48.0299296,1.8028169 40.5743838,1.8028169 C36.3419894,1.8028169 32.5616197,3.75968315 30.0801057,6.81382039 L31.9801937,7.38424293 C34.1227993,5.06778163 37.1769366,3.6056338 40.5743838,3.6056338 C47.0356514,3.6056338 52.2926936,8.86267606 52.2926936,15.3239437 C52.2926936,18.0902288 51.3045775,20.7790492 49.5114436,22.8939261 L48.1368838,21.7284331 C49.6540494,19.9392606 50.4898767,17.6650528 50.4898767,15.3239437 C50.4898767,9.85695425 46.0413733,5.4084507 40.5743838,5.4084507 C38.0233274,5.4084507 35.7020247,6.38468304 33.9423415,7.97403166 L41.1051937,10.1245599 C41.5972711,9.45466546 42.3851233,9.01408451 43.2786091,9.01408451 C44.7693662,9.01408451 45.9828345,10.2275528 45.9828345,11.7183099 C45.9828345,13.2090669 44.7693662,14.4225352 43.2786091,14.4225352 C42.8617958,14.4225352 42.4727112,14.3208626 42.1192782,14.1522887 L38.5,17.7711268 C38.6694542,18.1236795 38.7715669,18.5132043 38.7715669,18.9295775 C38.7715669,20.4203345 37.5580986,21.6338028 36.0673415,21.6338028 C34.5761443,21.6338028 33.3631162,20.4203345 33.3631162,18.9295775 C33.3631162,17.4388204 34.5761443,16.2253521 36.0673415,16.2253521 C36.4837148,16.2253521 36.8727993,16.3270247 37.2262323,16.4964789 L40.8455105,12.8776408 C40.6949824,12.5638204 40.6056338,12.21875 40.5875881,11.8525528 L32.6012325,9.45378524 C31.3860035,11.0990317 30.6588908,13.1254401 30.6588908,15.3239437 C30.6588908,20.7909331 35.1069543,25.2394366 40.5743838,25.2394366 C42.9141725,25.2394366 45.1883803,24.4040494 46.9788732,22.8868838 L48.1443662,24.2614436 C46.0294895,26.0541374 43.3406691,27.0422535 40.5743838,27.0422535 C34.1131162,27.0422535 28.8560739,21.7852113 28.8560739,15.3239437 C28.8560739,12.9551056 29.5669014,10.7522007 30.78125,8.90669014 L28.9991198,8.37147887 C27.7724472,10.4058098 27.053257,12.7803697 27.053257,15.3239437 Z M42.3772007,11.7183099 C42.3772007,12.215669 42.7816901,12.6197183 43.2786091,12.6197183 C43.775088,12.6197183 44.1800176,12.215669 44.1800176,11.7183099 C44.1800176,11.2209508 43.775088,10.8169014 43.2786091,10.8169014 C42.7816901,10.8169014 42.3772007,11.2209508 42.3772007,11.7183099 Z M36.96875,18.9295775 C36.96875,18.4322184 36.5638204,18.028169 36.0673415,18.028169 C35.5704225,18.028169 35.1659331,18.4322184 35.1659331,18.9295775 C35.1659331,19.4269366 35.5704225,19.8309859 36.0673415,19.8309859 C36.5638204,19.8309859 36.96875,19.4269366 36.96875,18.9295775 Z M43.2786091,34.2535211 L37.8701584,34.2535211 L37.8701584,36.056338 L43.2786091,36.056338 L43.2786091,34.2535211 Z M40.5743838,54.084507 C42.0651408,54.084507 43.2786091,52.8710388 43.2786091,51.3802817 L43.2786091,37.8591549 L37.8701584,37.8591549 L37.8701584,51.3802817 C37.8701584,52.8710388 39.0831866,54.084507 40.5743838,54.084507 Z M41.4757922,32.4507042 L41.4757922,30.6021127 C41.1756162,30.6201584 40.8789612,30.6478873 40.5743838,30.6478873 C40.2693662,30.6478873 39.9731514,30.6201584 39.6729753,30.6021127 L39.6729753,32.4507042 L41.4757922,32.4507042 Z M19.6443662,56.0215669 L17.0536971,40.4784331 L32.596831,43.0691021 L32.4489437,43.9573064 C31.4366197,50.0730634 26.6474472,54.8622359 20.5321303,55.8745599 L19.6443662,56.0215669 Z M21.1210388,53.9176936 C25.7579225,52.8089789 29.3833627,49.1835387 30.4920775,44.5466549 L19.246919,42.6725352 L21.1210388,53.9176936 Z M41.4757922,51.3802817 C41.4757922,51.878081 41.0721831,52.2816901 40.5743838,52.2816901 C40.0761443,52.2816901 39.6729753,51.878081 39.6729753,51.3802817 C39.6729753,50.8824824 40.0761443,50.4788732 40.5743838,50.4788732 C41.0721831,50.4788732 41.4757922,50.8824824 41.4757922,51.3802817 Z" id="Combined-Shape"></path>
        </g>
    </g>
</svg>