<?xml version="1.0" encoding="UTF-8"?>
<svg width="56px" height="56px" viewBox="0 0 56 56" version="1.1" xmlns="http://www.w3.org/2000/svg" xmlns:xlink="http://www.w3.org/1999/xlink">
    <!-- Generator: Sketch 52.5 (67469) - http://www.bohemiancoding.com/sketch -->
    <title>icon38</title>
    <desc>Created with Sketch.</desc>
    <defs>
        <linearGradient x1="50.0000339%" y1="-4.28885841%" x2="50.0000339%" y2="102.117253%" id="linearGradient-1">
            <stop stop-color="#FA9305" offset="0%"></stop>
            <stop stop-color="#F36214" offset="34.3%"></stop>
            <stop stop-color="#D2353B" offset="61.6%"></stop>
            <stop stop-color="#B10762" offset="100%"></stop>
        </linearGradient>
    </defs>
    <g id="nabix-Agent" stroke="none" stroke-width="1" fill="none" fill-rule="evenodd">
        <g id="icon38" fill="url(#linearGradient-1)" fill-rule="nonzero">
            <path d="M43.3317755,29.8268108 L37.286104,22.130711 C39.4328482,19.9298295 40.7292308,17.0386694 40.9446154,13.9717089 L50.3060457,13.9717089 L50.3060457,14.9962412 C48.1390437,15.4415634 46.5829189,17.3477755 46.580474,19.5600665 C46.5810561,22.1319917 48.6664449,24.2165655 51.2383701,24.2160998 C53.8102952,24.2156341 55.894869,22.1301289 55.8944033,19.5582037 C55.8939376,17.3455634 54.3367651,15.4387692 52.1688316,14.9962412 L52.1688316,13.040316 C52.1688316,12.5259543 51.7518004,12.1089231 51.2374387,12.1089231 L40.9446154,12.1089231 C40.7625281,9.52838254 39.8120416,7.06135551 38.2156341,5.02567983 L39.5149272,3.72638669 L50.477422,3.72638669 C50.9917838,5.18133888 52.5883077,5.94380042 54.0431435,5.42932225 C55.4980956,4.9149605 56.2605572,3.31843659 55.746079,1.86360083 C55.2316008,0.408765073 53.6353098,-0.35381289 52.180474,0.160548857 C51.3847152,0.441829522 50.7588191,1.067842 50.4775385,1.86348441 L39.129447,1.86348441 C38.882395,1.86348441 38.6455884,1.96174636 38.4709522,2.13638254 L36.9667526,3.64058212 C31.7907692,-1.34423285 23.553763,-1.18927235 18.5688316,3.98671102 C16.4501455,6.18666112 15.1728565,9.0618711 14.9607318,12.1088067 L7.13703119,12.1088067 L4.09219127,5.26039085 C5.45330561,4.54403326 5.9760499,2.86007484 5.25980873,1.4989605 C4.54356757,0.137846154 2.85949272,-0.384781705 1.49837838,0.331459459 C0.137380457,1.04770062 -0.385363825,2.73165904 0.330877339,4.09277339 C0.707276507,4.80808316 1.37601663,5.32465696 2.16327651,5.50802495 L5.67928482,13.4192765 C5.82900624,13.7553929 6.16267775,13.9718254 6.53057796,13.9715925 L14.9606154,13.9715925 C15.1750686,17.0032765 16.44642,19.8635842 18.5529979,22.0542204 L10.6901788,29.9170395 C5.60605405,29.1552765 0.867010395,32.6591767 0.105247401,37.7433015 C-0.656515593,42.8274262 2.84738462,47.5664699 7.93150936,48.3282328 C8.08495634,48.3512848 8.23898545,48.3703784 8.39336383,48.3856299 L8.39336383,53.0900956 C8.39336383,53.6044574 8.81039501,54.0214886 9.32475676,54.0214886 L17.8786694,54.0214886 C18.3930312,55.4764407 19.9895551,56.2389023 21.4443909,55.7244241 C22.8992266,55.2099459 23.6618046,53.6135385 23.1473264,52.1587027 C22.6328482,50.7038669 21.0364407,49.941289 19.581605,50.4557672 C18.7858462,50.7370478 18.1599501,51.3630603 17.8786694,52.1587027 L10.2561497,52.1587027 L10.2561497,48.3856299 C15.3715925,47.8756923 19.1051975,43.3153597 18.5952599,38.1998004 C18.2501788,34.7382786 16.003659,31.7579376 12.7709106,30.4730811 L19.9426362,23.3013555 C24.613106,26.9787277 31.1871102,27.0051559 35.8871518,23.3656216 L41.0545198,29.9431185 C33.9194678,30.9384283 28.9422204,37.5293139 29.9375301,44.6642495 C30.9328399,51.7993015 37.5237256,56.7765489 44.6586611,55.7812391 C51.7937131,54.7859293 56.7709605,48.1950437 55.7756507,41.0601081 C54.9015385,34.7929979 49.6553514,30.0572141 43.3317755,29.8268108 Z M54.0316175,19.5600665 C54.0316175,21.1032682 52.7806403,22.3542453 51.2374387,22.3542453 C49.694237,22.3542453 48.4432599,21.1032682 48.4432599,19.5600665 C48.4432599,18.0168649 49.694237,16.7658877 51.2374387,16.7658877 C52.7806403,16.7658877 54.0316175,18.0168649 54.0316175,19.5600665 Z M53.1002245,1.86360083 C53.6145863,1.86360083 54.0316175,2.28063202 54.0316175,2.79499376 C54.0316175,3.30935551 53.6145863,3.72638669 53.1002245,3.72638669 C52.5858628,3.72638669 52.1688316,3.30935551 52.1688316,2.79499376 C52.1688316,2.28063202 52.5858628,1.86360083 53.1002245,1.86360083 Z M2.80500624,3.72638669 C2.29064449,3.72638669 1.87361331,3.30935551 1.87361331,2.79499376 C1.87361331,2.28063202 2.29064449,1.86360083 2.80500624,1.86360083 C3.31936798,1.86360083 3.73639917,2.28063202 3.73639917,2.79499376 C3.73639917,3.30935551 3.31936798,3.72638669 2.80500624,3.72638669 Z M20.5014719,52.1588191 C21.0158337,52.1588191 21.4328649,52.5758503 21.4328649,53.0902121 C21.4328649,53.6045738 21.0158337,54.021605 20.5014719,54.021605 C19.9871102,54.021605 19.570079,53.6045738 19.570079,53.0902121 C19.570079,52.5758503 19.9871102,52.1588191 20.5014719,52.1588191 Z M13.0503285,45.5626944 C10.7485073,46.9069272 7.90100624,46.9069272 5.59918503,45.5626944 L5.59918503,43.7762827 C5.59918503,41.7187193 7.26719335,40.050711 9.32475676,40.050711 C11.3823202,40.050711 13.0503285,41.7187193 13.0503285,43.7762827 L13.0503285,45.5626944 Z M7.46197089,36.3251393 C7.46197089,35.2962994 8.29591684,34.4623534 9.32475676,34.4623534 C10.3535967,34.4623534 11.1875426,35.2962994 11.1875426,36.3251393 C11.1875426,37.3539792 10.3535967,38.1879252 9.32475676,38.1879252 C8.29591684,38.1879252 7.46197089,37.3538628 7.46197089,36.3251393 Z M14.9131143,34.174553 C16.1171726,35.5398586 16.7798586,37.2987942 16.7759002,39.1193181 C16.7755509,40.9292474 16.1129813,42.6764241 14.9131143,44.0314844 L14.9131143,43.7762827 C14.9119501,41.7400249 13.8032432,39.8654802 12.0192765,38.8836757 C13.44,37.3953098 13.3850478,35.0370229 11.8966819,33.6162994 C10.408316,32.1956923 8.05002911,32.2505281 6.62930561,33.738894 C5.25515177,35.1784782 5.25515177,37.4439751 6.62930561,38.8835593 C4.84568815,39.8655967 3.73744699,41.7400249 3.73639917,43.7761663 L3.73639917,44.031368 C1.01451975,40.9449647 1.31000416,36.2364241 4.39629106,33.5145447 C7.48269439,30.7926653 12.1912349,31.0881497 14.9131143,34.174553 Z M34.4723659,22.0971809 C30.5841497,24.92 25.3210811,24.92 21.4328649,22.0971809 L21.4328649,19.8394844 C21.4328649,18.1420208 22.8089979,16.7658877 24.5064615,16.7658877 L26.5741538,16.7658877 L25.2227027,20.1449813 C25.0842744,20.4911102 25.1656549,20.8866029 25.4294719,21.1499543 L27.2922578,23.0127401 C27.6559667,23.3763326 28.2455385,23.3763326 28.6092474,23.0127401 L30.4720333,21.1499543 C30.7358503,20.8864865 30.8172308,20.4911102 30.6788025,20.1449813 L29.3282827,16.7658877 L31.3987692,16.7658877 C33.0962328,16.7658877 34.4723659,18.1420208 34.4723659,19.8394844 L34.4723659,22.0971809 Z M28.085921,6.97229106 C28.0509938,7.03050312 28.0225863,7.0922079 28.0011642,7.15659044 C27.5298794,8.56951351 24.9854304,9.10506445 23.3471102,9.26060707 C23.5969563,6.13927651 25.065763,4.6576632 27.9527318,4.6576632 C30.5960249,4.6576632 32.0508607,5.90759252 32.4671933,8.51549272 L29.3637921,6.65270686 C28.9225447,6.38819127 28.3504366,6.53127651 28.085921,6.97229106 Z M29.2370062,8.75032017 L32.5658046,10.748158 C32.192316,13.0282079 29.3823035,14.9031019 27.9526154,14.9031019 C25.8752599,14.549289 24.1471767,13.1087734 23.4251143,11.1290977 C25.019659,10.9977713 27.8985946,10.5143784 29.2370062,8.75032017 Z M28.7219459,20.2669938 L27.9526154,21.0372557 L27.1832848,20.2669938 L27.9526154,18.3418046 L28.7219459,20.2669938 Z M32.0162827,14.9459459 C33.4692557,13.8025447 34.3632765,12.0918087 34.4723659,10.2461372 C34.4723659,4.08776715 30.926553,2.79499376 27.9526154,2.79499376 C24.9786778,2.79499376 21.4328649,4.08776715 21.4328649,10.2461372 C21.5411393,12.0928565 22.4352765,13.8047568 23.888948,14.9487401 C21.4200582,15.2529563 19.5664699,17.3518503 19.570079,19.8394844 L19.570079,20.4057713 C15.4872017,15.7762827 15.9303119,8.71341372 20.5599168,4.63053638 C25.1895218,0.547659044 32.2522744,0.990769231 36.3351518,5.6202578 C40.0607235,9.84470686 40.0607235,16.1812058 36.3351518,20.4056549 L36.3351518,19.839368 C36.340158,17.3508025 34.4862204,15.2501622 32.0162827,14.9459459 Z M49.3746528,51.9017547 C45.4864366,54.7245738 40.223368,54.7245738 36.3351518,51.9017547 L36.3351518,49.6440582 C36.3351518,47.9465946 37.7112848,46.5704615 39.4087484,46.5704615 L41.4764407,46.5704615 L40.1249896,49.9495551 C39.9865613,50.295684 40.0679418,50.6910603 40.3317588,50.9545281 L42.1945447,52.8173139 C42.5582536,53.1809064 43.1478254,53.1809064 43.5115343,52.8173139 L45.3743202,50.9545281 C45.6381372,50.6910603 45.7195177,50.295684 45.5810894,49.9495551 L44.2305696,46.5704615 L46.3010561,46.5704615 C47.9985198,46.5704615 49.3746528,47.9465946 49.3746528,49.6440582 L49.3746528,51.9017547 Z M44.1392931,38.554894 L44.1392931,38.5539626 L47.4680915,40.5518004 C47.0946029,42.8327817 44.2845904,44.7076757 42.8549023,44.7076757 C40.7775468,44.3538628 39.0494636,42.9133472 38.3274012,40.9336715 C39.9219459,40.8023451 42.8008815,40.3188358 44.1392931,38.554894 Z M38.2491642,39.0652973 C38.4987775,35.9441996 39.9675842,34.4623534 42.8549023,34.4623534 C45.4981954,34.4623534 46.9530312,35.7122827 47.3693638,38.320183 L44.2659626,36.4573971 C43.8248316,36.1927651 43.2527235,36.3358503 42.9880915,36.7769813 C42.9531642,36.8351933 42.9247568,36.8968981 42.9033347,36.9612807 C42.4320499,38.3742037 39.8874844,38.9097547 38.2491642,39.0652973 Z M43.6242328,50.0715676 L42.8549023,50.8418295 L42.0855717,50.0715676 L42.8549023,48.1463784 L43.6242328,50.0715676 Z M51.2374387,50.2130229 L51.2374387,49.6439418 C51.2424449,47.1552599 49.3885073,45.054736 46.9185696,44.7504033 C48.3715426,43.6070021 49.2655634,41.8962661 49.3746528,40.0505946 C49.3746528,33.8922245 45.8288399,32.5994511 42.8549023,32.5994511 C39.8809647,32.5994511 36.3351518,33.8922245 36.3351518,40.0505946 C36.4434262,41.8973139 37.3375634,43.6092141 38.7912349,44.7531975 C36.3223451,45.0574137 34.4687568,47.1563077 34.4723659,49.6439418 L34.4723659,50.2102287 C30.3990353,45.577131 30.8528565,38.5190353 35.4859543,34.4457048 C40.119052,30.3723742 47.1771476,30.8261954 51.2504782,35.4592931 C53.0452723,37.5006736 54.0340624,40.1265031 54.0316175,42.844657 C54.0310353,45.5596674 53.0372391,48.1804906 51.2374387,50.2130229 Z" id="Shape"></path>
        </g>
    </g>
</svg>