<?xml version="1.0" encoding="UTF-8"?>
<svg width="60px" height="60px" viewBox="0 0 60 60" version="1.1" xmlns="http://www.w3.org/2000/svg" xmlns:xlink="http://www.w3.org/1999/xlink">
    <!-- Generator: Sketch 52.5 (67469) - http://www.bohemiancoding.com/sketch -->
    <title>icon37</title>
    <desc>Created with Sketch.</desc>
    <defs>
        <linearGradient x1="50.0000339%" y1="-4.28885841%" x2="50.0000339%" y2="102.117253%" id="linearGradient-1">
            <stop stop-color="#FA9305" offset="0%"></stop>
            <stop stop-color="#F36214" offset="34.3%"></stop>
            <stop stop-color="#D2353B" offset="61.6%"></stop>
            <stop stop-color="#B10762" offset="100%"></stop>
        </linearGradient>
    </defs>
    <g id="nabix-Agent" stroke="none" stroke-width="1" fill="none" fill-rule="evenodd">
        <g id="icon37" transform="translate(30.000000, 30.000000) scale(-1, 1) translate(-30.000000, -30.000000) " fill="url(#linearGradient-1)" fill-rule="nonzero">
            <path d="M56,8 C58.209,8 60,9.791 60,12 L60,46 C60,48.209 58.209,50 56,50 L36.344,50 L38.744,58 L41,58 L41,60 L19,60 L19,58 L21.256,58 L23.656,50 L4,50 C1.791,50 0,48.209 0,46 L0,12 C0,9.791 1.791,8 4,8 L4,10 C2.89524998,10 2,10.89525 2,12 L2,42 L58,42 L58,12 C58,10.89525 57.10475,10 56,10 L56,8 Z M36.656,58 L34.256,50 L25.744,50 L23.344,58 L36.656,58 Z M58,46 L58,44 L2,44 L2,46 C2,47.10475 2.89524998,48 4,48 L56,48 C57.10475,48 58,47.10475 58,46 Z M54,40 L51.9583333,40 L51.9583333,4 C51.9583333,2.89524998 51.0444323,2 49.9166667,2 L9.08333333,2 C7.95556769,2 7.04166667,2.89524998 7.04166667,4 L7.04166667,40 L5,40 L5,4 C5,1.791 6.8283125,0 9.08333333,0 L49.9166667,0 C52.1716875,0 54,1.791 54,4 L54,40 Z M10,4 L12,4 L12,6 L10,6 L10,4 Z M14,4 L16,4 L16,6 L14,6 L14,4 Z M18,4 L20,4 L20,6 L18,6 L18,4 Z M10,8 L50,8 L50,10 L10,10 L10,8 Z M29,13 L29,27 C29,27.5525 28.5525,28 28,28 L11,28 C10.4475,28 10,27.5525 10,27 L10,13 C10,12.4475 10.4475,12 11,12 L28,12 C28.5525,12 29,12.4475 29,13 Z M16,26 L16,19 L12,19 L12,26 L16,26 Z M27,26 L27,19 L18,19 L18,26 L27,26 Z M27,17 L27,14 L12,14 L12,17 L27,17 Z M50,13 L50,27 C50,27.5525 49.5525,28 49,28 L32,28 C31.4475,28 31,27.5525 31,27 L31,13 C31,12.4475 31.4475,12 32,12 L49,12 C49.5525,12 50,12.4475 50,13 Z M42,26 L42,19 L33,19 L33,26 L42,26 Z M48,26 L48,19 L44,19 L44,26 L48,26 Z M48,17 L48,14 L33,14 L33,17 L48,17 Z M29,40 L27,40 L27,37 L12,37 L12,40 L10,40 L10,31 C10,30.4475 10.4475,30 11,30 L28,30 C28.5525,30 29,30.4475 29,31 L29,40 Z M12,35 L27,35 L27,32 L12,32 L12,35 Z M50,40 L48,40 L48,32 L39,32 L39,40 L37,40 L37,32 L33,32 L33,40 L31,40 L31,31 C31,30.4475 31.4475,30 32,30 L49,30 C49.5525,30 50,30.4475 50,31 L50,40 Z" id="Combined-Shape"></path>
        </g>
    </g>
</svg>