<?xml version="1.0" encoding="UTF-8"?>
<svg width="56px" height="56px" viewBox="0 0 56 56" version="1.1" xmlns="http://www.w3.org/2000/svg" xmlns:xlink="http://www.w3.org/1999/xlink">
    <!-- Generator: Sketch 52.5 (67469) - http://www.bohemiancoding.com/sketch -->
    <title>icon31</title>
    <desc>Created with Sketch.</desc>
    <defs>
        <linearGradient x1="50.0000339%" y1="-4.28885841%" x2="50.0000339%" y2="102.117253%" id="linearGradient-1">
            <stop stop-color="#FA9305" offset="0%"></stop>
            <stop stop-color="#F36214" offset="34.3%"></stop>
            <stop stop-color="#D2353B" offset="61.6%"></stop>
            <stop stop-color="#B10762" offset="100%"></stop>
        </linearGradient>
    </defs>
    <g id="nabix-Agent" stroke="none" stroke-width="1" fill="none" fill-rule="evenodd">
        <g id="icon31" fill="url(#linearGradient-1)" fill-rule="nonzero">
            <path d="M55.1013333,38.3102609 C55.6083478,38.3830725 55.9604638,38.8531014 55.8877681,39.3601159 L55.1002899,44.8687536 C55.1002899,44.8688696 55.1002899,44.8688696 55.1002899,44.8689855 C55.0274783,45.376 54.5573333,45.7281159 54.0503188,45.6553043 L50.4431304,45.1405217 C50.1994203,45.1055072 49.9516522,45.1689275 49.7546667,45.3167536 C49.3449275,45.6241159 49.261913,46.2055652 49.5693913,46.6153043 L51.7565217,49.5305507 C52.0638841,49.9404058 51.9808696,50.5217391 51.5710145,50.8291014 L47.1188406,54.1682319 C46.7089855,54.4755942 46.1276522,54.3925797 45.8202899,53.9827246 L43.634087,51.0674783 C43.4863768,50.8706087 43.2665507,50.7404058 43.0228406,50.7057391 C42.5157101,50.6335072 42.046029,50.986087 41.9737971,51.4932174 L41.458087,55.1004058 C41.3929275,55.5575652 41.0015072,55.8971594 40.5398261,55.8971594 C40.4957681,55.8970435 40.4517101,55.8935652 40.4081159,55.8869565 L34.8994783,55.1004058 C34.8991304,55.1004058 34.8987826,55.1002899 34.8984348,55.1002899 C34.3914203,55.0274783 34.0393043,54.5575652 34.112,54.0504348 L34.6277101,50.4432464 C34.6627246,50.1994203 34.5993043,49.9517681 34.4514783,49.7547826 C34.1441159,49.3450435 33.5626667,49.262029 33.1529275,49.5695072 L30.2376812,51.7566377 C29.8278261,52.064 29.2464928,51.9809855 28.9391304,51.5711304 L25.6,47.1189565 C25.2926377,46.7091014 25.3756522,46.1277681 25.7855072,45.8204058 L28.7052754,43.6369855 C28.9029565,43.4890435 29.0336232,43.2684058 29.0681739,43.0238841 C29.1398261,42.5167536 28.7867826,42.0474203 28.2795362,41.9757681 L24.6723478,41.4609855 C24.6684058,41.4605217 24.6643478,41.459942 24.6604058,41.4593623 C24.1535072,41.3857391 23.8022029,40.9151304 23.8757101,40.4082319 L24.6177391,35.2464928 L20.7897971,35.2464928 L21.9853913,36.4457971 C22.3014493,36.7622029 22.3466667,37.2591304 22.0929855,37.6274783 L20.3306667,40.1902609 L23.3794783,40.8311884 C23.8088116,40.9216232 24.1161739,41.3005217 24.115942,41.7392464 L24.115942,45.4493913 C24.1165217,45.8870725 23.8111304,46.2655072 23.3831884,46.3574493 L20.3343768,46.9974493 L22.0966957,49.5611594 C22.3503768,49.9295072 22.3051594,50.4264348 21.9891014,50.7428406 L19.2064928,53.5254493 C18.890087,53.8415072 18.3931594,53.8867246 18.0248116,53.6330435 L15.462029,51.866087 L14.8211014,54.9158261 C14.7306667,55.3451594 14.3517681,55.6525217 13.9130435,55.6522899 L10.2028986,55.6522899 C9.7666087,55.6511304 9.39014493,55.346087 9.29855072,54.9195362 L8.65762319,51.8707246 L6.09484058,53.6330435 C5.72649275,53.8867246 5.22956522,53.8415072 4.91315942,53.5254493 L2.13055072,50.7428406 C1.81449275,50.4264348 1.76927536,49.9295072 2.02295652,49.5611594 L3.78527536,46.9983768 L0.736463768,46.3574493 C0.307130435,46.2670145 -0.000231884055,45.8881159 3.01827001e-12,45.4493913 L3.01827001e-12,41.7392464 C-0.000579710142,41.3015652 0.304811594,40.9231304 0.732753623,40.8311884 L3.78156522,40.1911884 L2.01924638,37.6274783 C1.76556522,37.2591304 1.81078261,36.7622029 2.12684058,36.4457971 L3.32614493,35.2464928 L0.927536232,35.2464928 C0.415304348,35.2464928 3.01827001e-12,34.8311884 3.01827001e-12,34.3189565 L3.01827001e-12,0.927652174 C3.01827001e-12,0.41542029 0.415304348,0.000115942029 0.927536232,0.000115942029 L54.7246377,0.000115942029 C55.2368696,0.000115942029 55.6521739,0.41542029 55.6521739,0.927652174 L55.6521739,34.3189565 C55.6521739,34.8311884 55.2368696,35.2464928 54.7246377,35.2464928 L52.249971,35.2464928 L51.0673623,36.1313623 C50.8696812,36.2793043 50.7390145,36.499942 50.7044638,36.7444638 C50.6328116,37.2515942 50.9858551,37.7209275 51.4931014,37.7925797 L55.1002899,38.3073623 L55.1002899,38.3101449 C55.1006377,38.3101449 55.1009855,38.3102609 55.1013333,38.3102609 Z M22.2608696,42.4924058 L19.9485217,42.0110145 C19.7075942,41.9604638 19.4791884,41.8623768 19.2765217,41.7225507 C18.4331594,41.1407536 18.2212174,39.9855072 18.8030145,39.1421449 L20.1275362,37.2110145 L18.4412754,35.5247536 L16.5147826,36.8492754 C16.3122319,36.9887536 16.084058,37.0866087 15.8434783,37.1371594 C14.8408116,37.3477101 13.8573913,36.7055072 13.6468406,35.7028406 L13.1598841,33.3914203 L10.956058,33.3914203 L10.4737391,35.7037681 C10.4231884,35.9441159 10.3253333,36.172058 10.185971,36.3743768 C9.60463768,37.217971 8.4493913,37.4306087 7.6057971,36.8492754 L5.67466667,35.5247536 L3.9884058,37.2110145 L5.31292754,39.1421449 C5.45066667,39.3429565 5.5475942,39.5690435 5.59802899,39.8073043 C5.8102029,40.8096232 5.16973913,41.7942029 4.16742029,42.0063768 L1.85507246,42.4924058 L1.85507246,44.6962319 L4.17113043,45.1822609 C4.41205797,45.2328116 4.64046377,45.3308986 4.84313043,45.4707246 C5.68649275,46.0525217 5.89843478,47.2077681 5.31663768,48.0511304 L3.9884058,49.9776232 L5.67466667,51.6638841 L7.6057971,50.3393623 C7.80649275,50.2018551 8.03223188,50.1051594 8.27026087,50.0548406 C9.27257971,49.8427826 10.2570435,50.4834783 10.4691014,51.4857971 L10.956058,53.7972174 L13.1598841,53.7972174 L13.6468406,51.4811594 C13.6973913,51.2408116 13.7952464,51.0128696 13.9346087,50.8105507 C14.516058,49.9669565 15.6711884,49.7543188 16.5147826,50.3356522 L18.4412754,51.6638841 L20.1275362,49.9776232 L18.8030145,48.0511304 C18.6631884,47.8484638 18.5652174,47.620058 18.5145507,47.3791304 C18.3038841,46.3764638 18.9458551,45.3929275 19.9485217,45.1822609 L22.2608696,44.6962319 L22.2608696,42.4924058 Z M16.0157681,34.9394783 C15.858087,34.7711304 15.7696232,34.5495652 15.7681159,34.3189565 L15.7681159,25.0435942 L12.057971,25.0435942 L12.057971,31.5363478 L13.9130435,31.5363478 C14.3507246,31.5375072 14.7281159,31.8444058 14.8183188,32.2728116 L15.4592464,35.3216232 L16.0157681,34.9394783 Z M20.4057971,19.4783768 L25.9710145,19.4783768 C26.4832464,19.4783768 26.8985507,19.8936812 26.8985507,20.405913 L26.8985507,34.2818551 L29.3249855,34.6278261 C29.5686957,34.6628406 29.8164638,34.5994203 30.0134493,34.4515942 C30.4231884,34.1442319 30.5062029,33.5627826 30.1987246,33.1530435 L28.0115942,30.2377971 C27.7042319,29.827942 27.7872464,29.2466087 28.1971014,28.9392464 L28.7536232,28.5218551 L28.7536232,12.9856232 C28.7536232,12.4733913 29.1689275,12.058087 29.6811594,12.058087 L35.2463768,12.058087 C35.7586087,12.058087 36.173913,12.4733913 36.173913,12.9856232 L36.173913,28.7388986 C36.3213913,28.9168696 36.5303188,29.0328116 36.7593043,29.0637681 C37.2628406,29.1318261 37.7262609,28.7786667 37.7943188,28.2751304 L38.0289855,26.6333913 L38.0289855,8.34794203 C38.0289855,7.83571014 38.4442899,7.4204058 38.9565217,7.4204058 L44.5217391,7.4204058 C45.033971,7.4204058 45.4492754,7.83571014 45.4492754,8.34794203 L45.4492754,25.0027826 C45.6163478,25.2011594 45.6914783,25.4609855 45.6561159,25.717913 L45.1404058,29.3251014 C45.1053913,29.5689275 45.1688116,29.8165797 45.3166377,30.0135652 C45.624,30.4233043 46.2054493,30.5063188 46.6151884,30.1988406 L49.5304348,28.0117101 C49.9402899,27.7043478 50.5216232,27.7873623 50.8289855,28.1972174 L53.7971014,32.1550145 L53.7971014,1.85518841 L1.85507246,1.85518841 L1.85507246,33.3914203 L5.56521739,33.3914203 L5.56521739,33.4016232 C5.75223188,33.3976812 5.93588406,33.4513623 6.09113043,33.5555942 L8.65391304,35.3225507 L9.29484058,32.2728116 C9.38527536,31.8434783 9.76417391,31.5361159 10.2028986,31.5363478 L10.2028986,24.116058 C10.2028986,23.6038261 10.6182029,23.1885217 11.1304348,23.1885217 L16.6956522,23.1885217 C17.2078841,23.1885217 17.6231884,23.6038261 17.6231884,24.116058 L17.6231884,33.3914203 L19.4782609,33.3914203 L19.4782609,20.405913 C19.4782609,19.8936812 19.8935652,19.4783768 20.4057971,19.4783768 Z M43.5942029,9.27547826 L39.884058,9.27547826 L39.884058,23.9565217 L43.5942029,24.4870725 L43.5942029,9.27547826 Z M34.3188406,13.9131594 L30.6086957,13.9131594 L30.6086957,27.1305507 L32.6492754,25.6001159 C33.0591304,25.2927536 33.6404638,25.3757681 33.9478261,25.7856232 L34.3188406,26.2809275 L34.3188406,13.9131594 Z M25.0434783,33.3914203 L25.0434783,21.3334493 L21.3333333,21.3334493 L21.3333333,33.3914203 L25.0434783,33.3914203 Z M53.3945507,43.6870725 L53.9204638,40.0158841 L51.2306087,39.6309565 C50.500058,39.5263768 49.8409275,39.136 49.3982609,38.5456232 C48.4762899,37.3161739 48.7256812,35.572058 49.9552464,34.650087 L52.1275362,33.0204058 L49.9014493,30.0522899 L47.7273043,31.6828986 C47.1372754,32.1249855 46.395942,32.3148986 45.666087,32.2108986 C44.1446957,31.994087 43.0870725,30.5849275 43.3038841,29.0635362 L43.6878841,26.3736812 L40.0157681,25.8486957 L39.6317681,28.5385507 C39.5274203,29.269913 39.1365797,29.9298551 38.5452754,30.3727536 C37.3153623,31.294029 35.5713623,31.043942 34.649971,29.813913 L33.0202899,27.6406957 L30.0521739,29.8667826 L31.6818551,32.04 C32.1247536,32.6303768 32.3148986,33.3725217 32.2105507,34.1030725 C31.9932754,35.6244638 30.5838841,36.6816232 29.0624928,36.4643478 L26.3726377,36.0803478 L25.8476522,39.7524638 L28.5375072,40.1373913 C29.268058,40.241971 29.9271884,40.6323478 30.3698551,41.2227246 C31.2918261,42.4521739 31.0424348,44.1962899 29.8128696,45.1182609 L27.6405797,46.747942 L29.8666667,49.716058 L32.0417391,48.0854493 C32.6317681,47.6433623 33.3731014,47.4534493 34.1029565,47.5574493 C35.6243478,47.7742609 36.681971,49.1834203 36.4651594,50.7048116 L36.0811594,53.3946667 L39.7523478,53.9196522 L40.1363478,51.2297971 C40.2406957,50.4984348 40.6315362,49.8384928 41.2228406,49.3955942 C42.4527536,48.4743188 44.1967536,48.7244058 45.1181449,49.9544348 L46.7478261,52.1276522 L49.715942,49.9015652 L48.0853333,47.7274203 C47.6424348,47.1370435 47.4522899,46.3948986 47.5566377,45.6643478 C47.773913,44.1429565 49.1833043,43.0857971 50.7046957,43.3030725 L53.3945507,43.6870725 Z M12.057971,38.0291014 C15.1303188,38.0321159 17.6201739,40.521971 17.6231884,43.5943188 C17.6231884,46.667942 15.1315942,49.1595362 12.057971,49.1595362 C8.98434783,49.1595362 6.49275362,46.667942 6.49275362,43.5943188 C6.49275362,40.5206957 8.98434783,38.0291014 12.057971,38.0291014 Z M12.057971,47.3044638 C14.1070145,47.3044638 15.7681159,45.6433623 15.7681159,43.5943188 C15.7681159,41.5452754 14.1070145,39.8841739 12.057971,39.8841739 C10.0089275,39.8841739 8.34782609,41.5452754 8.34782609,43.5943188 C8.34782609,45.6433623 10.0089275,47.3044638 12.057971,47.3044638 Z M39.884058,32.4638841 C43.9802899,32.4685217 47.2997101,35.787942 47.3043478,39.8841739 C47.3043478,43.9822609 43.9821449,47.3044638 39.884058,47.3044638 C35.785971,47.3044638 32.4637681,43.9822609 32.4637681,39.8841739 C32.4637681,35.786087 35.785971,32.4638841 39.884058,32.4638841 Z M39.884058,45.4493913 C42.9564058,45.4463768 45.4462609,42.9565217 45.4492754,39.8841739 C45.4492754,36.8105507 42.9576812,34.3189565 39.884058,34.3189565 C36.8104348,34.3189565 34.3188406,36.8105507 34.3188406,39.8841739 C34.3188406,42.9577971 36.8104348,45.4493913 39.884058,45.4493913 Z M37.2869565,3.72881159 C37.7855072,3.83130435 38.1084058,4.3164058 38.0104348,4.81588406 L37.0828986,9.45356522 L35.2649275,9.08997101 L35.7862029,6.48452174 L10.6722319,21.2063768 L9.73356522,19.6054493 L34.5266087,5.07002899 L32.2782609,4.61924638 L32.6492754,2.80127536 L37.2869565,3.72881159 Z M3.71014493,25.0435942 L5.56521739,25.0435942 L5.56521739,31.5363478 L3.71014493,31.5363478 L3.71014493,25.0435942 Z M3.71014493,21.3334493 L5.56521739,21.3334493 L5.56521739,23.1885217 L3.71014493,23.1885217 L3.71014493,21.3334493 Z M50.0869565,12.058087 L51.942029,12.058087 L51.942029,25.9711304 L50.0869565,25.9711304 L50.0869565,12.058087 Z M50.0869565,8.34794203 L51.942029,8.34794203 L51.942029,10.2030145 L50.0869565,10.2030145 L50.0869565,8.34794203 Z M21.3333333,52.8696812 L23.1884058,52.8696812 L23.1884058,54.7247536 L21.3333333,54.7247536 L21.3333333,52.8696812 Z M25.0434783,52.8696812 L26.8985507,52.8696812 L26.8985507,54.7247536 L25.0434783,54.7247536 L25.0434783,52.8696812 Z M28.7536232,52.8696812 L30.6086957,52.8696812 L30.6086957,54.7247536 L28.7536232,54.7247536 L28.7536232,52.8696812 Z" id="Combined-Shape"></path>
        </g>
    </g>
</svg>