<?xml version="1.0" encoding="UTF-8"?>
<svg width="56px" height="57px" viewBox="0 0 56 57" version="1.1" xmlns="http://www.w3.org/2000/svg" xmlns:xlink="http://www.w3.org/1999/xlink">
    <!-- Generator: Sketch 52.5 (67469) - http://www.bohemiancoding.com/sketch -->
    <title>icon36</title>
    <desc>Created with Sketch.</desc>
    <defs>
        <linearGradient x1="50.0000339%" y1="-4.28885841%" x2="50.0000339%" y2="102.117253%" id="linearGradient-1">
            <stop stop-color="#FA9305" offset="0%"></stop>
            <stop stop-color="#F36214" offset="34.3%"></stop>
            <stop stop-color="#D2353B" offset="61.6%"></stop>
            <stop stop-color="#B10762" offset="100%"></stop>
        </linearGradient>
    </defs>
    <g id="nabix-Agent" stroke="none" stroke-width="1" fill="none" fill-rule="evenodd">
        <g id="icon36" fill="url(#linearGradient-1)">
            <path d="M27.9915694,45.4361055 C28.9934711,45.4361055 29.8090137,44.6210066 29.8090137,43.6186613 C29.8090137,42.6163159 28.9934711,41.801217 27.9915694,41.801217 C25.9868788,41.801217 24.356681,40.1710193 24.356681,38.1663286 C24.356681,36.4771171 25.5187627,35.0665569 27.0828473,34.6605604 L27.0828473,32.7139959 L28.9002916,32.7139959 L28.9002916,34.6605604 C30.4639325,35.0665569 31.6264579,36.4771171 31.6264579,38.1663286 L29.8090137,38.1663286 C29.8090137,37.1639832 28.9934711,36.3488844 27.9915694,36.3488844 C26.9892241,36.3488844 26.1741252,37.1639832 26.1741252,38.1663286 C26.1741252,39.168674 26.9892241,39.9837728 27.9915694,39.9837728 C29.9958164,39.9837728 31.6264579,41.6139705 31.6264579,43.6186613 C31.6264579,45.3078727 30.4639325,46.718433 28.9002916,47.1244295 L28.9002916,49.0709939 L27.0828473,49.0709939 L27.0828473,47.1244295 C25.5187627,46.718433 24.356681,45.3078727 24.356681,43.6186613 L26.1741252,43.6186613 C26.1741252,44.6210066 26.9892241,45.4361055 27.9915694,45.4361055 Z M27.9915694,54.5233266 C34.8540188,54.5233266 40.6679767,49.3962348 41.5167977,42.5972363 L43.3195994,42.822642 C42.358963,50.5285877 35.7689528,56.3407708 27.9915694,56.3407708 C20.4844068,56.3407708 14.0834178,50.9257099 12.7837855,43.6186613 L4.63989602,43.6186613 L7.59413035,45.5887424 L6.58646045,47.1009128 L2.68229883e-12,42.7099391 L6.58734793,38.3189655 L7.59501772,39.8311359 L4.63989602,41.801217 L14.3669498,41.801217 L14.4658975,42.5972363 C15.3147186,49.3962348 21.1286764,54.5233266 27.9915694,54.5233266 Z M5.27351671,18.1744422 C3.77022056,18.1744422 2.54735038,16.9511283 2.54735038,15.4482759 C2.54735038,13.9454234 3.77022056,12.7221095 5.27351671,12.7221095 C5.79931547,12.7221095 6.28739852,12.8791835 6.70448789,13.1383113 L11.7951953,9.0663666 C11.6980223,8.78638432 11.6345715,8.49131589 11.6345715,8.17849899 C11.6345715,6.67564652 12.8574417,5.45233266 14.3607378,5.45233266 C15.8635903,5.45233266 17.0869041,6.67564652 17.0869041,8.17849899 C17.0869041,8.29208925 17.0664934,8.39946749 17.0540695,8.50906437 L21.5612956,10.7617901 C22.0511536,10.290568 22.714503,9.9959432 23.4479589,9.9959432 C24.0376522,9.9959432 24.5798682,10.1885141 25.0262423,10.5075431 L29.9177231,7.08341785 C29.8542723,6.85180015 29.8090137,6.61263948 29.8090137,6.36105477 C29.8090137,4.8582023 31.0318838,3.63488844 32.53518,3.63488844 C34.0380325,3.63488844 35.2613463,4.8582023 35.2613463,6.36105477 C35.2613463,6.39743909 35.2520284,6.43204868 35.2502535,6.46843301 L39.5857632,8.20201569 C40.0853828,7.63495185 40.8090771,7.26977688 41.6224011,7.26977688 C42.1481999,7.26977688 42.6362829,7.42685086 43.0533723,7.68597865 L48.1440796,3.61403395 C48.0469067,3.33405167 47.9834559,3.03898324 47.9834559,2.72616633 C47.9834559,1.22331387 49.206326,-8.70414851e-14 50.7096222,-8.70414851e-14 C52.2124746,-8.70414851e-14 53.4357885,1.22331387 53.4357885,2.72616633 C53.4357885,4.22901879 52.2124746,5.45233266 50.7096222,5.45233266 C50.1833798,5.45233266 49.6952967,5.29525868 49.2782074,5.03613089 L44.1874999,9.10807559 C44.2846729,9.38805787 44.3485674,9.6831263 44.3485674,9.9959432 C44.3485674,11.4987957 43.1252535,12.7221095 41.6224011,12.7221095 C40.1191049,12.7221095 38.8962348,11.4987957 38.8962348,9.9959432 C38.8962348,9.95955888 38.905109,9.92494929 38.9068838,9.88856497 L34.5713742,8.15498228 C34.0717546,8.72204612 33.3485041,9.0872211 32.53518,9.0872211 C31.9450431,9.0872211 31.4028271,8.89465016 30.9555654,8.57562123 L26.0640847,11.9997465 C26.128423,12.2313642 26.1741252,12.4705248 26.1741252,12.7221095 C26.1741252,14.224962 24.9508114,15.4482759 23.4479589,15.4482759 C21.9446628,15.4482759 20.7217926,14.224962 20.7217926,12.7221095 C20.7217926,12.6085193 20.7417596,12.501141 20.7541836,12.3915441 L16.2469574,10.1388184 C15.7570994,10.6100406 15.09375,10.9046653 14.3607378,10.9046653 C13.8344955,10.9046653 13.3464123,10.7475913 12.9293231,10.4884635 L7.83861556,14.5604082 C7.93578851,14.8403905 7.99968303,15.135459 7.99968303,15.4482759 C7.99968303,16.9511283 6.77636917,18.1744422 5.27351671,18.1744422 Z M50.7096222,1.81744422 C50.2077839,1.81744422 49.8009001,2.22477186 49.8009001,2.72616633 C49.8009001,3.2275608 50.2077839,3.63488844 50.7096222,3.63488844 C51.2110168,3.63488844 51.6183443,3.2275608 51.6183443,2.72616633 C51.6183443,2.22477186 51.2110168,1.81744422 50.7096222,1.81744422 Z M41.6224011,9.0872211 C41.1205628,9.0872211 40.713679,9.49454874 40.713679,9.9959432 C40.713679,10.4973377 41.1205628,10.9046653 41.6224011,10.9046653 C42.1237957,10.9046653 42.5311232,10.4973377 42.5311232,9.9959432 C42.5311232,9.49454874 42.1237957,9.0872211 41.6224011,9.0872211 Z M32.53518,5.45233266 C32.0333417,5.45233266 31.6264579,5.8596603 31.6264579,6.36105477 C31.6264579,6.86244923 32.0333417,7.26977688 32.53518,7.26977688 C33.0365746,7.26977688 33.4439021,6.86244923 33.4439021,6.36105477 C33.4439021,5.8596603 33.0365746,5.45233266 32.53518,5.45233266 Z M23.4479589,11.8133874 C22.9461206,11.8133874 22.5392368,12.2207151 22.5392368,12.7221095 C22.5392368,13.223504 22.9461206,13.6308316 23.4479589,13.6308316 C23.9493535,13.6308316 24.356681,13.223504 24.356681,12.7221095 C24.356681,12.2207151 23.9493535,11.8133874 23.4479589,11.8133874 Z M14.3607378,7.26977688 C13.8588995,7.26977688 13.4520157,7.67710452 13.4520157,8.17849899 C13.4520157,8.67989345 13.8588995,9.0872211 14.3607378,9.0872211 C14.8621324,9.0872211 15.2694599,8.67989345 15.2694599,8.17849899 C15.2694599,7.67710452 14.8621324,7.26977688 14.3607378,7.26977688 Z M5.27351671,14.5395538 C4.77167844,14.5395538 4.3647946,14.9468814 4.3647946,15.4482759 C4.3647946,15.9496703 4.77167844,16.356998 5.27351671,16.356998 C5.77491129,16.356998 6.18223882,15.9496703 6.18223882,15.4482759 C6.18223882,14.9468814 5.77491129,14.5395538 5.27351671,14.5395538 Z M47.0747337,29.0791075 L47.0747337,7.26977688 L54.3445106,7.26977688 L54.3445106,29.0791075 L47.0747337,29.0791075 Z M48.892178,9.0872211 L48.892178,27.2616633 L52.5270664,27.2616633 L52.5270664,9.0872211 L48.892178,9.0872211 Z M37.9875126,29.0791075 L37.9875126,14.5395538 L45.2572895,14.5395538 L45.2572895,29.0791075 L37.9875126,29.0791075 Z M39.8049569,16.356998 L39.8049569,27.2616633 L43.4398453,27.2616633 L43.4398453,16.356998 L39.8049569,16.356998 Z M10.7258494,29.0791075 L10.7258494,12.7221095 L17.9956262,12.7221095 L17.9956262,29.0791075 L10.7258494,29.0791075 Z M12.5432936,14.5395538 L12.5432936,27.2616633 L16.178182,27.2616633 L16.178182,14.5395538 L12.5432936,14.5395538 Z M8.90840514,19.9918864 L8.90840514,29.0791075 L1.63862827,29.0791075 L1.63862827,19.9918864 L8.90840514,19.9918864 Z M7.09096092,27.2616633 L7.09096092,21.8093306 L3.45607249,21.8093306 L3.45607249,27.2616633 L7.09096092,27.2616633 Z M49.3962348,35.5927992 L55.9826952,39.9837728 L49.3962348,44.3747465 L48.388565,42.8625761 L51.3436866,40.8924949 L41.6720968,40.8924949 L41.6241759,40.0347997 C41.2212855,32.8719574 35.2329488,27.2616633 27.9915694,27.2616633 C20.778144,27.2616633 14.7893636,32.8737323 14.3585193,40.0383494 L12.5450684,39.9300837 C12.853892,34.7830249 15.6963109,30.3494549 19.8130705,27.7870183 L19.8130705,17.2657201 L27.0828473,17.2657201 L27.0828473,25.4877028 C27.385459,25.4703981 27.6849644,25.4442191 27.9915694,25.4442191 C28.2977308,25.4442191 28.5985674,25.4686233 28.9002916,25.4868154 L28.9002916,10.9046653 L36.1700684,10.9046653 L36.1700684,27.7679386 C40.0747337,30.1857252 42.8270791,34.2834051 43.3661892,39.0750507 L51.3427992,39.0750507 L48.388565,37.1049696 L49.3962348,35.5927992 Z M21.6305147,19.0831643 L21.6305147,26.8263819 C22.7770664,26.30857 23.9928372,25.9212095 25.2654031,25.6949163 L25.2654031,19.0831643 L21.6305147,19.0831643 Z M30.7177358,12.7221095 L30.7177358,25.6895918 C31.9907454,25.9149974 33.2056288,26.3010269 34.3526242,26.8161765 L34.3526242,12.7221095 L30.7177358,12.7221095 Z M16.178182,40.8924949 C16.178182,34.3788032 21.4774341,29.0791075 27.9915694,29.0791075 C30.7802991,29.0791075 33.4909356,30.0752408 35.6229716,31.8824798 L34.4480223,33.2681922 C32.6438894,31.738717 30.3512297,30.8965517 27.9915694,30.8965517 C22.4797794,30.8965517 17.9956262,35.3811486 17.9956262,40.8924949 C17.9956262,43.2525989 18.8377916,45.5452587 20.3672668,47.3489478 L18.9815543,48.5238971 C17.1738717,46.391861 16.178182,43.6812246 16.178182,40.8924949 Z M20.3597236,49.9025101 L21.5351167,48.5167977 C23.3388058,50.0462729 25.6314656,50.8884381 27.9915694,50.8884381 C33.5029158,50.8884381 37.9875126,46.4038412 37.9875126,40.8924949 C37.9875126,38.5323909 37.1449036,36.2397312 35.6154285,34.4360421 L37.001141,33.2610928 C38.8088235,35.3931289 39.8049569,38.1037652 39.8049569,40.8924949 C39.8049569,47.4061866 34.5052611,52.7058824 27.9915694,52.7058824 C25.2023961,52.7058824 22.4917596,51.709749 20.3597236,49.9025101 Z" id="Combined-Shape"></path>
        </g>
    </g>
</svg>