<?xml version="1.0" encoding="UTF-8"?>
<svg width="56px" height="56px" viewBox="0 0 56 56" version="1.1" xmlns="http://www.w3.org/2000/svg" xmlns:xlink="http://www.w3.org/1999/xlink">
    <!-- Generator: Sketch 52.5 (67469) - http://www.bohemiancoding.com/sketch -->
    <title>icon39</title>
    <desc>Created with Sketch.</desc>
    <defs>
        <linearGradient x1="50.0000339%" y1="-4.28885841%" x2="50.0000339%" y2="102.117253%" id="linearGradient-1">
            <stop stop-color="#FA9305" offset="0%"></stop>
            <stop stop-color="#F36214" offset="34.3%"></stop>
            <stop stop-color="#D2353B" offset="61.6%"></stop>
            <stop stop-color="#B10762" offset="100%"></stop>
        </linearGradient>
    </defs>
    <g id="nabix-Agent" stroke="none" stroke-width="1" fill="none" fill-rule="evenodd">
        <g id="icon39" fill="url(#linearGradient-1)" fill-rule="nonzero">
            <path d="M55.8629688,27.2028441 C56.3773306,38.3467277 47.7604324,47.7973389 36.6166653,48.311817 C25.4728981,48.8262952 16.0220541,40.2093971 15.5076923,29.0656299 L12.6837089,29.0656299 L9.94634511,33.4804324 C9.77648233,33.7543784 9.4770395,33.9209813 9.15466112,33.9209813 L0.936981289,33.9209813 C0.763509356,33.9209813 0.593413721,33.8725489 0.44602079,33.7811559 C0.00884823285,33.5100042 -0.125738046,32.9359168 0.145297297,32.4987443 L2.83422869,28.1631102 L0.145297297,23.8284075 C0.0539043659,23.6810146 0.00547193347,23.5109189 0.00547193347,23.337447 C0.00558835759,22.8230852 0.422619543,22.4060541 0.936981289,22.4061705 L9.15477755,22.4061705 C9.47715593,22.4061705 9.77659875,22.5727734 9.94646154,22.8467193 L12.647501,27.2028441 L15.5078087,27.2028441 C15.9888732,16.7792765 24.3304283,8.43783784 34.7539958,7.95665696 C45.897763,7.44217879 55.3486071,16.0590769 55.8629688,27.2028441 Z M8.63587526,32.0581954 L10.4530229,29.1243077 L4.427842,29.1243077 L2.60790021,32.0581954 L8.63587526,32.0581954 Z M4.43063617,27.2028441 L10.455817,27.2028441 L8.63587526,24.2689563 L2.60790021,24.2689563 L4.43063617,27.2028441 Z M35.7321913,46.4724324 C45.8595759,46.4592765 54.0587443,38.2386861 54.0455884,28.1113015 C54.0324324,17.9839168 45.811842,9.78474844 35.6844574,9.79790437 C25.9297464,9.81338877 17.8934553,17.4609397 17.3946944,27.2028441 L21.1994345,27.2028441 C21.6676923,19.9120166 27.4770229,14.1028025 34.7678503,13.6344283 C42.7758503,13.1199501 49.6845738,19.1948441 50.199052,27.2028441 C50.7135301,35.2108441 44.6386362,42.1195676 36.6306362,42.6340457 C28.6226362,43.1485239 21.7137963,37.0736299 21.1994345,29.0656299 L17.3946944,29.0656299 C17.8906611,38.8280249 25.9572225,46.4851227 35.7321913,46.4724324 Z M35.683526,27.2028441 C36.1978877,27.2028441 36.6149189,27.6198753 36.6149189,28.134237 C36.6149189,28.6485988 36.1978877,29.0656299 35.683526,29.0656299 L34.7297796,29.0656299 C34.7386279,29.074711 34.7477089,29.0837921 34.7569064,29.0927568 C35.2864033,29.6072349 36.1325738,29.5951268 36.6469356,29.0656299 C37.1612973,28.5361331 37.1490728,27.6899626 36.6196923,27.1756008 C36.0903119,26.6612391 35.2441414,26.6734636 34.7297796,27.2028441 L35.683526,27.2028441 Z M36.6345946,31.1940956 C34.944815,31.7084574 33.1578212,30.755526 32.6434595,29.0657464 L28.750237,29.0657464 C29.1700624,32.1939459 31.6308025,34.6545696 34.7588857,35.074395 C38.5918004,35.5887568 42.1159584,32.8986611 42.6303202,29.0657464 C43.1446819,25.2328316 40.4545863,21.7086736 36.6216715,21.1943119 C32.7887568,20.6799501 29.2645988,23.3701622 28.750237,27.2029605 L32.6434595,27.2029605 C32.9538462,26.1832017 33.7519335,25.3849979 34.7718087,25.0746112 C36.4615884,24.5601331 38.2485821,25.5130644 38.7629439,27.2029605 C39.277422,28.8927401 38.3244906,30.6797339 36.6345946,31.1940956 Z M36.6161996,36.9502204 C31.7472266,37.4645821 27.383185,33.9346029 26.8688233,29.0656299 L23.0622204,29.0656299 C23.523842,35.3269189 28.5021372,40.3053306 34.7634262,40.7669522 C41.7401414,41.2813139 47.8129397,36.0423451 48.3274179,29.0656299 C48.841896,22.0889148 43.6029272,16.0161164 36.6262121,15.5016383 C29.6494969,14.9871601 23.5765821,20.2260125 23.0622204,27.2028441 L26.8688233,27.2028441 C27.3082079,23.0438254 30.5945114,19.7576383 34.7534137,19.3182536 C39.6223867,18.8038919 43.9864283,22.3339875 44.50079,27.2028441 C45.0151518,32.071817 41.4850561,36.4358586 36.6161996,36.9502204 Z M9.31392931,0.000582120582 L16.7650728,0.000582120582 L16.7650728,1.86336798 L9.31392931,1.86336798 L9.31392931,0.000582120582 Z M16.7650728,6.52033264 L24.2162162,6.52033264 L24.2162162,8.3831185 L16.7650728,8.3831185 L16.7650728,6.52033264 Z M5.58835759,0.000582120582 L7.45114345,0.000582120582 L7.45114345,1.86336798 L5.58835759,1.86336798 L5.58835759,0.000582120582 Z M3.72557173,17.6970478 L11.1767152,17.6970478 L11.1767152,19.5598337 L3.72557173,19.5598337 L3.72557173,17.6970478 Z M9.98312544e-13,17.6970478 L1.86278586,17.6970478 L1.86278586,19.5598337 L9.98312544e-13,19.5598337 L9.98312544e-13,17.6970478 Z M7.45114345,38.1876923 L13.039501,38.1876923 L13.039501,40.0504782 L7.45114345,40.0504782 L7.45114345,38.1876923 Z M3.72557173,38.1876923 L5.58835759,38.1876923 L5.58835759,40.0504782 L3.72557173,40.0504782 L3.72557173,38.1876923 Z M18.6278586,46.5702287 L20.4906445,46.5702287 L20.4906445,48.4330146 L18.6278586,48.4330146 L18.6278586,46.5702287 Z M3.72557173,54.0213721 L11.1767152,54.0213721 L11.1767152,55.884158 L3.72557173,55.884158 L3.72557173,54.0213721 Z M9.98312544e-13,54.0213721 L1.86278586,54.0213721 L1.86278586,55.884158 L9.98312544e-13,55.884158 L9.98312544e-13,54.0213721 Z" id="Combined-Shape"></path>
        </g>
    </g>
</svg>