<?xml version="1.0" encoding="UTF-8"?>
<svg width="56px" height="57px" viewBox="0 0 56 57" version="1.1" xmlns="http://www.w3.org/2000/svg" xmlns:xlink="http://www.w3.org/1999/xlink">
    <!-- Generator: Sketch 52.5 (67469) - http://www.bohemiancoding.com/sketch -->
    <title>icon35</title>
    <desc>Created with Sketch.</desc>
    <defs>
        <linearGradient x1="50.0000339%" y1="-4.28885841%" x2="50.0000339%" y2="102.117253%" id="linearGradient-1">
            <stop stop-color="#FA9305" offset="0%"></stop>
            <stop stop-color="#F36214" offset="34.3%"></stop>
            <stop stop-color="#D2353B" offset="61.6%"></stop>
            <stop stop-color="#B10762" offset="100%"></stop>
        </linearGradient>
    </defs>
    <g id="nabix-Agent" stroke="none" stroke-width="1" fill="none" fill-rule="evenodd">
        <g id="icon35" fill="url(#linearGradient-1)">
            <path d="M52.2080302,24.3826664 C50.514423,24.3890333 49.0382017,25.537357 48.6147999,27.1768452 L46.6196726,27.1768452 L46.6196726,29.039631 L48.6147999,29.039631 C49.1023259,30.9096934 50.9400987,32.0948545 52.8447246,31.7669569 C54.7488955,31.4390592 56.0850442,29.7077053 55.9190489,27.7826143 C55.7530535,25.8575234 54.1403976,24.3799376 52.2080302,24.3826664 Z M52.2080302,29.971024 C51.1793139,29.971024 50.3452443,29.137409 50.3452443,28.1082381 C50.3452443,27.0795218 51.1793139,26.2454522 52.2080302,26.2454522 C53.2372011,26.2454522 54.0708161,27.0795218 54.0708161,28.1082381 C54.0708161,29.137409 53.2372011,29.971024 52.2080302,29.971024 Z" id="Shape" fill-rule="nonzero"></path>
            <path d="M21.4720635,7.61759361 C22.0209849,7.61441011 22.5617203,7.48889036 23.0556133,7.24967513 L24.8365385,9.38760389 C24.2057562,10.3885785 24.0929703,11.6310421 24.5327443,12.72934 C24.972973,13.8276377 25.9130068,14.6485187 27.0604211,14.9368503 L27.0604211,16.9315229 L28.9232069,16.9315229 L28.9232069,14.9368503 C30.0710758,14.6485187 31.0106549,13.8276377 31.4508836,12.72934 C31.8911123,11.6310421 31.7783264,10.3885785 31.1475441,9.38760389 L32.9284693,7.24967513 C33.4223623,7.48889036 33.9630977,7.61441011 34.5115645,7.61759361 C36.2465566,7.62941788 37.7632536,6.4497142 38.1784693,4.76520276 C38.5941398,3.08069133 37.7996362,1.33069133 36.258381,0.534823285 C34.716671,-0.261499509 32.8302365,0.103690229 31.6969204,1.41709979 C30.5636044,2.73096411 30.4794699,4.65059765 31.4931782,6.05860181 L29.7913852,8.10102648 C28.6785343,7.45660083 27.3055483,7.45660083 26.1926974,8.10102648 L24.4909044,6.05860181 C25.4873311,4.66105766 25.3972843,2.76325364 24.2735188,1.46621622 C23.1492984,0.169178794 21.283329,-0.189643942 19.758446,0.598037971 C18.2335629,1.38571988 17.4458809,3.11479987 17.8533654,4.78202965 C18.260395,6.4497142 19.7557173,7.62123187 21.4720635,7.61759361 Z M34.5115645,2.02923602 C35.5407354,2.02923602 36.3743504,2.86330561 36.3743504,3.89202189 C36.3743504,4.9211928 35.5407354,5.75480775 34.5115645,5.75480775 C33.4828482,5.75480775 32.6487786,4.9211928 32.6487786,3.89202189 C32.6487786,2.86330561 33.4828482,2.02923602 34.5115645,2.02923602 Z M27.991814,9.48037948 C29.0209849,9.48037948 29.8545999,10.3144491 29.8545999,11.3431653 C29.8545999,12.3723362 29.0209849,13.2059512 27.991814,13.2059512 C26.9630977,13.2059512 26.1290281,12.3723362 26.1290281,11.3431653 C26.1290281,10.3144491 26.9630977,9.48037948 27.991814,9.48037948 Z M21.4720635,2.02923602 C22.5012344,2.02923602 23.3348493,2.86330561 23.3348493,3.89202189 C23.3348493,4.9211928 22.5012344,5.75480775 21.4720635,5.75480775 C20.4433472,5.75480775 19.6092776,4.9211928 19.6092776,3.89202189 C19.6092776,2.86330561 20.4433472,2.02923602 21.4720635,2.02923602 Z" id="Shape" fill-rule="nonzero"></path>
            <path d="M35.7158265,19.0671778 L37.0328743,20.3842256 L41.0135785,16.4035213 C41.5816008,16.745972 42.2314839,16.9283394 42.8941009,16.9315229 C44.9519881,16.9315229 46.6196726,15.2638384 46.6196726,13.2059512 C46.6196726,11.1485187 44.9519881,9.48037948 42.8941009,9.48037948 C40.8366683,9.48037948 39.1685292,11.1485187 39.1685292,13.2059512 C39.1721674,13.8690229 39.3545349,14.5189059 39.6969854,15.0864735 L35.7158265,19.0671778 Z M42.8941009,11.3431653 C43.9232718,11.3431653 44.7568868,12.1772349 44.7568868,13.2059512 C44.7568868,14.2351221 43.9232718,15.0687371 42.8941009,15.0687371 C41.8653846,15.0687371 41.031315,14.2351221 41.031315,13.2059512 C41.031315,12.1772349 41.8653846,11.3431653 42.8941009,11.3431653 Z" id="Shape" fill-rule="nonzero"></path>
            <polygon id="Path" points="45.9611487 8.82231032 47.0521699 7.73083423 48.3692177 9.04788205 47.2781965 10.1393581"></polygon>
            <path d="M49.6867204,7.73037948 L50.3275078,7.08959197 C50.8955301,7.43204268 51.5454132,7.61441011 52.2080302,7.61759361 C54.2659174,7.61759361 55.9336019,5.94990907 55.9336019,3.89202189 C55.9336019,1.83458934 54.2659174,0.166450162 52.2080302,0.166450162 C50.1505977,0.166450162 48.4824585,1.83458934 48.4824585,3.89202189 C48.4860967,4.55509356 48.6684642,5.20497658 49.0109148,5.77254415 L48.3701274,6.41333166 L49.6867204,7.73037948 Z M52.2080302,2.02923602 C53.2372011,2.02923602 54.0708161,2.86330561 54.0708161,3.89202189 C54.0708161,4.9211928 53.2372011,5.75480775 52.2080302,5.75480775 C51.1793139,5.75480775 50.3452443,4.9211928 50.3452443,3.89202189 C50.3452443,2.86330561 51.1793139,2.02923602 52.2080302,2.02923602 Z" id="Shape" fill-rule="nonzero"></path>
            <path d="M13.0895271,16.9315229 C13.7525988,16.9283394 14.4024818,16.745972 14.9700493,16.4035213 L18.9507537,20.3842256 L20.2678015,19.0671778 L16.2870972,15.0864735 C16.6295479,14.5189059 16.8119153,13.8690229 16.8150988,13.2059512 C16.8150988,11.1485187 15.1474143,9.48037948 13.0895271,9.48037948 C11.0320945,9.48037948 9.36395536,11.1485187 9.36395536,13.2059512 C9.36395536,15.2638384 11.0320945,16.9315229 13.0895271,16.9315229 Z M13.0895271,11.3431653 C14.118698,11.3431653 14.9523129,12.1772349 14.9523129,13.2059512 C14.9523129,14.2351221 14.118698,15.0687371 13.0895271,15.0687371 C12.0608108,15.0687371 11.2267412,14.2351221 11.2267412,13.2059512 C11.2267412,12.1772349 12.0608108,11.3431653 13.0895271,11.3431653 Z" id="Shape" fill-rule="nonzero"></path>
            <path d="M3.77559777,7.61759361 C4.43866944,7.61441011 5.08855247,7.43204268 5.65612003,7.08959197 L6.29690754,7.73037948 L7.61395536,6.41333166 L6.97316785,5.77254415 C7.31561856,5.20497658 7.497986,4.55509356 7.5011695,3.89202189 C7.5011695,1.83458934 5.83348496,0.166450162 3.77559777,0.166450162 C1.71816522,0.166450162 0.0500260457,1.83458934 0.0500260457,3.89202189 C0.0500260457,5.94990907 1.71816522,7.61759361 3.77559777,7.61759361 Z M3.77559777,2.02923602 C4.80476868,2.02923602 5.63838363,2.86330561 5.63838363,3.89202189 C5.63838363,4.9211928 4.80476868,5.75480775 3.77559777,5.75480775 C2.7468815,5.75480775 1.91281191,4.9211928 1.91281191,3.89202189 C1.91281191,2.86330561 2.7468815,2.02923602 3.77559777,2.02923602 Z" id="Shape" fill-rule="nonzero"></path>
            <polygon id="Path" points="7.61441011 9.04788205 8.93145793 7.73083423 10.022934 8.82231032 8.70543145 10.1393581"></polygon>
            <path d="M42.8941009,39.2849533 C42.2314839,39.2885915 41.5816008,39.470959 41.0135785,39.8134096 L37.0328743,35.8322506 L35.7158265,37.1492984 L39.6969854,41.1300026 C39.3545349,41.6980249 39.1721674,42.347908 39.1685292,43.010525 C39.1685292,45.0684122 40.8366683,46.7360967 42.8941009,46.7360967 C44.9519881,46.7360967 46.6196726,45.0684122 46.6196726,43.010525 C46.6196726,40.9530925 44.9519881,39.2849533 42.8941009,39.2849533 Z M42.8941009,44.8733109 C41.8653846,44.8733109 41.031315,44.0396959 41.031315,43.010525 C41.031315,41.9818087 41.8653846,41.1477391 42.8941009,41.1477391 C43.9232718,41.1477391 44.7568868,41.9818087 44.7568868,43.010525 C44.7568868,44.0396959 43.9232718,44.8733109 42.8941009,44.8733109 Z" id="Shape" fill-rule="nonzero"></path>
            <path d="M52.2080302,48.5988826 C51.5454132,48.6025208 50.8955301,48.7848883 50.3275078,49.1273389 L49.6867204,48.4865515 L48.3701274,49.8031445 L49.0109148,50.4439319 C48.6684642,51.0119543 48.4860967,51.6618373 48.4824585,52.3244543 C48.4824585,54.3823415 50.1505977,56.050026 52.2080302,56.050026 C54.2659174,56.050026 55.9336019,54.3823415 55.9336019,52.3244543 C55.9336019,50.2670218 54.2659174,48.5988826 52.2080302,48.5988826 Z M52.2080302,54.1872402 C51.1793139,54.1872402 50.3452443,53.3536252 50.3452443,52.3244543 C50.3452443,51.295738 51.1793139,50.4616685 52.2080302,50.4616685 C53.2372011,50.4616685 54.0708161,51.295738 54.0708161,52.3244543 C54.0708161,53.3536252 53.2372011,54.1872402 52.2080302,54.1872402 Z" id="Shape" fill-rule="nonzero"></path>
            <path d="M34.5115645,48.5988826 C33.962643,48.6038851 33.4219074,48.731224 32.9284693,48.9718035 L31.1475441,46.829327 C31.7783264,45.8283523 31.8911123,44.5858888 31.4508836,43.487591 C31.0106549,42.3892931 30.0710758,41.5684122 28.9232069,41.2800805 L28.9232069,39.2849533 L27.0604211,39.2849533 L27.0604211,41.2800805 C25.9130068,41.5684122 24.972973,42.3892931 24.5327443,43.487591 C24.0929703,44.5858888 24.2057562,45.8283523 24.8365385,46.829327 L23.0556133,48.9718035 C22.5621752,48.731224 22.0209849,48.6038851 21.4720635,48.5988826 C19.7370712,48.587513 18.220829,49.7672168 17.8051586,51.4517282 C17.3899429,53.1362396 18.1839917,54.8857849 19.7257017,55.6821076 C21.2674116,56.4784304 23.1538462,56.1132406 24.2871622,54.7998311 C25.4204782,53.4859667 25.5046128,51.5663332 24.4909044,50.158329 L26.1926974,48.1154496 C27.3055483,48.76033 28.6785343,48.76033 29.7913852,48.1154496 L31.4931782,50.158329 C30.4967515,51.5558732 30.5867983,53.4536772 31.710564,54.7507146 C32.8347843,56.047752 34.7007537,56.4065749 36.2256367,55.6188929 C37.7505198,54.8312111 38.5377469,53.102131 38.1307173,51.4344464 C37.7236876,49.7672168 36.2279106,48.5952443 34.5115645,48.5988826 Z M21.4720635,54.1872402 C20.4433472,54.1872402 19.6092776,53.3536252 19.6092776,52.3244543 C19.6092776,51.295738 20.4433472,50.4616685 21.4720635,50.4616685 C22.5012344,50.4616685 23.3348493,51.295738 23.3348493,52.3244543 C23.3348493,53.3536252 22.5012344,54.1872402 21.4720635,54.1872402 Z M27.991814,46.7360967 C26.9630977,46.7360967 26.1290281,45.9024818 26.1290281,44.8733109 C26.1290281,43.8445946 26.9630977,43.010525 27.991814,43.010525 C29.0209849,43.010525 29.8545999,43.8445946 29.8545999,44.8733109 C29.8545999,45.9024818 29.0209849,46.7360967 27.991814,46.7360967 Z M34.5115645,54.1872402 C33.4828482,54.1872402 32.6487786,53.3536252 32.6487786,52.3244543 C32.6487786,51.295738 33.4828482,50.4616685 34.5115645,50.4616685 C35.5407354,50.4616685 36.3743504,51.295738 36.3743504,52.3244543 C36.3743504,53.3536252 35.5407354,54.1872402 34.5115645,54.1872402 Z" id="Shape" fill-rule="nonzero"></path>
            <polygon id="Path" points="45.9611487 47.3946206 47.2781965 46.0775728 48.3692177 47.168594 47.0521699 48.4860967"></polygon>
            <path d="M6.29690754,48.4865515 L5.65612003,49.1273389 C5.08855247,48.7848883 4.43866944,48.6025208 3.77559777,48.5988826 C1.71816522,48.5988826 0.0500260457,50.2670218 0.0500260457,52.3244543 C0.0500260457,54.3823415 1.71816522,56.050026 3.77559777,56.050026 C5.83348496,56.050026 7.5011695,54.3823415 7.5011695,52.3244543 C7.497986,51.6618373 7.31561856,51.0119543 6.97316785,50.4439319 L7.61395536,49.8031445 L6.29690754,48.4865515 Z M3.77559777,54.1872402 C2.7468815,54.1872402 1.91281191,53.3536252 1.91281191,52.3244543 C1.91281191,51.295738 2.7468815,50.4616685 3.77559777,50.4616685 C4.80476868,50.4616685 5.63838363,51.295738 5.63838363,52.3244543 C5.63838363,53.3536252 4.80476868,54.1872402 3.77559777,54.1872402 Z" id="Shape" fill-rule="nonzero"></path>
            <path d="M20.2678015,37.1492984 L18.9507537,35.8322506 L14.9700493,39.8134096 C14.4024818,39.470959 13.7525988,39.2885915 13.0895271,39.2849533 C11.0320945,39.2849533 9.36395536,40.9530925 9.36395536,43.010525 C9.36395536,45.0684122 11.0320945,46.7360967 13.0895271,46.7360967 C15.1474143,46.7360967 16.8150988,45.0684122 16.8150988,43.010525 C16.8119153,42.347908 16.6295479,41.6980249 16.2870972,41.1300026 L20.2678015,37.1492984 Z M13.0895271,44.8733109 C12.0608108,44.8733109 11.2267412,44.0396959 11.2267412,43.010525 C11.2267412,41.9818087 12.0608108,41.1477391 13.0895271,41.1477391 C14.118698,41.1477391 14.9523129,41.9818087 14.9523129,43.010525 C14.9523129,44.0396959 14.118698,44.8733109 13.0895271,44.8733109 Z" id="Shape" fill-rule="nonzero"></path>
            <polygon id="Path" points="7.61441011 47.168594 8.70543145 46.0775728 10.022934 47.3946206 8.93145793 48.4860967"></polygon>
            <polygon id="Path" points="39.1685292 27.1768452 41.031315 27.1768452 41.031315 29.039631 39.1685292 29.039631"></polygon>
            <polygon id="Path" points="42.8941009 27.1768452 44.7568868 27.1768452 44.7568868 29.039631 42.8941009 29.039631"></polygon>
            <path d="M3.77559777,31.8338098 C5.46965959,31.8274428 6.94588095,30.6795738 7.36928274,29.039631 L9.36395536,29.039631 L9.36395536,27.1768452 L7.36928274,27.1768452 C6.88175676,25.3072376 5.04352905,24.1220764 3.13935814,24.449974 C1.23518711,24.7774168 -0.100961597,26.5092255 0.0650338129,28.4343166 C0.231029106,30.3594075 1.84368509,31.8369932 3.77559777,31.8338098 Z M3.77559777,26.2454522 C4.80476868,26.2454522 5.63838363,27.0795218 5.63838363,28.1082381 C5.63838363,29.137409 4.80476868,29.971024 3.77559777,29.971024 C2.7468815,29.971024 1.91281191,29.137409 1.91281191,28.1082381 C1.91281191,27.0795218 2.7468815,26.2454522 3.77559777,26.2454522 Z" id="Shape" fill-rule="nonzero"></path>
            <polygon id="Path" points="14.9523129 27.1768452 16.8150988 27.1768452 16.8150988 29.039631 14.9523129 29.039631"></polygon>
            <polygon id="Path" points="11.2267412 27.1768452 13.0895271 27.1768452 13.0895271 29.039631 11.2267412 29.039631"></polygon>
            <path d="M27.991814,18.7943088 C22.8482328,18.7943088 18.6778847,22.964657 18.6778847,28.1082381 C18.6778847,33.2522739 22.8482328,37.4221674 27.991814,37.4221674 C33.1358498,37.4221674 37.3057433,33.2522739 37.3057433,28.1082381 C37.3002858,22.9669308 33.1335759,18.8002209 27.991814,18.7943088 Z M23.3348493,33.9158004 L23.3348493,33.8512214 C23.9092385,32.2067307 24.8460888,30.7118633 26.0762733,29.4784954 L26.1112916,29.4430223 C27.2664371,30.1474792 28.7176455,30.1474792 29.8723362,29.4430223 L29.9078093,29.4784954 C31.1379938,30.7118633 32.0748441,32.2067307 32.6487786,33.8512214 L32.6487786,33.9158004 C29.9310032,36.1073935 26.0530796,36.1073935 23.3348493,33.9158004 Z M27.991814,28.1082381 C26.9630977,28.1082381 26.1290281,27.2746232 26.1290281,26.2454522 C26.1290281,25.216736 26.9630977,24.3826664 27.991814,24.3826664 C29.0209849,24.3826664 29.8545999,25.216736 29.8545999,26.2454522 C29.8545999,27.2746232 29.0209849,28.1082381 27.991814,28.1082381 Z M34.0663332,32.4086539 C33.3996232,30.8241943 32.4350312,29.3825364 31.2248571,28.1614475 L31.1893841,28.1259745 C31.5318348,27.5584069 31.7142022,26.9085239 31.7173857,26.2454522 C31.7173857,24.1880197 30.0497012,22.5198805 27.991814,22.5198805 C25.9343814,22.5198805 24.2662423,24.1880197 24.2662423,26.2454522 C24.2698805,26.9085239 24.452248,27.5584069 24.7946985,28.1259745 L24.7592255,28.1614475 C23.5490514,29.3825364 22.5844595,30.8241943 21.9172947,32.4086539 C19.7206991,29.3161383 20.1977651,25.0666581 23.0260525,22.5385265 C25.8538851,20.010395 30.1301975,20.010395 32.9580302,22.5385265 C35.7858628,25.0666581 36.2633835,29.3161383 34.0663332,32.4086539 Z" id="Shape" fill-rule="nonzero"></path>
        </g>
    </g>
</svg>