<?xml version="1.0" encoding="UTF-8"?>
<svg width="56px" height="56px" viewBox="0 0 56 56" version="1.1" xmlns="http://www.w3.org/2000/svg" xmlns:xlink="http://www.w3.org/1999/xlink">
    <!-- Generator: Sketch 52.5 (67469) - http://www.bohemiancoding.com/sketch -->
    <title>icon41</title>
    <desc>Created with Sketch.</desc>
    <defs>
        <linearGradient x1="50.0000339%" y1="-4.28885841%" x2="50.0000339%" y2="102.117253%" id="linearGradient-1">
            <stop stop-color="#FA9305" offset="0%"></stop>
            <stop stop-color="#F36214" offset="34.3%"></stop>
            <stop stop-color="#D2353B" offset="61.6%"></stop>
            <stop stop-color="#B10762" offset="100%"></stop>
        </linearGradient>
    </defs>
    <g id="nabix-Agent" stroke="none" stroke-width="1" fill="none" fill-rule="evenodd">
        <g id="icon41" fill="url(#linearGradient-1)" fill-rule="nonzero">
            <path d="M14.6885246,26.1639344 C14.7033171,22.8983735 16.9997439,20.0882429 20.1967213,19.4230276 L20.1967213,19.2786885 C20.1967213,15.2224001 23.4846952,11.9344262 27.5409836,11.9344262 C31.597272,11.9344262 34.8852459,15.2224001 34.8852459,19.2786885 L34.8852459,19.2943776 C38.5883068,19.5440574 41.427126,22.684106 41.3034068,26.3934426 C41.1796874,30.1032275 38.1378074,33.0469391 34.4262295,33.0491803 L21.5737705,33.0491803 C17.7729892,33.045146 14.6925589,29.9647157 14.6885246,26.1639344 Z M21.1846824,21.1349257 C18.5049948,21.373399 16.4829022,23.6707224 16.5864497,26.3589268 C16.6904456,29.0475794 18.8837731,31.182185 21.5737705,31.2131148 L34.4262295,31.2131148 C37.2148437,31.2131148 39.4754098,28.9525486 39.4754098,26.1639344 C39.4754098,23.3753202 37.2148437,21.1147541 34.4262295,21.1147541 L33.9672131,21.1147541 C33.4602331,21.1147541 33.0491803,20.7037014 33.0491803,20.1967213 L33.0491803,19.2786885 C33.0491803,16.2368085 30.5828637,13.7704918 27.5409836,13.7704918 C24.4991035,13.7704918 22.0327869,16.2368085 22.0327869,19.2786885 L22.0327869,20.2168929 C22.0341317,20.697874 21.6643186,21.0986168 21.1846824,21.1349257 Z M55.0819672,2.66453526e-14 C55.5889473,2.66453526e-14 56,0.411052738 56,0.918032787 L56,13.7704918 C56,14.2774719 55.5889473,14.6885246 55.0819672,14.6885246 L49.831519,14.6885246 L50.4644596,17.2193904 C50.533043,17.4937243 50.4716317,17.784644 50.2977075,18.0074283 C50.123335,18.2302126 49.8566214,18.3606557 49.5737705,18.3606557 L44.0655738,18.3606557 C43.7827228,18.3606557 43.5160093,18.2302126 43.3416368,18.0074283 C43.1677126,17.784644 43.1063012,17.4937243 43.1748847,17.2193904 L43.8078253,14.6885246 L38.557377,14.6885246 C38.050397,14.6885246 37.6393443,14.2774719 37.6393443,13.7704918 L37.6393443,0.918032787 C37.6393443,0.411052738 38.050397,2.66453526e-14 38.557377,2.66453526e-14 L55.0819672,2.66453526e-14 Z M45.241355,16.5245902 L48.3979892,16.5245902 L47.9389728,14.6885246 L45.7003714,14.6885246 L45.241355,16.5245902 Z M54.1639344,12.852459 L54.1639344,11.0163934 L39.4754098,11.0163934 L39.4754098,12.852459 L54.1639344,12.852459 Z M54.1639344,9.18032787 L54.1639344,1.83606557 L39.4754098,1.83606557 L39.4754098,9.18032787 L54.1639344,9.18032787 Z M0.918032787,17.442623 C0.411052738,17.442623 3.57935903e-13,17.0315702 3.57935903e-13,16.5245902 L3.57935903e-13,0.918032787 C3.57935903e-13,0.411052738 0.411052738,0 0.918032787,0 L10.0983607,0 C10.6053407,0 11.0163934,0.411052738 11.0163934,0.918032787 L11.0163934,16.5245902 C11.0163934,17.0315702 10.6053407,17.442623 10.0983607,17.442623 L0.918032787,17.442623 Z M1.83606557,1.83606557 L1.83606557,3.67213115 L9.18032787,3.67213115 L9.18032787,1.83606557 L1.83606557,1.83606557 Z M1.83606557,5.50819672 L1.83606557,11.9344262 L9.18032787,11.9344262 L9.18032787,5.50819672 L1.83606557,5.50819672 Z M1.83606557,13.7704918 L1.83606557,15.6065574 L9.18032787,15.6065574 L9.18032787,13.7704918 L1.83606557,13.7704918 Z M3.67213115,49.5737705 L5.50819672,49.5737705 L5.50819672,51.4098361 L3.67213115,51.4098361 L3.67213115,49.5737705 Z M3.67213115,42.2295082 L5.50819672,42.2295082 L5.50819672,44.0655738 L3.67213115,44.0655738 L3.67213115,42.2295082 Z M0.918032787,55.0819672 C0.411052738,55.0819672 5.95079541e-13,54.6709145 5.95079541e-13,54.1639344 L5.95079541e-13,39.4754098 C5.95079541e-13,38.9684298 0.411052738,38.557377 0.918032787,38.557377 L5.50819672,38.557377 L5.50819672,36.7213115 C5.50819672,36.2143314 5.91924946,35.8032787 6.42622951,35.8032787 C6.93320956,35.8032787 7.3442623,36.2143314 7.3442623,36.7213115 L7.3442623,38.557377 L17.442623,38.557377 C17.949603,38.557377 18.3606557,38.9684298 18.3606557,39.4754098 L18.3606557,54.1639344 C18.3606557,54.6709145 17.949603,55.0819672 17.442623,55.0819672 L0.918032787,55.0819672 Z M10.0983607,40.3934426 L10.0983607,45.9016393 L16.5245902,45.9016393 L16.5245902,40.3934426 L10.0983607,40.3934426 Z M10.0983607,47.7377049 L10.0983607,53.2459016 L16.5245902,53.2459016 L16.5245902,47.7377049 L10.0983607,47.7377049 Z M1.83606557,40.3934426 L1.83606557,45.9016393 L8.26229508,45.9016393 L8.26229508,40.3934426 L1.83606557,40.3934426 Z M1.83606557,47.7377049 L1.83606557,53.2459016 L8.26229508,53.2459016 L8.26229508,47.7377049 L1.83606557,47.7377049 Z M3.67213115,33.9672131 C3.67213115,32.4462731 4.90528948,31.2131148 6.42622951,31.2131148 C7.94716954,31.2131148 9.18032787,32.4462731 9.18032787,33.9672131 C9.18032787,34.4741932 8.76927513,34.8852459 8.26229508,34.8852459 C7.75531503,34.8852459 7.3442623,34.4741932 7.3442623,33.9672131 C7.3442623,33.4602331 6.93320956,33.0491803 6.42622951,33.0491803 C5.91924946,33.0491803 5.50819672,33.4602331 5.50819672,33.9672131 C5.50819672,34.4741932 5.09714398,34.8852459 4.59016393,34.8852459 C4.08318389,34.8852459 3.67213115,34.4741932 3.67213115,33.9672131 Z M0.918032787,34.8852459 C0.411052738,34.8852459 -3.21875859e-12,34.4741932 -3.21875859e-12,33.9672131 C-3.21875859e-12,30.4179047 2.87692105,27.5409836 6.42622951,27.5409836 C9.97553797,27.5409836 12.852459,30.4179047 12.852459,33.9672131 C12.852459,34.4741932 12.4414063,34.8852459 11.9344262,34.8852459 C11.4274462,34.8852459 11.0163934,34.4741932 11.0163934,33.9672131 C11.0163934,31.432313 8.96112964,29.3770492 6.42622951,29.3770492 C3.89132938,29.3770492 1.83606557,31.432313 1.83606557,33.9672131 C1.83606557,34.4741932 1.42501284,34.8852459 0.918032787,34.8852459 Z M12.852459,14.6885246 L14.6885246,14.6885246 L14.6885246,16.5245902 L12.852459,16.5245902 L12.852459,14.6885246 Z M16.5245902,14.6885246 L18.3606557,14.6885246 L18.3606557,16.5245902 L16.5245902,16.5245902 L16.5245902,14.6885246 Z M20.1967213,42.2295082 L22.0327869,42.2295082 L22.0327869,44.0655738 L20.1967213,44.0655738 L20.1967213,42.2295082 Z M23.8688525,42.2295082 L25.704918,42.2295082 L25.704918,44.0655738 L23.8688525,44.0655738 L23.8688525,42.2295082 Z M23.8688525,38.557377 L25.704918,38.557377 L25.704918,40.3934426 L23.8688525,40.3934426 L23.8688525,38.557377 Z M23.8688525,34.8852459 L25.704918,34.8852459 L25.704918,36.7213115 L23.8688525,36.7213115 L23.8688525,34.8852459 Z M35.8032787,38.557377 L37.6393443,38.557377 L37.6393443,40.3934426 L35.8032787,40.3934426 L35.8032787,38.557377 Z M32.1311475,38.557377 L33.9672131,38.557377 L33.9672131,40.3934426 L32.1311475,40.3934426 L32.1311475,38.557377 Z M32.1311475,34.8852459 L33.9672131,34.8852459 L33.9672131,36.7213115 L32.1311475,36.7213115 L32.1311475,34.8852459 Z M45.9016393,20.1967213 L47.7377049,20.1967213 L47.7377049,22.0327869 L45.9016393,22.0327869 L45.9016393,20.1967213 Z M42.2295082,20.1967213 L44.0655738,20.1967213 L44.0655738,22.0327869 L42.2295082,22.0327869 L42.2295082,20.1967213 Z M40.3934426,36.7213115 C40.3934426,36.2143314 40.8044954,35.8032787 41.3114754,35.8032787 L54.1639344,35.8032787 C54.6709145,35.8032787 55.0819672,36.2143314 55.0819672,36.7213115 L55.0819672,54.1639344 C55.0819672,54.6709145 54.6709145,55.0819672 54.1639344,55.0819672 L41.3114754,55.0819672 C40.8044954,55.0819672 40.3934426,54.6709145 40.3934426,54.1639344 L40.3934426,36.7213115 Z M42.2295082,37.6393443 L42.2295082,53.2459016 L53.2459016,53.2459016 L53.2459016,37.6393443 L42.2295082,37.6393443 Z M46.8196721,49.5737705 L48.6557377,49.5737705 L48.6557377,51.4098361 L46.8196721,51.4098361 L46.8196721,49.5737705 Z" id="Combined-Shape"></path>
        </g>
    </g>
</svg>