<?xml version="1.0" encoding="UTF-8"?>
<svg fill="#FFBA4A" xmlns="http://www.w3.org/2000/svg" id="Outline" viewBox="0 0 64 64" width="512" height="512"><path d="M56.869,35.558l.2-.4a5.711,5.711,0,0,0-1.947-7.274l-.461-.31A3.724,3.724,0,0,1,53,24.48v-1a8.945,8.945,0,0,0-.45-2.8,1,1,0,1,0-1.9.625A6.961,6.961,0,0,1,51,23.48v1c0,.028.005.055.005.082A3.811,3.811,0,0,0,48,23c-.025,0-.048.008-.073.008a10.063,10.063,0,0,0-4.662-7.56,7.311,7.311,0,0,1,2.824,1.039l1.591,1a6.6,6.6,0,0,1,1.1.853,1,1,0,1,0,1.377-1.451,8.617,8.617,0,0,0-1.428-1.1l-1.58-.99a8.878,8.878,0,0,0-9.345-.178,7.916,7.916,0,0,0-.882.655c-.141-.04-.281-.083-.424-.112a6.867,6.867,0,0,0-8.227,8.264l.5,2.414a2.054,2.054,0,0,1-.268,1.506l-1.469,2.364a4.049,4.049,0,0,0-.212,3.9l.574,1.2a2.064,2.064,0,0,1-.075,1.927,4.044,4.044,0,0,0,.322,4.553,1,1,0,0,0,1.573-1.235,2.054,2.054,0,0,1-.165-2.315,4.061,4.061,0,0,0,.149-3.8l-.574-1.2a2.055,2.055,0,0,1,.107-1.98L30.2,28.4a4.045,4.045,0,0,0,.527-2.967l-.5-2.414a4.849,4.849,0,0,1,5.26-5.987A4.315,4.315,0,0,0,35,19a4.123,4.123,0,0,0,.1.85A11.058,11.058,0,0,0,32,27.509V30a8,8,0,0,0,4,6.918V37.6a9.264,9.264,0,0,0-4.416,3.513l-5.443,5.443-.2-2.053A4.985,4.985,0,0,0,20.96,40H7a5,5,0,0,0-4.975,5.5l.355,3.553a1,1,0,0,0,1.991-.2L4.016,45.3A3,3,0,0,1,7,42H20.96a2.989,2.989,0,0,1,2.985,2.7l1.42,14.2a1,1,0,0,1-.994,1.1H8.2a2.991,2.991,0,0,1-2.985-2.7l-.446-4.467a1,1,0,0,0-1.991.2L3.225,57.5A4.985,4.985,0,0,0,8.2,62H49a6.006,6.006,0,0,0,6-6V50a1,1,0,0,0-2,0v6a4,4,0,0,1-4,4H38V56.913L48.09,56A1,1,0,0,0,49,55V47a1,1,0,0,0-2,0v7.087L36.953,55h-2a8.9,8.9,0,0,0-1.644-4.669A6.934,6.934,0,0,1,32,46.261a7.283,7.283,0,0,1,4.076-6.511A4,4,0,0,0,40,43a6,6,0,0,0,5.65-4H46a7.008,7.008,0,0,1,7,7,1,1,0,0,0,2,0c0-.175-.016-.346-.026-.519a5.707,5.707,0,0,0,1.813-6.811A3.654,3.654,0,0,1,56.869,35.558ZM28.009,56,32,52.01a6.894,6.894,0,0,1,.969,3.142A3.97,3.97,0,0,0,31.382,56Zm2.024-10.509c-.022.255-.033.511-.033.77a8.918,8.918,0,0,0,.936,3.984l-4.024,4.023L26.4,49.126ZM27.285,58h2.857A3.939,3.939,0,0,0,30,59v1H27.192a2.991,2.991,0,0,0,.163-1.3ZM36,60H32V59a2,2,0,0,1,2-2h2ZM50,27.5A2.3,2.3,0,0,1,48,30a2.3,2.3,0,0,1-2-2.5A2.3,2.3,0,0,1,48,25,2.3,2.3,0,0,1,50,27.5ZM38.869,16.309a6.029,6.029,0,0,1,.743-.388l1.479.635A8.086,8.086,0,0,1,45.9,22.73a3.643,3.643,0,0,0-1.741-.395,9.114,9.114,0,0,1-7.049-3.008.89.89,0,0,0-.079-.058A2.077,2.077,0,0,1,37,19,3.393,3.393,0,0,1,38.869,16.309ZM34,30V27.509a9.066,9.066,0,0,1,2.361-6.1,11.3,11.3,0,0,0,7.848,2.925,1.648,1.648,0,0,1,.817.185A4.783,4.783,0,0,0,44,27.5a4.868,4.868,0,0,0,.621,2.383l-.77.554A8.266,8.266,0,0,1,39,32a1,1,0,0,0,0,2,10.251,10.251,0,0,0,6.019-1.94l.769-.554A5.989,5.989,0,0,1,34,30Zm6,11a2,2,0,0,1-2-2V37.737a7.9,7.9,0,0,0,6-.812V37A4,4,0,0,1,40,41Zm15.271-6.728-.2.4a5.642,5.642,0,0,0-.125,4.791,3.724,3.724,0,0,1-.423,3.679A9.011,9.011,0,0,0,46,37V35.288a7.951,7.951,0,0,0,1.745-3.317c.086.006.168.029.255.029a4.248,4.248,0,0,0,3.984-4.328,5.76,5.76,0,0,0,1.558,1.558l.464.313A3.709,3.709,0,0,1,55.271,34.272Z"/><path d="M17,51a3,3,0,1,0-3,3A3,3,0,0,0,17,51Zm-4,0a1,1,0,1,1,1,1A1,1,0,0,1,13,51Z"/><path d="M7,29h5.586l6.707,6.707A1,1,0,0,0,20,36a.987.987,0,0,0,.383-.076A1,1,0,0,0,21,35V29a5.006,5.006,0,0,0,5-5V14a5.006,5.006,0,0,0-5-5,1,1,0,0,0,0,2,3,3,0,0,1,3,3V24a3,3,0,0,1-3,3H20a1,1,0,0,0-1,1v4.586l-5.293-5.293A1,1,0,0,0,13,27H7a3,3,0,0,1-3-3V14a3,3,0,0,1,3-3H17a1,1,0,0,0,0-2H7a5.006,5.006,0,0,0-5,5V24A5.006,5.006,0,0,0,7,29Z"/><path d="M9,13a2.987,2.987,0,0,0-2.22,5A2.981,2.981,0,0,0,6,20v2a1,1,0,0,0,1,1h4a1,1,0,0,0,1-1V20a2.981,2.981,0,0,0-.78-2A2.987,2.987,0,0,0,9,13Zm0,2a1,1,0,1,1-1,1A1,1,0,0,1,9,15Zm1,6H8V20a1,1,0,0,1,2,0Z"/><path d="M21,13H18a1,1,0,0,0,0,2h3a1,1,0,0,0,0-2Z"/><path d="M21,17H15a1,1,0,0,0,0,2h6a1,1,0,0,0,0-2Z"/><path d="M21,21H15a1,1,0,0,0,0,2h6a1,1,0,0,0,0-2Z"/><circle cx="36" cy="27" r="1"/><circle cx="41" cy="27" r="1"/><path d="M44.03,47.758l-.03.119A4.116,4.116,0,0,1,40,51a1,1,0,0,0,0,2,6.113,6.113,0,0,0,5.94-4.639l.03-.119a1,1,0,1,0-1.94-.484Z"/></svg>
