<?xml version="1.0" encoding="UTF-8"?>
<svg fill="#FFBA4A" xmlns="http://www.w3.org/2000/svg" id="Outline" viewBox="0 0 64 64" width="512" height="512"><path d="M57,8H7a5.006,5.006,0,0,0-5,5V31a1,1,0,0,0,2,0V13a3,3,0,0,1,3-3H57a3,3,0,0,1,3,3v7a1,1,0,0,0,2,0V13A5.006,5.006,0,0,0,57,8Z"/><path d="M61,23a1,1,0,0,0-1,1V43a3,3,0,0,1-3,3H7a3,3,0,0,1-3-3V35a1,1,0,0,0-2,0v8a5.006,5.006,0,0,0,5,5H21.937a7.967,7.967,0,0,1-3.708,5.8L14.713,56H12a5.006,5.006,0,0,0-5,5,1,1,0,0,0,1,1H23a1,1,0,0,0,0-2H9.171A3.006,3.006,0,0,1,12,58H52a3.006,3.006,0,0,1,2.829,2H27a1,1,0,0,0,0,2H56a1,1,0,0,0,1-1,5.006,5.006,0,0,0-5-5H49.287l-3.516-2.2A7.967,7.967,0,0,1,42.063,48H57a5.006,5.006,0,0,0,5-5V24A1,1,0,0,0,61,23ZM44.71,55.5l.8.5H18.486l.8-.5A9.956,9.956,0,0,0,23.951,48h16.1A9.956,9.956,0,0,0,44.71,55.5Z"/><path d="M16,13H12a1,1,0,0,0-1,1V42a1,1,0,0,0,1,1h4a1,1,0,0,0,1-1V39H32.683a1,1,0,0,0,0-2H13V27H39v1.082a8.123,8.123,0,1,0,2-.819V18a1,1,0,0,0-1-1H17V14A1,1,0,0,0,16,13ZM49,35a6,6,0,1,1-6-6A6.006,6.006,0,0,1,49,35ZM13,15h2v2H13Zm2,24v2H13V39ZM39,21H21a1,1,0,0,0,0,2H39v2H13V23h4a1,1,0,0,0,0-2H13V19H39Z"/><path d="M25,30a1,1,0,0,0-1-1H16a1,1,0,0,0,0,2h8A1,1,0,0,0,25,30Z"/><path d="M16,33a1,1,0,0,0,0,2h3a1,1,0,0,0,0-2Z"/><path d="M41.36,37.769a1,1,0,0,0,1.347-.062l4-4a1,1,0,0,0-1.414-1.414l-3.356,3.355-1.322-1.1a1,1,0,0,0-1.279,1.538Z"/><path d="M50,23a1,1,0,0,1-1-1,1,1,0,0,0-2,0,3,3,0,0,0,2,2.816V26a1,1,0,0,0,2,0V24.816A2.993,2.993,0,0,0,50,19a1,1,0,1,1,1-1,1,1,0,0,0,2,0,3,3,0,0,0-2-2.816V14a1,1,0,0,0-2,0v1.184A2.993,2.993,0,0,0,50,21a1,1,0,0,1,0,2Z"/><path d="M8,41V16a1,1,0,0,0-2,0V41a1,1,0,0,0,2,0Z"/><path d="M52,42a1,1,0,0,0,1,1h4a1,1,0,0,0,1-1V30a1,1,0,0,0-2,0V41H53A1,1,0,0,0,52,42Z"/><path d="M39,15a1,1,0,0,0,0-2H24a1,1,0,0,0,0,2Z"/><path d="M22,41a1,1,0,0,0,0,2H34a1,1,0,0,0,0-2Z"/></svg>
