<?xml version="1.0" encoding="UTF-8"?>
<svg fill="#FFBA4A" xmlns="http://www.w3.org/2000/svg" id="Outline" viewBox="0 0 64 64" width="512" height="512"><path d="M61,2H3A1,1,0,0,0,2,3V35a1,1,0,0,0,2,0V12H19a1,1,0,0,0,1-1V4H60v6H23a1,1,0,0,0,0,2H52V35a1,1,0,0,0,1,1h8a1,1,0,0,0,1-1V3A1,1,0,0,0,61,2ZM18,10H4V4H18Zm42,2v6H54V12ZM54,34V20h6V34Z"/><circle cx="7" cy="7" r="1"/><circle cx="11" cy="7" r="1"/><circle cx="15" cy="7" r="1"/><path d="M61,38a1,1,0,0,0-1,1V60H4V40a1,1,0,0,0-2,0V61a1,1,0,0,0,1,1H61a1,1,0,0,0,1-1V39A1,1,0,0,0,61,38Z"/><path d="M32,22a1,1,0,0,0,1-1V17a3,3,0,0,0-5.935-.618l-1.352.773A21.625,21.625,0,0,1,15,20H12a6,6,0,0,0,0,12h.348l1.32,7.264a3.332,3.332,0,1,0,6.493-1.473l-1.49-5.465a21.612,21.612,0,0,1,7.042,2.519l1.352.773A3,3,0,0,0,33,35V25a1,1,0,0,0-2,0V35a1,1,0,0,1-2,0V17a1,1,0,0,1,2,0v4A1,1,0,0,0,32,22ZM8,26a4,4,0,0,1,4-4h2v8H12A4,4,0,0,1,8,26ZM18.231,38.318A1.33,1.33,0,0,1,16.946,40a1.333,1.333,0,0,1-1.311-1.094L14.379,32H15c.51,0,1.018.022,1.525.058ZM16,30.021V21.979a23.639,23.639,0,0,0,10.7-3.088l.3-.168V33.277l-.3-.168A23.639,23.639,0,0,0,16,30.021Z"/><path d="M46,25H39a1,1,0,0,0,0,2h7a1,1,0,0,0,0-2Z"/><path d="M36.4,34.8l4,3a1,1,0,1,0,1.2-1.6l-4-3a1,1,0,0,0-1.2,1.6Z"/><path d="M44.948,32.316a1,1,0,0,0-.632-1.265l-6-2a1,1,0,0,0-.632,1.9l6,2a1,1,0,0,0,1.264-.633Z"/><path d="M40.4,14.2l-4,3a1,1,0,1,0,1.2,1.6l4-3a1,1,0,1,0-1.2-1.6Z"/><path d="M43.684,19.051l-6,2a1,1,0,0,0,.632,1.9l6-2a1,1,0,0,0-.632-1.9Z"/><path d="M11,44a1,1,0,0,0-1,1V57a1,1,0,0,0,1,1H29a1,1,0,0,0,1-1V45a1,1,0,0,0-1-1Zm15.37,2L20,51.662,13.63,46ZM12,56V47.227l7.336,6.521a1,1,0,0,0,1.328,0L28,47.227V56Z"/><path d="M41.081,55.377a1,1,0,0,0,.353,1.37,9.02,9.02,0,1,0-3.181-3.181,1,1,0,0,0,1.723-1.017,7.017,7.017,0,1,1,2.475,2.476A1,1,0,0,0,41.081,55.377Z"/><path d="M44,53a.994.994,0,0,0,.515-.143l5-3a1,1,0,0,0,0-1.714l-5-3A1,1,0,0,0,43,46v6a1,1,0,0,0,1,1Zm1-5.234L47.057,49,45,50.234Z"/><path d="M56,8a1,1,0,0,0,0-2H25a1,1,0,0,0,0,2Z"/></svg>
