<svg fill="#FFBA4A" id="Capa_1" enable-background="new 0 0 512 512" height="512" viewBox="0 0 512 512" width="512" xmlns="http://www.w3.org/2000/svg"><g><g><g><path d="m504.5 497h-19.835v-10.417c0-4.142-3.358-7.5-7.5-7.5s-7.5 3.358-7.5 7.5v10.417h-53.517v-10.417c0-4.142-3.358-7.5-7.5-7.5s-7.5 3.358-7.5 7.5v10.417h-53.517v-10.417c0-4.142-3.358-7.5-7.5-7.5s-7.5 3.358-7.5 7.5v10.417h-53.517v-10.417c0-4.142-3.358-7.5-7.5-7.5s-7.5 3.358-7.5 7.5v10.417h-249.114v-91.36l39.568-10.999c4.639 8.616 12.863 15.021 22.661 17.22v51.229c0 4.142 3.358 7.5 7.5 7.5s7.5-3.358 7.5-7.5v-51.229c15.279-3.43 26.732-17.095 26.732-33.394 0-8.505-3.125-16.29-8.278-22.283l26.722-35.873c2.475-3.322 1.788-8.021-1.534-10.495-3.322-2.475-8.021-1.788-10.495 1.534l-26.713 35.861c-4.26-1.906-8.972-2.976-13.933-2.976-18.875 0-34.231 15.356-34.231 34.232 0 .578.015 1.153.044 1.724l-35.543 9.88v-137.046h10.417c4.142 0 7.5-3.358 7.5-7.5s-3.358-7.5-7.5-7.5h-10.417v-53.517h10.417c4.142 0 7.5-3.358 7.5-7.5s-3.358-7.5-7.5-7.5h-10.417v-53.517h10.417c4.142 0 7.5-3.358 7.5-7.5s-3.358-7.5-7.5-7.5h-10.417v-53.516h10.417c4.142 0 7.5-3.358 7.5-7.5s-3.358-7.5-7.5-7.5h-10.417v-24.975c0-4.142-3.358-7.5-7.5-7.5s-7.5 3.358-7.5 7.5v497c0 4.142 3.358 7.5 7.5 7.5h497c4.142 0 7.5-3.358 7.5-7.5s-3.358-7.5-7.5-7.5zm-419.771-137.765c10.604 0 19.232 8.627 19.232 19.232s-8.627 19.231-19.232 19.231-19.231-8.627-19.231-19.231 8.627-19.232 19.231-19.232z"/><path d="m306.24 194.92c1.928 0 3.855-.739 5.322-2.215l28.459-28.657c3.244 2.046 6.852 3.561 10.706 4.426v214.31c0 4.142 3.358 7.5 7.5 7.5s7.5-3.358 7.5-7.5v-214.31c9.51-2.135 17.531-8.235 22.237-16.47l15.112 4.616v271.445c0 4.142 3.358 7.5 7.5 7.5s7.5-3.358 7.5-7.5v-274.977l65.577-113.455c2.073-3.586.846-8.173-2.74-10.246-3.586-2.074-8.174-.847-10.247 2.74l-63.596 110.029-14.719-4.496c.064-.853.107-1.711.107-2.58 0-18.875-15.356-34.231-34.231-34.231s-34.232 15.356-34.232 34.231c0 6.768 1.982 13.078 5.385 18.395l-28.462 28.659c-2.918 2.939-2.902 7.688.037 10.607 1.463 1.453 3.374 2.179 5.285 2.179zm51.987-79.071c10.604 0 19.231 8.627 19.231 19.231s-8.627 19.232-19.231 19.232-19.232-8.627-19.232-19.232 8.628-19.231 19.232-19.231z"/><path d="m151.32 243.111c0 8.506 3.125 16.291 8.279 22.284l-14.244 19.125c-2.474 3.322-1.787 8.021 1.535 10.495 1.345 1.002 2.917 1.485 4.474 1.485 2.289 0 4.549-1.044 6.021-3.021l14.234-19.112c2.047.916 4.198 1.636 6.432 2.137v143.096c0 4.142 3.358 7.5 7.5 7.5s7.5-3.358 7.5-7.5v-143.095c10.148-2.278 18.604-9.071 23.141-18.156l14.432 3.536v175.326c0 4.142 3.358 7.5 7.5 7.5s7.5-3.358 7.5-7.5v-178.123l42.517-42.802c2.919-2.939 2.903-7.688-.035-10.606-2.939-2.919-7.688-2.903-10.606.035l-41.712 41.992-16.021-3.925c.004-.224.017-.445.017-.67 0-18.875-15.356-34.232-34.232-34.232s-34.232 15.356-34.232 34.231zm53.463 0c0 10.604-8.627 19.231-19.232 19.231s-19.231-8.627-19.231-19.231 8.627-19.232 19.231-19.232 19.232 8.628 19.232 19.232z"/><path d="m130.332 145.458c4.142 0 7.5-3.358 7.5-7.5v-1.616c10.009-1.631 17.682-10.313 17.682-20.776 0-11.622-9.455-21.076-21.076-21.076h-8.211c-3.351 0-6.076-2.726-6.076-6.076 0-3.351 2.726-6.076 6.076-6.076h8.211c2.022 0 3.907 1.003 5.042 2.684 2.319 3.433 6.98 4.336 10.413 2.017 3.432-2.318 4.335-6.98 2.017-10.413-3.285-4.863-8.393-8.079-14.078-9.004v-2.68c0-4.142-3.358-7.5-7.5-7.5s-7.5 3.358-7.5 7.5v2.696c-10.01 1.631-17.682 10.313-17.682 20.777 0 11.621 9.455 21.076 21.076 21.076h8.211c3.351 0 6.076 2.726 6.076 6.076s-2.726 6.076-6.076 6.076h-8.211c-2.449 0-4.647-1.458-5.602-3.713-1.614-3.814-6.017-5.6-9.83-3.986-3.815 1.614-5.599 6.015-3.986 9.83 2.859 6.758 8.943 11.441 16.023 12.589v1.598c.001 4.14 3.358 7.497 7.501 7.497z"/><path d="m130.331 172.521c32.193 0 60.438-21.713 68.689-52.801 1.062-4.003-1.322-8.11-5.325-9.173-4.004-1.062-8.11 1.322-9.173 5.325-6.508 24.522-28.792 41.649-54.191 41.649-30.917 0-56.071-25.153-56.071-56.071s25.153-56.071 56.071-56.071c25.122 0 47.34 16.898 54.032 41.093 1.104 3.992 5.238 6.332 9.228 5.229 3.992-1.104 6.333-5.235 5.229-9.228-8.483-30.672-36.647-52.094-68.489-52.094-39.188 0-71.071 31.882-71.071 71.071s31.883 71.071 71.071 71.071z"/><path d="m233.429 76.92 6.074-6.074 6.074 6.074c1.464 1.464 3.384 2.197 5.303 2.197s3.839-.732 5.303-2.197c2.929-2.929 2.929-7.678 0-10.606l-11.377-11.377c-2.929-2.929-7.678-2.929-10.606 0l-11.377 11.377c-2.929 2.929-2.929 7.678 0 10.606 2.928 2.929 7.677 2.929 10.606 0z"/><path d="m233.429 112.444 6.074-6.074 6.074 6.074c1.464 1.464 3.384 2.197 5.303 2.197s3.839-.732 5.303-2.197c2.929-2.929 2.929-7.678 0-10.606l-11.377-11.378c-2.929-2.929-7.678-2.929-10.606 0l-11.377 11.377c-2.929 2.929-2.929 7.678 0 10.606 2.928 2.93 7.677 2.93 10.606.001z"/><path d="m244.806 125.985c-2.929-2.929-7.678-2.929-10.606 0l-11.377 11.376c-2.929 2.929-2.929 7.677 0 10.606 2.929 2.93 7.678 2.929 10.606 0l6.074-6.073 6.074 6.073c1.464 1.465 3.384 2.197 5.303 2.197s3.839-.732 5.303-2.197c2.929-2.929 2.929-7.678 0-10.606z"/></g></g></g></svg>