<svg fill="#FFBA4A" id="Capa_1" enable-background="new 0 0 512 512" height="512" viewBox="0 0 512 512" width="512" xmlns="http://www.w3.org/2000/svg"><g><g><path d="m32.123 497h-21.599c-4.143 0-7.5 3.358-7.5 7.5s3.357 7.5 7.5 7.5h21.599c4.143 0 7.5-3.358 7.5-7.5s-3.357-7.5-7.5-7.5z"/><path d="m67.237 497h-8.415c-4.143 0-7.5 3.358-7.5 7.5s3.357 7.5 7.5 7.5h8.415c4.143 0 7.5-3.358 7.5-7.5s-3.357-7.5-7.5-7.5z"/><path d="m106.512 469.167h-95.988c-4.143 0-7.5 3.358-7.5 7.5s3.357 7.5 7.5 7.5h95.987c4.143 0 7.5-3.358 7.5-7.5s-3.357-7.5-7.499-7.5z"/><path d="m54.117 15h21.598c4.143 0 7.5-3.358 7.5-7.5s-3.358-7.5-7.5-7.5h-21.598c-4.143 0-7.5 3.358-7.5 7.5s3.358 7.5 7.5 7.5z"/><path d="m102.415 15h8.414c4.143 0 7.5-3.358 7.5-7.5s-3.357-7.5-7.5-7.5h-8.414c-4.143 0-7.5 3.358-7.5 7.5s3.357 7.5 7.5 7.5z"/><path d="m54.117 42.833h95.987c4.143 0 7.5-3.358 7.5-7.5s-3.357-7.5-7.5-7.5h-95.987c-4.143 0-7.5 3.358-7.5 7.5s3.358 7.5 7.5 7.5z"/><path d="m262.16 185.75h65.633c1.989 0 3.896-.79 5.304-2.197l39.084-39.084c15.218 18.602 24.803 41.932 25.972 67.23.333 7.231 6.239 12.895 13.447 12.895h15.107c4.143 0 7.5-3.358 7.5-7.5s-3.357-7.5-7.5-7.5h-13.644c-1.598-27.987-12.16-54.511-30.07-75.938l10.858-10.858c2.929-2.929 2.929-7.678 0-10.606-2.929-2.929-7.677-2.929-10.607 0l-10.516 10.516c-22.418-21.338-51.458-33.963-82.275-35.722v-61.906c100.049 3.855 180.662 84.468 184.517 184.514h-14.938c-4.143 0-7.5 3.358-7.5 7.5s3.357 7.5 7.5 7.5h16.516c3.677 0 7.111-1.454 9.673-4.094 2.56-2.638 3.908-6.112 3.797-9.784-3.32-109.212-91.472-197.363-200.685-200.684-3.679-.113-7.145 1.236-9.783 3.795-2.642 2.562-4.096 5.998-4.096 9.674v64.947c0 7.207 5.664 13.114 12.894 13.448 28.281 1.307 54.105 13.128 73.61 31.582l-37.271 37.271h-62.527c-4.143 0-7.5 3.358-7.5 7.5s3.358 7.501 7.5 7.501z"/><path d="m262.16 243.366h21.598c4.143 0 7.5-3.358 7.5-7.5s-3.357-7.5-7.5-7.5h-21.598c-4.143 0-7.5 3.358-7.5 7.5s3.358 7.5 7.5 7.5z"/><path d="m310.457 228.366c-4.143 0-7.5 3.358-7.5 7.5s3.357 7.5 7.5 7.5h8.415c4.143 0 7.5-3.358 7.5-7.5s-3.357-7.5-7.5-7.5z"/><path d="m262.16 215.534h87.269c4.143 0 7.5-3.358 7.5-7.5s-3.357-7.5-7.5-7.5h-87.269c-4.143 0-7.5 3.358-7.5 7.5s3.358 7.5 7.5 7.5z"/><path d="m430.538 406.066c1.407 1.407 3.314 2.197 5.304 2.197h65.634c4.143 0 7.5-3.358 7.5-7.5s-3.357-7.5-7.5-7.5h-62.527l-26.73-26.73c13.801-26.94 21.571-56.776 22.513-87.771.112-3.672-1.236-7.147-3.796-9.787-2.562-2.641-5.997-4.095-9.674-4.095h-64.943c-7.208 0-13.116 5.668-13.451 12.904-1.938 41.853-25.574 77.309-59.775 95.92l-28.403-28.403c-1.407-1.407-3.314-2.197-5.304-2.197h-63.276c-4.143 0-7.5 3.358-7.5 7.5s3.357 7.5 7.5 7.5h60.17l22.252 22.252c-12.689 4.754-26.448 7.347-40.827 7.347-.587 0-1.179-.004-1.769-.013-26.503-.391-52.313-10.125-72.678-27.407-3.158-2.68-7.89-2.292-10.571.865-2.68 3.158-2.292 7.891.866 10.571 21.587 18.321 48.607 29.134 76.617 30.765v61.897c-41.344-1.614-79.515-16.552-110.292-40.61l23.266-23.266c2.929-2.929 2.929-7.678 0-10.606-2.929-2.929-7.677-2.929-10.607 0l-24.152 24.152c-36.815-33.654-60.66-81.308-62.72-134.172h61.902c1.345 23.435 9.009 45.996 22.317 65.537 1.452 2.132 3.808 3.279 6.206 3.279 1.453 0 2.923-.422 4.215-1.302 3.424-2.332 4.309-6.998 1.978-10.421-12.61-18.517-19.497-40.093-19.913-62.397-1.16-62.057 46.414-113.581 108.307-117.299 7.131-.429 12.717-6.333 12.717-13.442v-15.192c0-4.142-3.357-7.5-7.5-7.5s-7.5 3.358-7.5 7.5v13.752c-32.98 2.331-63.544 16.986-86.192 41.365-20.815 22.405-32.912 50.9-34.634 81.12h-61.905c2.867-71.764 46.362-134.605 108.159-165.084l22.305 22.305c1.465 1.464 3.385 2.197 5.304 2.197s3.839-.732 5.304-2.197c2.929-2.929 2.929-7.678 0-10.606l-18.204-18.204c18.738-7.353 38.871-11.827 59.86-12.834v14.862c0 4.142 3.357 7.5 7.5 7.5s7.5-3.358 7.5-7.5v-16.453c0-3.646-1.509-7.188-4.14-9.717-2.627-2.526-6.234-3.889-9.861-3.749-25.298 1-49.799 6.547-72.547 16.205l-21.79-21.79c-1.407-1.407-3.314-2.197-5.304-2.197h-65.632c-4.143 0-7.5 3.358-7.5 7.5s3.357 7.5 7.5 7.5h62.526l15.789 15.789c-20.075 10.432-38.515 24.216-54.576 41.04-37.526 39.309-57.887 90.834-57.335 145.081.555 54.401 22.219 105.667 61.003 144.355 2.014 2.009 4.07 3.961 6.151 5.877l-14.624 14.624h-62.527c-4.143 0-7.5 3.358-7.5 7.5s3.357 7.5 7.5 7.5h65.634c1.989 0 3.896-.79 5.304-2.197l17.635-17.635c36.11 28.789 80.389 44.618 126.932 44.98.549.004 1.098.007 1.646.007 53.87 0 104.862-20.604 143.748-58.124 12.928-12.474 24.025-26.355 33.168-41.295zm-195.369 58.314v-61.89c15.587-.885 30.71-4.539 44.777-10.719l21.003 21.003c1.465 1.464 3.385 2.197 5.304 2.197s3.839-.732 5.304-2.197c2.929-2.929 2.929-7.678 0-10.606l-17.6-17.6c8.244-4.895 16.004-10.73 23.131-17.46 1.111-1.05 2.195-2.121 3.264-3.203 14.063 14.017 28.641 28.581 43.481 43.438-33.331 33.574-78.783 55.052-128.664 57.037zm138.821-68.094c-14.918-14.935-29.567-29.569-43.694-43.649 16.354-20.82 25.96-46.031 27.484-72.757h61.905c-1.038 26.843-7.716 52.309-18.839 75.281l-11.382-11.382c-2.93-2.929-7.678-2.929-10.607 0s-2.929 7.678 0 10.606l14.593 14.593c-5.698 9.669-12.221 18.801-19.46 27.308z"/><path d="m501.476 450.879h-21.599c-4.143 0-7.5 3.358-7.5 7.5s3.357 7.5 7.5 7.5h21.599c4.143 0 7.5-3.358 7.5-7.5s-3.358-7.5-7.5-7.5z"/><path d="m453.178 450.879h-8.415c-4.143 0-7.5 3.358-7.5 7.5s3.357 7.5 7.5 7.5h8.415c4.143 0 7.5-3.358 7.5-7.5s-3.358-7.5-7.5-7.5z"/><path d="m501.476 423.047h-87.269c-4.143 0-7.5 3.358-7.5 7.5s3.357 7.5 7.5 7.5h87.269c4.143 0 7.5-3.358 7.5-7.5s-3.358-7.5-7.5-7.5z"/><path d="m186.108 296.716h21.598c4.143 0 7.5-3.358 7.5-7.5s-3.357-7.5-7.5-7.5h-21.598c-4.143 0-7.5 3.358-7.5 7.5s3.358 7.5 7.5 7.5z"/><path d="m226.906 289.216c0 4.142 3.357 7.5 7.5 7.5h8.414c4.143 0 7.5-3.358 7.5-7.5s-3.357-7.5-7.5-7.5h-8.414c-4.142 0-7.5 3.358-7.5 7.5z"/><path d="m186.108 324.548h91.628c4.143 0 7.5-3.358 7.5-7.5s-3.357-7.5-7.5-7.5h-91.628c-4.143 0-7.5 3.358-7.5 7.5s3.358 7.5 7.5 7.5z"/></g></g></svg>