<svg fill="#FFBA4A" id="Capa_1" enable-background="new 0 0 511.998 511.998" height="512" viewBox="0 0 511.998 511.998" width="512" xmlns="http://www.w3.org/2000/svg"><g><g><g><path d="m484.212 21.07h-456.426c-15.321 0-27.786 12.464-27.786 27.785v47.241c0 4.142 3.358 7.5 7.5 7.5s7.5-3.358 7.5-7.5v-47.241c0-7.05 5.736-12.786 12.786-12.786h271.469v271.967h-284.255v-178.616c0-4.142-3.358-7.5-7.5-7.5s-7.5 3.358-7.5 7.5v218.404c0 15.321 12.465 27.785 27.786 27.785h162.189l-5.545 61.805h-19.076c-9.649 0-17.5 7.851-17.5 17.5v18.514c0 9.649 7.851 17.5 17.5 17.5h181.287c9.649 0 17.5-7.851 17.5-17.5v-18.514c0-9.649-7.851-17.5-17.5-17.5h-19.076l-5.545-61.805h162.191c15.321 0 27.786-12.464 27.786-27.785v-298.969c.001-15.321-12.464-27.785-27.785-27.785zm-135.071 433.844v18.514c0 1.378-1.122 2.5-2.5 2.5h-181.287c-1.378 0-2.5-1.122-2.5-2.5v-18.514c0-1.378 1.122-2.5 2.5-2.5h181.287c1.379 0 2.5 1.121 2.5 2.5zm-36.636-17.5h-113.015l5.545-61.805h21.58v9.588c0 16.202 13.181 29.382 29.382 29.382s29.382-13.181 29.382-29.382v-9.588h21.58zm-42.125-61.805v9.588c0 7.931-6.452 14.382-14.382 14.382s-14.382-6.452-14.382-14.382v-9.588zm213.832-15h-456.426c-7.05 0-12.786-5.735-12.786-12.785v-24.788h388.407c4.142 0 7.5-3.358 7.5-7.5s-3.358-7.5-7.5-7.5h-89.152v-271.966h169.957c7.05 0 12.786 5.736 12.786 12.786v259.181h-60.267c-4.142 0-7.5 3.358-7.5 7.5s3.358 7.5 7.5 7.5h60.267v24.788c0 7.049-5.736 12.784-12.786 12.784z"/><path d="m53.09 272.882c0 4.142 3.358 7.5 7.5 7.5h201.075c4.142 0 7.5-3.358 7.5-7.5s-3.358-7.5-7.5-7.5h-3.8v-41.009c0-4.142-3.358-7.5-7.5-7.5s-7.5 3.358-7.5 7.5v41.009h-18.816v-5.889c0-4.142-3.358-7.5-7.5-7.5s-7.5 3.358-7.5 7.5v5.889h-25.214v-5.889c0-4.142-3.358-7.5-7.5-7.5s-7.5 3.358-7.5 7.5v5.889h-25.213v-5.889c0-4.142-3.358-7.5-7.5-7.5s-7.5 3.358-7.5 7.5v5.889h-25.213v-5.889c0-4.142-3.358-7.5-7.5-7.5s-7.5 3.358-7.5 7.5v5.889h-20.319v-45.394l38.917-22.703 37.452 14.889c2.913 1.16 6.241.382 8.341-1.947l28.192-31.268 12.139 10.107c3.171 2.64 7.878 2.224 10.535-.932l39.198-46.538v49.452c0 4.142 3.358 7.5 7.5 7.5s7.5-3.358 7.5-7.5v-69.998c0-3.15-1.969-5.965-4.928-7.045-2.959-1.081-6.278-.196-8.308 2.214l-47.63 56.548-11.949-9.949c-3.093-2.576-7.672-2.25-10.369.741l-29.528 32.749-35.999-14.311c-2.142-.852-4.558-.669-6.55.491l-34.513 20.134v-65.365c0-4.142-3.358-7.5-7.5-7.5s-7.5 3.358-7.5 7.5z"/><path d="m98.883 155.569v5.276c0 4.142 3.358 7.5 7.5 7.5s7.5-3.358 7.5-7.5v-5.276c0-4.142-3.358-7.5-7.5-7.5s-7.5 3.358-7.5 7.5z"/><path d="m180.131 147.395c4.142 0 7.5-3.358 7.5-7.5v-5.276c0-4.142-3.358-7.5-7.5-7.5s-7.5 3.358-7.5 7.5v5.276c0 4.142 3.358 7.5 7.5 7.5z"/><path d="m250.365 102.354c4.142 0 7.5-3.358 7.5-7.5v-5.276c0-4.142-3.358-7.5-7.5-7.5s-7.5 3.358-7.5 7.5v5.276c0 4.142 3.358 7.5 7.5 7.5z"/><path d="m60.59 75.587h25.849c4.142 0 7.5-3.358 7.5-7.5s-3.358-7.5-7.5-7.5h-25.849c-4.142 0-7.5 3.358-7.5 7.5s3.358 7.5 7.5 7.5z"/><path d="m60.59 103.716h55.777c4.142 0 7.5-3.358 7.5-7.5s-3.358-7.5-7.5-7.5h-55.777c-4.142 0-7.5 3.358-7.5 7.5s3.358 7.5 7.5 7.5z"/><path d="m402.951 132.02h7.229c2.454 0 4.45 1.996 4.45 4.45s-1.996 4.45-4.45 4.45h-7.229c-1.794 0-3.404-1.068-4.103-2.72-1.614-3.815-6.013-5.6-9.83-3.986-3.815 1.614-5.599 6.015-3.986 9.83 2.536 5.995 7.824 10.217 14.033 11.476v.661c0 4.142 3.358 7.5 7.5 7.5s7.5-3.358 7.5-7.5v-.652c8.869-1.806 15.564-9.664 15.564-19.059 0-10.725-8.725-19.45-19.45-19.45h-7.229c-2.454 0-4.45-1.997-4.45-4.45s1.996-4.45 4.45-4.45h7.229c1.481 0 2.862.735 3.694 1.967 2.319 3.432 6.981 4.334 10.414 2.016 3.432-2.319 4.335-6.981 2.016-10.414-2.886-4.272-7.296-7.166-12.238-8.172v-1.609c0-4.142-3.358-7.5-7.5-7.5s-7.5 3.358-7.5 7.5v1.603c-8.869 1.806-15.564 9.664-15.564 19.058 0 10.726 8.726 19.451 19.45 19.451z"/><path d="m406.565 187.502c34.991 0 63.458-28.467 63.458-63.458s-28.467-63.458-63.458-63.458-63.458 28.467-63.458 63.458 28.468 63.458 63.458 63.458zm0-111.915c26.72 0 48.458 21.738 48.458 48.458s-21.738 48.458-48.458 48.458-48.458-21.738-48.458-48.458 21.739-48.458 48.458-48.458z"/><path d="m344.48 220.569h54.497c4.142 0 7.5-3.358 7.5-7.5s-3.358-7.5-7.5-7.5h-54.497c-4.142 0-7.5 3.358-7.5 7.5s3.358 7.5 7.5 7.5z"/><path d="m437.167 235.108c-4.142 0-7.5 3.358-7.5 7.5s3.358 7.5 7.5 7.5h23.484c4.142 0 7.5-3.358 7.5-7.5s-3.358-7.5-7.5-7.5z"/><path d="m344.48 250.108h29.235c4.142 0 7.5-3.358 7.5-7.5s-3.358-7.5-7.5-7.5h-29.235c-4.142 0-7.5 3.358-7.5 7.5s3.358 7.5 7.5 7.5z"/><path d="m398.977 235.108c-4.142 0-7.5 3.358-7.5 7.5s3.358 7.5 7.5 7.5h14.19c4.142 0 7.5-3.358 7.5-7.5s-3.358-7.5-7.5-7.5z"/><path d="m468.151 272.146c0-4.142-3.358-7.5-7.5-7.5h-116.171c-4.142 0-7.5 3.358-7.5 7.5s3.358 7.5 7.5 7.5h116.171c4.142 0 7.5-3.358 7.5-7.5z"/></g></g></g></svg>