<svg xmlns="http://www.w3.org/2000/svg" style="display:none"><defs><clipPath id="a"><path fill="#fff" d="M0 0h70v70H0z"/></clipPath><clipPath id="a"><path fill="#fff" d="M0 0h70v70H0z"/></clipPath><clipPath id="a"><path fill="#fff" d="M0 0h70v70H0z"/></clipPath><clipPath id="a"><path fill="#fff" d="M0 0h70v70H0z"/></clipPath><clipPath id="a"><path fill="#fff" d="M0 0h70v70H0z"/></clipPath><clipPath id="a"><path fill="#fff" d="M0 0h70v70H0z"/></clipPath><clipPath id="a"><path fill="#fff" d="M0 0h70v70H0z"/></clipPath><clipPath id="a"><path fill="#fff" d="M0 0h70v70H0z"/></clipPath><clipPath id="a"><path fill="#fff" transform="translate(.996)" d="M0 0h25v25H0z"/></clipPath><clipPath id="a"><path fill="#fff" transform="translate(.996)" d="M0 0h25v25H0z"/></clipPath><clipPath id="a"><path fill="#fff" transform="translate(.996)" d="M0 0h25v25H0z"/></clipPath><clipPath id="a"><path fill="#fff" transform="translate(.996)" d="M0 0h25v25H0z"/></clipPath><clipPath id="a"><path fill="#fff" d="M0 0h114v75H0z"/></clipPath><clipPath id="a"><path fill="#fff" d="M0 0h114v75H0z"/></clipPath></defs><symbol id="card-icon-01" viewBox="0 0 70 70"><g clip-path="url(#a)"><path d="M22.33 1.025h25.34v4.679H22.33V1.024z" fill="#F2BC18"/><path d="M28.73 51.377h12.54v5.752H28.73v-5.752z" fill="#fff"/><path d="M44.359 63.121H25.64a1.21 1.21 0 0 1-1.21-1.21v-3.573c0-.668.542-1.21 1.21-1.21H44.36c.668 0 1.21.542 1.21 1.21v3.573a1.21 1.21 0 0 1-1.21 1.21z" fill="#F2BC18"/><path d="M28.73 63.495v5.48h12.54V63.66M53.118 30.594H51.51V18.667h1.155a4.208 4.208 0 0 1 4.174 3.67l.452 3.51a4.208 4.208 0 0 1-4.173 4.747zM19.082 36.268h-5.994a.816.816 0 0 1-.817-.816v-5.6c0-.45.366-.816.817-.816h5.994v7.232zM19.082 24.63h-5.994a.816.816 0 0 1-.817-.816v-5.599c0-.45.366-.816.817-.816h5.994v7.232zM50.918 35.417h5.995c.45 0 .816.366.816.817v3.413c0 .451-.365.817-.816.817h-5.995v-5.047z" fill="#fff"/><path d="M19.937 51.377h2.203V1.025h-1.321a3.166 3.166 0 0 0-3.165 3.048l-1.627 43.244a3.912 3.912 0 0 0 3.91 4.06zM49.682 51.377H47.48V1.025h1.322c1.702 0 3.1 1.347 3.164 3.048l1.627 43.244a3.912 3.912 0 0 1-3.91 4.06z" fill="#fff"/><path d="M22.14 41.361h25.34v10.016H22.14V41.36z" fill="#fff"/><path d="M29.979 36.268h9.662v5.093h-9.662v-5.093z" fill="#fff"/><path d="M22.14 13.973h4.564V33.12H22.14V13.973zM47.48 33.12h-4.564V13.973h4.563V33.12z" fill="#F2BC18"/><path d="M40.9 36.269H28.72a2.015 2.015 0 0 1-2.015-2.016V12.307c0-1.112.902-2.015 2.015-2.015H40.9c1.113 0 2.016.902 2.016 2.015v21.946A2.015 2.015 0 0 1 40.9 36.27zM43.568 1.025h4.102v4.679h-4.102V1.024z" fill="#F2BC18"/><path d="M37.168 51.377h4.102v5.752h-4.102v-5.752z" fill="#fff"/><path d="M44.359 57.128h-4.102c.669 0 1.21.542 1.21 1.21v3.573a1.21 1.21 0 0 1-1.21 1.21h4.102a1.21 1.21 0 0 0 1.21-1.21v-3.573a1.21 1.21 0 0 0-1.21-1.21z" fill="#F2BC18"/><path d="M37.168 63.66h4.102v5.314h-4.102V63.66zM43.378 41.361h3.801v10.016h-3.801V41.36z" fill="#fff"/><path d="M40.9 10.292H36.8c1.113 0 2.015.902 2.015 2.015v21.946A2.015 2.015 0 0 1 36.8 36.27H40.9a2.015 2.015 0 0 0 2.015-2.016V12.307a2.015 2.015 0 0 0-2.015-2.015z" fill="#F2BC18"/><path d="M37.005 16.263h-4.39a1.224 1.224 0 0 1-1.224-1.224v-4.747h6.837v4.747c0 .676-.547 1.224-1.223 1.224zM37.413 27.458a3.417 3.417 0 1 0-5.244-4.383 3.417 3.417 0 0 0 5.244 4.383z" fill="#fff"/><path d="M56.913 34.392h-2.781l-.108-2.852a5.186 5.186 0 0 0 3.21-1.923 5.192 5.192 0 0 0 1.074-3.9l-.453-3.51a5.248 5.248 0 0 0-4.351-4.496l-.515-13.677A4.178 4.178 0 0 0 48.801 0H20.819a4.178 4.178 0 0 0-4.19 4.034l-.463 12.34h-3.078a1.844 1.844 0 0 0-1.842 1.841v5.6c0 1.015.826 1.841 1.842 1.841h2.728l-.088 2.355h-2.64a1.844 1.844 0 0 0-1.842 1.842v5.6c0 1.015.826 1.84 1.842 1.84h2.29l-.375 9.985a4.896 4.896 0 0 0 1.378 3.611 4.897 4.897 0 0 0 3.556 1.513h7.768v3.701h-2.063a2.238 2.238 0 0 0-2.235 2.235v3.573a2.238 2.238 0 0 0 2.235 2.236h2.063v4.828c0 .566.46 1.025 1.026 1.025H41.27c.566 0 1.025-.46 1.025-1.025v-4.828h2.064a2.238 2.238 0 0 0 2.235-2.236v-3.573a2.238 2.238 0 0 0-2.235-2.235h-2.064v-3.701h7.387a4.897 4.897 0 0 0 3.557-1.513 4.897 4.897 0 0 0 1.378-3.61l-.218-5.79h2.514a1.844 1.844 0 0 0 1.842-1.842v-3.413a1.844 1.844 0 0 0-1.842-1.842zM55.82 22.468l.453 3.51a3.157 3.157 0 0 1-.652 2.372 3.155 3.155 0 0 1-1.676 1.107l-.362-9.626a3.19 3.19 0 0 1 2.237 2.637zM23.166 50.351v-7.964h23.288v7.964H23.166zm0-10.015v-6.19h2.512v.107a3.044 3.044 0 0 0 3.041 3.04h.234v3.043h-5.787zm2.512-8.241h-2.512V14.998h2.512v17.097zm6.738-20.777h4.787v3.721c0 .11-.09.199-.199.199h-4.39a.198.198 0 0 1-.198-.199v-3.721zm.199 5.97h4.39c1.24 0 2.249-1.009 2.249-2.249v-3.721H40.9a.99.99 0 0 1 .99.99v21.945a.99.99 0 0 1-.99.99H28.72a.99.99 0 0 1-.99-.99V12.307c0-.545.444-.99.99-.99h1.646v3.722c0 1.24 1.01 2.25 2.25 2.25zm-1.61 20.006h7.61v3.042h-7.61v-3.042zm9.661 0h.234a3.044 3.044 0 0 0 3.04-3.04v-.108h2.514v6.19h-5.788v-3.042zm5.788-5.2H43.94V14.999h2.513v17.097zm0-27.416H31.455a1.025 1.025 0 0 0 0 2.05h14.999v6.22h-2.513v-.64a3.044 3.044 0 0 0-3.04-3.041H28.719a3.044 3.044 0 0 0-3.04 3.04v.64h-2.513V6.73h4.188a1.025 1.025 0 0 0 0-2.05h-4.188V2.05h23.288v2.627zM13.297 23.605v-5.181h2.791l-.195 5.181h-2.596zm0 11.638v-5.181h2.354l-.195 5.181h-2.16zm7.818 15.108h-1.178c-.792 0-1.53-.314-2.08-.884a2.863 2.863 0 0 1-.805-2.111L18.68 4.11a2.134 2.134 0 0 1 2.14-2.06h.296v48.3zm19.13 17.598h-10.49v-3.802h10.49v3.802zm0-11.846h-3.846a1.025 1.025 0 0 0 0 2.05h7.96c.102 0 .184.083.184.185v3.573a.185.185 0 0 1-.184.185H25.64a.185.185 0 0 1-.184-.185v-3.573c0-.102.083-.184.184-.184h6.656a1.025 1.025 0 0 0 0-2.051h-2.541v-3.701h10.489v3.7zm11.517-6.636c-.55.57-1.288.884-2.08.884h-1.177v-48.3h.296c1.156 0 2.096.905 2.139 2.06l1.627 43.244a2.863 2.863 0 0 1-.805 2.112zm4.941-10.029h-2.381l-.113-2.995h2.495v2.995z" fill="#000"/><path d="M34.81 29.713a4.449 4.449 0 0 0 4.444-4.444 4.449 4.449 0 0 0-4.444-4.444 4.449 4.449 0 0 0-4.444 4.444 4.45 4.45 0 0 0 4.444 4.444zm0-6.838a2.396 2.396 0 0 1 2.393 2.394 2.396 2.396 0 0 1-2.393 2.393 2.396 2.396 0 0 1-2.394-2.393 2.396 2.396 0 0 1 2.394-2.394zM33.127 45.343h-3.344a1.025 1.025 0 0 0 0 2.051h3.344a1.025 1.025 0 0 0 0-2.05zM40.217 45.343h-3.344a1.025 1.025 0 0 0 0 2.051h3.344a1.025 1.025 0 0 0 0-2.05z" fill="#000"/></g></symbol><symbol id="card-icon-02" viewBox="0 0 70 70"><g clip-path="url(#a)"><path d="M60.284 33.26H9.716v-7.968c0-10.823 8.773-19.596 19.595-19.596H40.69c10.822 0 19.595 8.773 19.595 19.596v7.968z" fill="#F2BC18"/><path d="M40.689 5.696h-4.102c10.822 0 19.596 8.773 19.596 19.596v7.968h4.101v-7.968c0-10.823-8.773-19.596-19.595-19.596z" fill="#F2BC18"/><path d="M53.118 10.187a19.661 19.661 0 0 0-5.567-3.228v9.513c0 .483.275.925.709 1.139l3.026 1.493a1.27 1.27 0 0 0 1.832-1.14v-7.777z" fill="#fff"/><path d="M47.551 9.048a19.702 19.702 0 0 1 5.567 5.718v-4.624a19.58 19.58 0 0 0-5.567-3.21v2.116z" fill="#F2BC18"/><path d="M9.966 39.861v10.037a6.352 6.352 0 0 0 6.351 6.352c1.954 0 3.82-.883 5.002-2.437a12.457 12.457 0 0 1 9.936-4.93h7.49c4.054 0 7.657 1.934 9.936 4.93 1.183 1.554 3.049 2.437 5.002 2.437a6.352 6.352 0 0 0 6.351-6.352V39.86H9.966z" fill="#fff"/><path d="M62.308 39.861H7.692a2.43 2.43 0 0 1-2.43-2.43v-3.785c0-.213.173-.386.386-.386h58.704c.213 0 .386.173.386.386v3.786a2.43 2.43 0 0 1-2.43 2.43zM40.28 20.768H29.72a.985.985 0 0 0-.985.985V33.26h12.53V21.753a.985.985 0 0 0-.985-.985z" fill="#F2BC18"/><path d="M22.449 6.959a19.66 19.66 0 0 0-5.567 3.228v7.778a1.27 1.27 0 0 0 1.832 1.139l3.027-1.493a1.27 1.27 0 0 0 .708-1.14V6.96zM37.428 1.025h-4.856c-.847 0-1.533.687-1.533 1.533v18.21h7.922V2.558c0-.846-.686-1.533-1.533-1.533zM55.932 39.86v10.038a6.353 6.353 0 0 1-4.307 6.013 6.44 6.44 0 0 0 2.057.338 6.352 6.352 0 0 0 6.352-6.351V39.86h-4.102z" fill="#fff"/><path d="M64.352 33.26H60.25c.213 0 .386.173.386.386v3.785a2.43 2.43 0 0 1-2.43 2.43h4.102a2.43 2.43 0 0 0 2.43-2.43v-3.785a.386.386 0 0 0-.386-.386zM40.28 20.768H36.18c.543 0 .984.44.984.985V33.26h4.102V21.753a.985.985 0 0 0-.985-.985zM37.428 1.025h-4.102c.847 0 1.533.687 1.533 1.533v18.21h4.102V2.558c0-.846-.686-1.533-1.533-1.533z" fill="#F2BC18"/><path d="M64.352 32.235H61.31v-6.943c0-11.37-9.25-20.621-20.621-20.621h-.703V2.558A2.561 2.561 0 0 0 37.428 0h-4.856a2.561 2.561 0 0 0-2.558 2.558v2.113h-.703c-11.37 0-20.62 9.25-20.62 20.62v6.944H5.647c-.778 0-1.41.633-1.41 1.411v3.786a3.459 3.459 0 0 0 3.454 3.454H8.94v18.35C8.94 65.172 13.769 70 19.704 70h30.592c5.935 0 10.764-4.828 10.764-10.764v-18.35h1.249a3.459 3.459 0 0 0 3.454-3.454v-3.786c0-.778-.633-1.411-1.411-1.411zM48.577 8.483a18.615 18.615 0 0 1 3.518 2.165l-.002.055v7.262a.234.234 0 0 1-.116.207.235.235 0 0 1-.238.012l-3.026-1.493a.244.244 0 0 1-.136-.22V8.484zM40.689 6.72c2.038 0 4 .332 5.837.941v8.81c0 .88.49 1.67 1.28 2.059l3.026 1.492c.324.16.67.24 1.017.24.42 0 .839-.118 1.21-.349a2.282 2.282 0 0 0 1.084-1.95v-5.459a18.505 18.505 0 0 1 5.116 12.787v.147H48.094a1.025 1.025 0 0 0 0 2.051H59.26v4.745H42.29v-3.546a1.025 1.025 0 0 0-2.05 0v3.546H29.76V21.793H40.24v2.794a1.025 1.025 0 0 0 2.051 0v-2.834c0-1.109-.902-2.01-2.01-2.01h-.294V6.721h.703zm-8.624-4.163c0-.28.227-.507.507-.507h4.856c.28 0 .508.228.508.507v17.184h-5.871V2.558zm-14.2 8.12a18.61 18.61 0 0 1 3.558-2.195v7.989a.243.243 0 0 1-.136.22l-3.026 1.492a.235.235 0 0 1-.238-.012.234.234 0 0 1-.115-.208v-6.997c0-.1-.016-.197-.042-.29zM10.742 27.49h11.665a1.025 1.025 0 0 0 0-2.05H10.74v-.148c0-4.95 1.947-9.454 5.116-12.787v5.46c0 .798.405 1.527 1.083 1.95a2.29 2.29 0 0 0 2.228.108l3.026-1.492a2.282 2.282 0 0 0 1.28-2.06V7.663c1.837-.61 3.799-.94 5.837-.94h.703v13.02h-.294c-1.108 0-2.01.902-2.01 2.01v10.483H10.74V27.49zM59.01 59.236c0 4.805-3.909 8.713-8.713 8.713H19.704c-4.804 0-8.713-3.908-8.713-8.713v-4.242a7.354 7.354 0 0 0 5.326 2.28c2.29 0 4.465-1.061 5.818-2.84a11.374 11.374 0 0 1 9.12-4.525h7.49c3.608 0 6.932 1.649 9.12 4.525 1.353 1.779 3.528 2.84 5.818 2.84a7.354 7.354 0 0 0 5.326-2.28v4.242zm4.703-21.804c0 .774-.63 1.404-1.404 1.404H18.474a1.025 1.025 0 0 0 0 2.05h40.535v9.012a5.332 5.332 0 0 1-5.327 5.326c-1.652 0-3.217-.76-4.185-2.032-2.579-3.39-6.498-5.334-10.752-5.334h-7.49c-4.254 0-8.173 1.944-10.752 5.334-.968 1.272-2.533 2.032-4.186 2.032a5.332 5.332 0 0 1-5.326-5.326v-9.012h3.382a1.025 1.025 0 0 0 0-2.05H7.692c-.774 0-1.404-.63-1.404-1.404v-3.146h57.424v3.146z" fill="#000"/></g></symbol><symbol id="card-icon-03" viewBox="0 0 70 70"><path d="M67.065 43.75H2.935c-1.138 0-2.06-.765-2.06-1.709V6.084c0-.943.922-1.708 2.06-1.708h64.13c1.138 0 2.06.765 2.06 1.708v35.958c0 .944-.922 1.709-2.06 1.709zM42.875 61.25h-15.75l1.337-9.625h13.076l1.337 9.625zM48.329 65.313H21.671a.935.935 0 0 1-.935-.935v-.423a2.45 2.45 0 0 1 2.45-2.45h23.629a2.45 2.45 0 0 1 2.449 2.45v.423a.935.935 0 0 1-.935.935z" fill="#fff"/><path d="M23.822 24.67l9.715 4.315V17.112l-9.715-4.315-9.716 4.315v11.873l9.716-4.314z" fill="#fff"/><path d="M33.537 29.018l-9.715 4.316V21.46l9.715-4.315v11.873zM14.106 29.018l9.716 4.316V21.46l-9.716-4.315v11.873z" fill="#F2BC18"/><path d="M9.22 16.643a1.923 1.923 0 1 0-.001-3.846 1.923 1.923 0 0 0 0 3.846zM30.695 38.445a1.923 1.923 0 1 0 0-3.846 1.923 1.923 0 0 0 0 3.846zM59.654 36.242H48.663a1.097 1.097 0 0 1-1.097-1.097v-2.766c0-.605.491-1.097 1.097-1.097h10.99c.607 0 1.098.492 1.098 1.098v2.765c0 .606-.491 1.097-1.097 1.097z" fill="#FFD500"/><path d="M66.924 3.66H13.32a1.025 1.025 0 0 0 0 2.052h53.603c.565 0 1.025.46 1.025 1.025v35.929H56.624a1.025 1.025 0 1 0 0 2.05H67.95v5.19c0 .565-.46 1.025-1.025 1.025H3.076c-.565 0-1.025-.46-1.025-1.026v-5.188h50.472a1.025 1.025 0 1 0 0-2.051H2.05V6.737c0-.565.46-1.025 1.025-1.025H9.22a1.025 1.025 0 0 0 0-2.051H3.076A3.08 3.08 0 0 0 0 6.737v43.168a3.08 3.08 0 0 0 3.076 3.076h23.71l-.766 7.499h-2.835a3.479 3.479 0 0 0-3.474 3.475v.423c0 1.081.879 1.96 1.96 1.96h26.658c1.081 0 1.96-.879 1.96-1.96v-.423a3.479 3.479 0 0 0-3.474-3.475H43.98l-.766-7.499h23.71A3.08 3.08 0 0 0 70 49.905V6.737a3.08 3.08 0 0 0-3.076-3.076zM48.239 63.956v.333H21.76v-.333c0-.785.639-1.424 1.424-1.424h23.63c.785 0 1.424.639 1.424 1.424zm-6.32-3.475H28.08l.766-7.499h12.306l.766 7.499z" fill="#000"/><path d="M6.271 14.72a2.951 2.951 0 0 0 2.948 2.948c.646 0 1.242-.211 1.729-.565l2.133.905v11.01c0 .406.238.773.609.938l9.716 4.315h.002l4.36 1.923a2.951 2.951 0 0 0 2.929 3.276 2.951 2.951 0 0 0 2.947-2.948 2.951 2.951 0 0 0-2.948-2.948c-.772 0-1.474.301-2 .788l-2.34-1.032 7.598-3.374c.37-.165.609-.532.609-.937V17.145v-.006c.01-.402-.219-.79-.61-.964l-9.715-4.315a1.025 1.025 0 0 0-.832 0l-9.559 4.245-1.752-.743a2.94 2.94 0 0 0 .072-.642 2.951 2.951 0 0 0-2.948-2.948 2.952 2.952 0 0 0-2.948 2.948zm8.86 4.003l7.665 3.404v9.63l-7.665-3.405v-9.63zm15.564 16.902a.898.898 0 0 1 0 1.794.898.898 0 0 1 0-1.794zm1.817-7.273l-7.665 3.404v-9.629l7.665-3.404v9.63zm-8.69-14.433l7.226 3.21-7.226 3.21-7.227-3.21 7.227-3.21zm-13.706.801a.898.898 0 0 1-1.794 0 .898.898 0 0 1 1.794 0zM47.565 16.415h.011l13.186-.139a1.025 1.025 0 1 0-.022-2.05l-13.185.138a1.025 1.025 0 0 0 .01 2.05zM47.565 23.004h.011l13.186-.139a1.025 1.025 0 1 0-.022-2.05l-13.185.138a1.025 1.025 0 0 0 .01 2.051zM47.565 27.184h.011l13.186-.139a1.025 1.025 0 1 0-.022-2.05l-13.185.138a1.025 1.025 0 0 0 .01 2.05zM46.54 35.145c0 1.17.952 2.122 2.123 2.122h10.99c1.171 0 2.123-.952 2.123-2.122v-2.766c0-1.17-.952-2.122-2.123-2.122h-10.99c-1.17 0-2.123.952-2.123 2.122v2.766zm2.05-2.766c0-.04.033-.072.073-.072h10.99c.04 0 .072.033.072.072v2.766c0 .04-.032.072-.072.072h-10.99a.072.072 0 0 1-.072-.072v-2.766zM11.07 30.786c-.401-.4-1.05-.4-1.45 0l-.4.4-.401-.4a1.025 1.025 0 0 0-1.45 1.45l.4.4-.4.401a1.025 1.025 0 0 0 1.45 1.45l.4-.4.4.4a1.022 1.022 0 0 0 1.45 0c.4-.4.4-1.05 0-1.45l-.4-.4.4-.4c.4-.401.4-1.05 0-1.45zM36.102 15.742a1.022 1.022 0 0 0 1.45 0l2.251-2.251a1.025 1.025 0 1 0-1.45-1.45l-.4.4-.4-.4a1.026 1.026 0 0 0-1.45 1.45l.4.4-.4.4c-.401.4-.401 1.05-.001 1.45z" fill="#000"/></symbol><symbol id="card-icon-04" viewBox="0 0 70 70"><path d="M34.015 68.975h-7.528a.985.985 0 0 1-.986-.986V2.011c0-.544.441-.986.986-.986h7.528c.544 0 .985.442.985.986v65.978a.985.985 0 0 1-.985.986z" fill="#ECF3FC"/><path d="M34.014 1.025h-4.101c.544 0 .985.442.985.986v65.978a.985.985 0 0 1-.985.986h4.101a.985.985 0 0 0 .986-.986V2.011a.985.985 0 0 0-.986-.986z" fill="#fff"/><path d="M49.106 15.337H25.501V7.108l23.702 3.023a.764.764 0 0 1 .667.758v3.684a.764.764 0 0 1-.764.764zM25.49 21.494h-4.247c-.615 0-1.113.498-1.113 1.113v24.93c0 .549.444.993.992.993h4.368V31.97h12.902c.832 0 1.627-.35 2.19-.963l3.207-3.495a2.972 2.972 0 0 1 1.383-.851l2.533-.714a2.972 2.972 0 0 0 2.165-2.86v-1.033a.559.559 0 0 0-.559-.56H25.49v.001z" fill="#F2BC18"/><path d="M43.224 14.312a1.025 1.025 0 0 0 0 2.05h5.882c.987 0 1.79-.802 1.79-1.789V10.89c0-.898-.672-1.661-1.563-1.775L36.025 7.417V2.01A2.013 2.013 0 0 0 34.015 0h-7.528c-1.11 0-2.011.902-2.011 2.01V20.47h-3.233a2.14 2.14 0 0 0-2.138 2.138v24.93a2.02 2.02 0 0 0 2.018 2.019h3.353v8.146a1.025 1.025 0 0 0 2.05 0l-.01-24.708h7.459v4.017h-1.243a1.025 1.025 0 0 0 0 2.05h1.243v3.197h-1.243a1.025 1.025 0 0 0 0 2.05h1.243v3.197h-1.243a1.025 1.025 0 0 0 0 2.05h1.243v3.197h-1.243a1.025 1.025 0 0 0 0 2.05h1.243V58h-1.243a1.025 1.025 0 0 0 0 2.05h1.243v3.197h-1.243a1.025 1.025 0 0 0 0 2.051h1.243v2.652h-7.448v-6.146a1.025 1.025 0 0 0-2.051 0v6.186c0 1.109.902 2.01 2.01 2.01h7.529c1.108 0 2.01-.901 2.01-2.01V32.994h2.367c1.116 0 2.19-.471 2.945-1.294l3.208-3.496c.244-.266.558-.459.905-.557l2.533-.714a4.012 4.012 0 0 0 2.913-3.847v-1.033c0-.874-.711-1.584-1.584-1.584H36.025v-4.106h3.097a1.025 1.025 0 1 0 0-2.051H26.526v-6.04l22.319 2.847v3.193h-5.621zm5.62 8.774c0 .867-.582 1.638-1.417 1.873l-2.533.714a3.993 3.993 0 0 0-1.86 1.145l-3.208 3.495c-.367.4-.89.63-1.434.63H25.49c-.566 0-1.025.46-1.025 1.026v15.536h-3.31V26.874h4.346a1.025 1.025 0 0 0 0-2.05h-4.346v-2.217c0-.048.04-.087.088-.087h27.602v.566zm-14.87-6.723v4.106h-7.447v-4.106h7.448zM26.528 2.05h7.448v5.104l-7.449-.95V2.051z" fill="#000"/></symbol><symbol id="card-icon-05" viewBox="0 0 70 70"><g clip-path="url(#a)"><path d="M65.304 44.625H53.95v-2.2a2.578 2.578 0 0 1 2.578-2.578h6.197a2.578 2.578 0 0 1 2.579 2.578v2.2z" fill="#F2BC18"/><path d="M33.419 28.22a3.393 3.393 0 0 1-2.724-3.327v-5.062h-8.382v5.062a3.393 3.393 0 0 1-2.723 3.326c-.227.046-.442.09-.636.128l.005.004c1.784 1.542 4.275 2.887 7.545 2.961 3.27-.074 5.762-1.419 7.546-2.96l.005-.005-.636-.128z" fill="#fff"/><path d="M36.125 13.208a1.403 1.403 0 0 0-1.4-1.406l-.526.003-.008-2.117c-.019-4.435-3.679-6.065-7.736-6.094-4.04.063-7.691 1.708-7.673 6.16l.007 1.492.002.624h-.498c-1.107.001-2.005.9-2.004 2.007l.002 1.819c0 1.107.898 2.004 2.006 2.003h.515c.052 2.048.91 4.016 2.452 5.348 1.241 1.073 2.984 2.006 5.28 2.023 2.297-.036 4.031-.984 5.264-2.068 1.53-1.345 2.373-3.32 2.407-5.369l.528-.002a1.403 1.403 0 0 0 1.388-1.417l-.006-3.006z" fill="#fff"/><path d="M34.82 28.499a242.28 242.28 0 0 1-1.401-.28 3.378 3.378 0 0 1-1.112-.44c-.064.058-.126.118-.192.175-1.322 1.142-3.175 2.137-5.61 2.171-2.437-.034-4.289-1.029-5.611-2.171-.066-.057-.128-.117-.192-.175-.334.207-.708.36-1.112.44-.634.128-1.187.239-1.4.28A13.017 13.017 0 0 0 7.631 41.282v8.994h37.744v-8.995c0-6.24-4.428-11.603-10.557-12.782zM33.225 3.463a1.888 1.888 0 0 0-1.889-1.86H22.96a6.082 6.082 0 0 0-6.082 6.083v4.02c0 .59.373 1.115.93 1.31l1.499.521a.805.805 0 0 0 1.07-.762l-.004-2.834.003-.135c.084-1.722 2.248-2.436 3.397-1.152 1.382 1.545 4.22 3.898 8.116 2.956a.974.974 0 0 1 1.105.507 1.802 1.802 0 0 0 2.206.898c.558-.194.931-.72.931-1.31V6.4a1.856 1.856 0 0 0-1.825-1.855 1.099 1.099 0 0 1-1.081-1.082z" fill="#F2BC18"/><path d="M26.565 41.011c-6.536-5.726-16.283-3.833-19.414-3.022a1.344 1.344 0 0 0-1.007 1.303v4.576h20.421v-2.857zM26.566 41.011c6.536-5.726 16.283-3.833 19.414-3.022.594.154 1.007.69 1.007 1.303v4.576H26.565v-2.857zM10.157 68.396H6.919c-.66 0-1.196-.535-1.196-1.195V44.302h4.434v24.094zM63.081 68.396h-3.238V44.302h4.434v22.899c0 .66-.535 1.195-1.196 1.195z" fill="#fff"/><path d="M67.654 49.382H2.32c-.715 0-1.295-.58-1.295-1.294v-2.925c0-.715.58-1.295 1.295-1.295h65.334c.715 0 1.294.58 1.294 1.295v2.925c0 .715-.58 1.294-1.294 1.294z" fill="#fff"/><path d="M66.582 26.853a2.393 2.393 0 1 0 0-4.786 2.393 2.393 0 0 0 0 4.786zM58.611 15.655l-6.67 3.689-3.232-5.844 6.67-3.689a2.79 2.79 0 0 1 3.792 1.092l.532.96a2.79 2.79 0 0 1-1.092 3.792z" fill="#F2BC18"/><path d="M45.04 11.672l6.249 11.301a.633.633 0 0 0 .913.214 7.12 7.12 0 0 0-6.858-12.403.633.633 0 0 0-.305.888z" fill="#fff"/><path d="M67.654 42.843h-1.325v-.418a3.608 3.608 0 0 0-3.603-3.604h-.209l3.888-10.947A3.422 3.422 0 0 0 70 24.46a3.422 3.422 0 0 0-3.418-3.418c-.642 0-1.244.178-1.758.488l-5.578-5.058a3.788 3.788 0 0 0 1.682-2.203 3.79 3.79 0 0 0-.328-2.902l-.531-.96a3.82 3.82 0 0 0-5.185-1.493L52.34 10.32a8.104 8.104 0 0 0-7.404-.477 1.66 1.66 0 0 0-.795 2.325l6.25 11.302a1.66 1.66 0 0 0 2.39.563 8.106 8.106 0 0 0 3.5-5.918l1.07-.592 6.11 5.54a3.414 3.414 0 0 0 1.02 4.092l-4.141 11.666h-3.813a3.608 3.608 0 0 0-3.603 3.604v.418h-4.913V39.29a2.37 2.37 0 0 0-1.775-2.295c-.166-.043-.352-.089-.552-.136a13.963 13.963 0 0 0-10.671-9.368c-1.398-.27-1.715-.306-2.168-.586l-.01-.005c-1.37-.855-1.077-2.332-1.115-2.52.26-.189.515-.39.764-.609 1.477-1.298 2.428-3.14 2.686-5.155a2.435 2.435 0 0 0 1.986-2.406l-.007-3.008a2.44 2.44 0 0 0-.118-.735c.08-.242.125-.499.125-.763V6.4a2.894 2.894 0 0 0-2.834-2.88.074.074 0 0 1-.073-.073A2.926 2.926 0 0 0 31.337.578H22.96a7.116 7.116 0 0 0-7.108 7.108v4.02c0 .115.01.23.026.342a3.018 3.018 0 0 0-.614 1.83l.001 1.818a3.035 3.035 0 0 0 2.6 2.998c.275 2.012 1.241 3.844 2.729 5.13.226.195.458.378.694.548-.038.192.257 1.673-1.115 2.53l-.01.004c-.824.51-1.938.367-4.04 1.082a1.026 1.026 0 0 0 .66 1.941c1.526-.518 2.898-.584 3.765-.929 3.588 2.87 8.332 2.865 11.912 0 .452.18.755.233 2.165.506a11.92 11.92 0 0 1 8.685 6.885c-1.634-.258-3.644-.45-5.8-.367-4.379.17-8.054 1.401-10.945 3.66-2.89-2.259-6.566-3.49-10.944-3.66-2.214-.086-4.274.119-5.93.388a11.963 11.963 0 0 1 3.245-4.312 1.025 1.025 0 0 0-1.32-1.57 13.999 13.999 0 0 0-4.304 6.362c-.149.036-.29.071-.418.105a2.37 2.37 0 0 0-1.775 2.295v3.551h-2.8c-1.278 0-2.319 1.04-2.319 2.32v2.925c0 1.279 1.04 2.32 2.32 2.32h2.378V67.2c0 1.225.996 2.22 2.22 2.22h56.163c1.225 0 2.221-.996 2.221-2.22v-9.882a1.025 1.025 0 1 0-2.05 0v9.882a.17.17 0 0 1-.17.17h-2.213V50.407h2.383v2.117a1.025 1.025 0 1 0 2.05 0v-2.117h2.352c1.279 0 2.32-1.04 2.32-2.32v-2.924c0-1.28-1.041-2.32-2.32-2.32zm-1.072-19.75c.754 0 1.367.613 1.367 1.367s-.613 1.367-1.367 1.367a1.369 1.369 0 0 1-1.368-1.367c0-.754.614-1.368 1.368-1.368zm-12.322-5.51a6.056 6.056 0 0 1-2.29 4.502l-5.817-10.518a6.056 6.056 0 0 1 5.466.727c.05.043.101.08.157.112a6.119 6.119 0 0 1 1.721 1.967c.526.95.774 1.98.768 2.995a1.025 1.025 0 0 0-.005.215zm4.697-3.881c-.13.453-.43.828-.842 1.056l-1.938 1.072a8.237 8.237 0 0 0-2.108-4.122l1.807-1a1.766 1.766 0 0 1 2.398.691l.531.961c.228.413.282.89.152 1.342zM17.903 7.686a5.062 5.062 0 0 1 5.057-5.057h8.377c.468 0 .855.381.863.85a2.115 2.115 0 0 0 2.09 2.09c.45.008.816.38.816.83v5.306a.362.362 0 0 1-.243.342.778.778 0 0 1-.95-.387 1.99 1.99 0 0 0-2.264-1.046c-1.459.352-4.32.477-7.111-2.643-1.75-1.956-5.056-.868-5.186 1.784-.007.155-.003.026-.001 2.712l-1.205-.42a.362.362 0 0 1-.243-.342v-4.02zm4.395 20.059a4.374 4.374 0 0 0 1.002-2.266 8.697 8.697 0 0 0 6.41.007c.112.842.46 1.622 1.001 2.259-2.579 1.784-5.804 1.806-8.413 0zm8.833-5.513c-2.753 2.42-6.476 2.39-9.197.04-1.287-1.113-2.051-2.79-2.097-4.6-.014-.555-.47-.999-1.026-.999h-.515c-.54 0-.98-.439-.98-.979l-.001-1.772c.163.07.1.04 1.655.583a1.832 1.832 0 0 0 2.432-1.731c-.003-3.009-.005-2.85-.002-2.919.04-.803 1.068-1.122 1.609-.517 1.263 1.412 3.713 3.516 7.095 3.516.632 0 1.297-.074 1.993-.24a2.834 2.834 0 0 0 3.004 1.481l.005 2.123a.378.378 0 0 1-.368.387l-.527.003a1.025 1.025 0 0 0-1.02 1.008c-.032 1.81-.782 3.493-2.06 4.616zm23.844 20.193c0-.856.697-1.553 1.553-1.553h6.197c.856 0 1.553.697 1.553 1.553v.418h-9.303v-.418zm-27.384-.937c6.204-5.068 15.416-3.21 18.132-2.506a.32.32 0 0 1 .238.31v3.551h-18.37v-1.355zM7.17 39.29a.32.32 0 0 1 .238-.31c2.716-.703 11.927-2.562 18.132 2.505v1.357H7.17V39.29zm1.961 28.08H6.92a.17.17 0 0 1-.17-.17V50.407H9.13v16.964zm49.687 0H11.182V50.407h47.636v16.964zm9.105-19.283a.27.27 0 0 1-.27.269H2.32a.27.27 0 0 1-.27-.27v-2.924c0-.149.122-.27.27-.27h65.334c.148 0 .269.121.269.27v2.925z" fill="#000"/></g></symbol><symbol id="card-icon-06" viewBox="0 0 70 70"><g clip-path="url(#a)"><path d="M56.334 4.552v13.487c0 4.228 1.825 8.251 5.006 11.037a14.678 14.678 0 0 1 5.007 11.042v26.551a2.288 2.288 0 0 1-2.288 2.288H52.17c-7.18 0-13-5.82-13-12.999V32.164c0-2.325.462-4.626 1.358-6.772l2.292-5.49a17.574 17.574 0 0 0 1.357-6.771V1.7c0-.431.407-.746.824-.636l10.844 2.851c.29.076.49.337.49.636zM13.665 4.552v13.487c0 4.228-1.824 8.251-5.005 11.037a14.678 14.678 0 0 0-5.007 11.042v26.551a2.288 2.288 0 0 0 2.288 2.288h11.89c7.18 0 13-5.82 13-12.999V32.164c0-2.325-.462-4.626-1.358-6.772l-2.292-5.49a17.576 17.576 0 0 1-1.357-6.771V1.7A.657.657 0 0 0 25 1.064L14.155 3.916a.657.657 0 0 0-.49.636z" fill="#F2BC18"/><path d="M3.653 52.633v5.78h26.945c.152-.794.232-1.615.232-2.454v-3.326H3.653zM30.495 28.751a17.577 17.577 0 0 0-1.022-3.359l-2.292-5.49a17.572 17.572 0 0 1-1.357-6.771V1.7A.657.657 0 0 0 25 1.064L20.222 2.32l-.777 14.783c-.333 6.331 4.71 11.647 11.05 11.647zM3.68 39.247c-.018.29-.027.58-.027.87v3.998H30.83v-4.868H3.68zM39.17 52.633v3.325c0 .84.08 1.66.232 2.456h26.945v-5.78H39.17zM50.493 2.51L45 1.064a.657.657 0 0 0-.824.635v11.43c0 2.326-.461 4.627-1.357 6.772l-2.292 5.49a17.585 17.585 0 0 0-1.022 3.36h.71c6.342 0 11.386-5.32 11.05-11.652l-.772-14.59zM39.17 39.247v4.868h27.177v-3.997c0-.292-.01-.582-.026-.87H39.17z" fill="#fff"/><path d="M62.178 52.633h4.17v5.78h-4.17v-5.78zM66.32 39.247h-4.169c.017.29.027.58.027.87v3.998h4.17v-3.997c0-.291-.01-.582-.027-.87z" fill="#FDEBC8"/><path d="M62.026 28.292a13.63 13.63 0 0 1-4.65-10.253V4.552a1.7 1.7 0 0 0-1.266-1.644L45.265.057a1.688 1.688 0 0 0-1.47.298c-.289.223-.49.525-.59.865-1.405 3.152-4.393 4.96-8.212 4.96-3.864 0-6.753-1.691-8.153-4.764a1.684 1.684 0 0 0-.635-1.061 1.687 1.687 0 0 0-1.47-.298L13.89 2.908a1.7 1.7 0 0 0-1.267 1.644v13.487c0 3.928-1.695 7.665-4.65 10.253A15.72 15.72 0 0 0 2.61 40.118v26.551A3.334 3.334 0 0 0 5.94 70H64.06a3.335 3.335 0 0 0 3.33-3.33V40.118a15.72 15.72 0 0 0-5.362-11.826zm3.279 14.78H40.212V40.29h25.093v2.782zm-25.093 2.085h25.093v6.434H40.212v-6.434zM60.653 29.86a13.635 13.635 0 0 1 4.516 8.345H40.212v-6.04c0-.8.058-1.593.17-2.376a11.993 11.993 0 0 0 8.619-3.771 11.997 11.997 0 0 0 3.306-8.973L51.609 3.88l3.683.968v13.19c0 4.529 1.954 8.837 5.361 11.821zM49.493 3.324l.732 13.831a9.932 9.932 0 0 1-2.737 7.428 9.92 9.92 0 0 1-6.66 3.106c.181-.642.401-1.273.66-1.895l2.293-5.49a18.525 18.525 0 0 0 1.437-7.173V2.201l4.274 1.123zM24.78 2.2v10.931c0 2.476.484 4.889 1.438 7.173l2.292 5.49c.25.599.463 1.207.64 1.824a9.937 9.937 0 0 1-6.076-3.194 9.953 9.953 0 0 1-2.59-7.265l.738-14.023 3.559-.936zm5.007 49.39H4.695v-6.433h25.093v6.434zM4.695 53.677h25.093v2.282c0 .479-.032.95-.087 1.413H4.695v-3.695zM9.347 29.86a15.714 15.714 0 0 0 5.36-11.821V4.849l4.399-1.156-.702 13.356c-.171 3.252.94 6.369 3.128 8.777a12.008 12.008 0 0 0 8.08 3.933c.117.792.176 1.595.176 2.405v6.04H15.786a1.042 1.042 0 0 0 0 2.086h14.002v2.783H4.695V40.29h6.92a1.042 1.042 0 1 0 0-2.085H4.832a13.634 13.634 0 0 1 4.516-8.345zM4.695 66.67v-7.214h24.57c-1.5 4.892-6.058 8.459-11.434 8.459H5.941a1.247 1.247 0 0 1-1.246-1.246zm20.49 1.245c4.01-2.475 6.688-6.909 6.688-11.957V32.165c0-2.475-.484-4.889-1.438-7.173l-2.292-5.49a16.449 16.449 0 0 1-1.277-6.37V5.118c1.97 2.03 4.79 3.146 8.128 3.146 3.283 0 6.14-1.174 8.14-3.25v8.117c0 2.198-.43 4.342-1.277 6.37l-2.292 5.49a18.524 18.524 0 0 0-1.438 7.173v23.794c0 5.049 2.678 9.482 6.688 11.957h-19.63zm38.874 0h-11.89c-5.377 0-9.935-3.567-11.434-8.459h14.527a1.042 1.042 0 1 0 0-2.085H40.298a12.005 12.005 0 0 1-.086-1.412v-2.283h25.093v3.695H59.43a1.042 1.042 0 1 0 0 2.085h5.874v7.213c0 .687-.559 1.246-1.246 1.246z" fill="#000"/></g></symbol><symbol id="card-icon-07" viewBox="0 0 70 70"><g clip-path="url(#a)"><path d="M1.027 7.103h4.67V31.5h-4.67V7.102zM22.121 7.103h4.67v29.552h-4.67V7.103zM43.212 7.103h4.67v29.552h-4.67V7.103zM64.302 7.103h4.671V31.5h-4.67V7.102z" fill="#F2BC18"/><path d="M1.027 36.675h67.946v6.83H1.027v-6.83z" fill="#ECF3FC"/><path d="M1.027 43.504h8.888v19.393H1.027V43.504zM9.915 49.36v-5.856h5.856a5.855 5.855 0 0 1-5.856 5.856zM68.973 62.897h-8.888V43.504h8.888v19.393zM60.085 49.36v-5.856h-5.856a5.855 5.855 0 0 0 5.856 5.856z" fill="#F2BC18"/><path d="M14.507 36.675H1.027v-5.163h8.317a5.163 5.163 0 0 1 5.163 5.163zM68.973 36.675h-13.48a5.163 5.163 0 0 1 5.163-5.163h8.317v5.163z" fill="#ECF3FC"/><path d="M70 7.103c0-.568-.46-1.027-1.027-1.027h-4.67c-.568 0-1.027.46-1.027 1.027 0 3.96-3.223 7.183-7.184 7.183-3.96 0-7.182-3.223-7.182-7.183 0-.568-.46-1.027-1.027-1.027h-4.671c-.567 0-1.027.46-1.027 1.027 0 3.96-3.222 7.183-7.183 7.183-3.96 0-7.183-3.223-7.183-7.183 0-.568-.46-1.027-1.027-1.027h-4.67c-.567 0-1.027.46-1.027 1.027 0 3.96-3.223 7.183-7.183 7.183s-7.183-3.223-7.183-7.183c0-.568-.46-1.027-1.027-1.027H5.7 1.027C.46 6.076 0 6.536 0 7.103V50.4a1.027 1.027 0 0 0 2.054 0V44.53h6.834V61.87H2.054v-7.362a1.027 1.027 0 0 0-2.054 0v8.39c0 .567.46 1.026 1.027 1.026h8.888c.567 0 1.027-.46 1.027-1.027V50.31a6.898 6.898 0 0 0 5.779-5.779h18.376a1.027 1.027 0 0 0 0-2.054H2.054v-4.775h65.892v4.775H39.205a1.027 1.027 0 1 0 0 2.054h14.074a6.898 6.898 0 0 0 5.779 5.779v12.587c0 .568.46 1.027 1.027 1.027h8.888c.567 0 1.027-.46 1.027-1.027V7.103zm-59.058 41.12V44.53h3.692a4.844 4.844 0 0 1-3.692 3.692zm57.004-17.75H65.33V8.13h2.617v22.343zm-4.67-17.572v17.584h-2.62c-.048 0-.096.003-.143.004V15.21a9.302 9.302 0 0 0 2.763-2.31zm-4.817 3.13V30.89a6.208 6.208 0 0 0-3.906 4.758h-.827V16.031a9.217 9.217 0 0 0 4.733 0zm-6.787-.82v20.437H48.91V12.9a9.303 9.303 0 0 0 2.763 2.31zm-4.816 20.417h-2.617V8.13h2.617v27.498zm-4.671-22.727v22.747h-2.763V15.21a9.3 9.3 0 0 0 2.763-2.31zm-4.817 3.13v19.617h-4.732V16.03a9.216 9.216 0 0 0 4.732 0zm-6.786-.82v20.437h-2.763V12.9a9.302 9.302 0 0 0 2.763 2.31zm-4.817 20.417h-2.617V8.13h2.617v27.498zm-4.67-22.727v22.747H18.33V15.21a9.301 9.301 0 0 0 2.763-2.31zm-4.817 3.13v19.617h-.83c-.369-2.185-1.897-3.979-3.903-4.752V16.031a9.217 9.217 0 0 0 4.733 0zM2.054 32.539h7.29c1.902 0 3.544 1.32 4.006 3.109H2.054v-3.109zM9.49 15.211v15.278c-.049-.001-.097-.004-.147-.004h-2.62v-17.59a9.3 9.3 0 0 0 2.767 2.316zM4.671 8.13v22.355H2.054V8.13H4.67zm51.978 27.518a4.143 4.143 0 0 1 4.007-3.109h7.29v3.109H56.65zm-1.283 8.883h3.692v3.692a4.844 4.844 0 0 1-3.692-3.692zm12.58 17.34h-6.834V44.53h6.834v17.34z" fill="#000"/></g></symbol><symbol id="card-icon-08" viewBox="0 0 70 70"><g clip-path="url(#a)"><path d="M34.795 23.703a6.905 6.905 0 1 0 0-13.81 6.905 6.905 0 0 0 0 13.81z" fill="#F2BC18"/><path d="M32.775 1.025h4.41v8.93h-4.41v-8.93zM27.828 68.975l-.805-.793a9.561 9.561 0 0 1-2.793-7.88l3.04-40.92c.077-1.034 1.407-1.402 2.003-.555l2.33 3.305a7.944 7.944 0 0 1 1.388 5.562l-5.163 41.28z" fill="#fff"/><path d="M41.762 68.975l.805-.793a9.56 9.56 0 0 0 2.793-7.88l-3.04-40.92c-.077-1.034-1.407-1.402-2.004-.555l-2.328 3.305a7.944 7.944 0 0 0-1.389 5.562l5.163 41.28z" fill="#F2BC18"/><path d="M35 30.088a4.15 4.15 0 1 0 0-8.3 4.15 4.15 0 0 0 0 8.3zM27.714 45.5a3.23 3.23 0 1 0-6.298-1.44 3.23 3.23 0 0 0 6.298 1.44zM46.197 47.962a3.23 3.23 0 1 0-1.498-6.285 3.23 3.23 0 0 0 1.498 6.285z" fill="#fff"/><path d="M49.693 44.801a4.26 4.26 0 0 0-4.77-4.222l-1.58-21.274a2.11 2.11 0 0 0-.692-1.423 7.94 7.94 0 0 0-4.441-8.24V1.024C38.21.46 37.75 0 37.184 0h-4.41c-.566 0-1.025.46-1.025 1.025v8.451c-2.865 1.197-4.885 4.028-4.885 7.322 0 .362.026.726.075 1.083-.396.357-.65.859-.691 1.424l-.947 12.74a1.025 1.025 0 0 0 2.045.152l.947-12.74c.002-.03.004-.055.057-.07.053-.014.068.007.085.031l2.329 3.305.086.126a5.166 5.166 0 0 0 .83 7.056l-4.604 36.812a8.475 8.475 0 0 1-1.823-6.34l.862-11.616a4.26 4.26 0 0 0 2.7-3.96c0-1.573-.858-2.949-2.132-3.685l.405-5.447a1.025 1.025 0 0 0-2.045-.152l-.374 5.032-.108-.002a4.26 4.26 0 0 0-4.255 4.255 4.26 4.26 0 0 0 3.733 4.221l-.83 11.184a10.522 10.522 0 0 0 3.094 8.705l.805.793a1.025 1.025 0 0 0 1.737-.603l2.911-23.275h6.078l1.592 12.73a1.026 1.026 0 0 0 2.035-.254L37.945 30.19a5.172 5.172 0 0 0 2.23-4.252c0-1.283-.47-2.457-1.245-3.362l2.225-3.158c.017-.024.032-.045.085-.03.053.014.055.04.057.07l1.628 21.913a4.251 4.251 0 0 0 .535 7.195l.877 11.811.004.039a8.476 8.476 0 0 1-1.828 6.3l-.563-4.505a1.025 1.025 0 1 0-2.035.254l.83 6.637a1.025 1.025 0 0 0 1.736.603l.806-.793a10.523 10.523 0 0 0 3.094-8.705l-.829-11.154a4.259 4.259 0 0 0 4.141-4.252zm-27.335 0c0-1.215.988-2.204 2.204-2.204 1.215 0 2.204.99 2.204 2.204a2.207 2.207 0 0 1-2.204 2.205 2.207 2.207 0 0 1-2.204-2.205zM33.8 8.931V2.05h2.36v6.88l-.014.054a7.945 7.945 0 0 0-1.35-.118c-.338 0-.67.024-.996.065V8.93zm3.777 34.845h-5.564l1.607-12.851a5.159 5.159 0 0 0 2.362.094l1.595 12.757zM35 29.062a3.128 3.128 0 0 1-3.125-3.124A3.128 3.128 0 0 1 35 22.814a3.128 3.128 0 0 1 3.124 3.124A3.128 3.128 0 0 1 35 29.062zm4.478-10.825l-2.165 3.073A5.142 5.142 0 0 0 35 20.763c-.95 0-1.842.259-2.609.708l-2.28-3.234a2.118 2.118 0 0 0-1.163-.828 5.887 5.887 0 0 1 5.847-6.49 5.887 5.887 0 0 1 5.848 6.49c-.46.128-.872.412-1.165.828zm5.96 28.768a2.206 2.206 0 0 1-2.204-2.204c0-1.215.99-2.204 2.204-2.204 1.216 0 2.205.99 2.205 2.204a2.207 2.207 0 0 1-2.205 2.204z" fill="#000"/></g></symbol><symbol id="card-icon-09" viewBox="0 0 70 70"><g clip-path="url(#a)"><path fill-rule="evenodd" clip-rule="evenodd" d="M2.089 66.704h65.826c.581 0 1.062-.481 1.062-1.062V43.16l-33.938.014-34.012-.014v22.482c0 .581.477 1.062 1.062 1.062z" fill="#fff"/><path fill-rule="evenodd" clip-rule="evenodd" d="M31.814 3.614h6.372c1.096 0 1.992.895 1.992 1.988v8.228a1.996 1.996 0 0 1-1.992 1.992h-6.372a1.996 1.996 0 0 1-1.988-1.992V5.602c0-1.093.895-1.988 1.988-1.988zM5.38 50.802l2.189-1.457c.57-.38 1.201-.38 1.771 0l2.19 1.457c.632.423.825 1 .736 1.643l-1.034 7.302c-.086.608-.508 1.054-1.213 1.054H6.89c-.675 0-1.105-.275-1.213-1.054l-1.035-7.302c-.1-.705.163-1.263.736-1.643zm53.094 8.259l2.186 1.457c.57.38 1.205.38 1.775 0l2.186-1.457c.635-.422.829-1 .736-1.643l-1.031-7.302c-.085-.608-.512-1.054-1.217-1.054h-3.127c-.675 0-1.105.275-1.213 1.054l-1.031 7.302c-.101.705.163 1.263.736 1.643zm-21.238 0l2.186 1.457c.57.38 1.205.38 1.775 0l2.186-1.457c.635-.422.829-1 .736-1.643l-1.03-7.302c-.086-.608-.512-1.054-1.214-1.054h-3.128c-.674 0-1.104.275-1.216 1.054L36.5 57.418c-.101.705.163 1.263.736 1.643zm-21.238 0l2.19 1.457c.566.38 1.201.38 1.771 0l2.186-1.457c.636-.422.83-1 .74-1.643l-1.035-7.302c-.085-.608-.507-1.054-1.213-1.054H17.51c-.675 0-1.105.275-1.217 1.054l-1.03 7.302c-.102.705.162 1.263.735 1.643zm31.857-8.259l2.186-1.457c.57-.38 1.205-.38 1.775 0l2.186 1.457c.635.423.829 1 .736 1.643l-1.03 7.302c-.086.608-.512 1.054-1.214 1.054h-3.132c-.67 0-1.104-.275-1.212-1.054l-1.031-7.302c-.101-.705.163-1.263.736-1.643zm-21.238 0l2.186-1.457c.57-.38 1.205-.38 1.775 0l2.186 1.457c.635.423.83 1 .74 1.643l-1.035 7.302c-.085.608-.511 1.054-1.213 1.054H28.13c-.675 0-1.105-.275-1.217-1.054l-1.031-7.302c-.1-.705.163-1.263.736-1.643z" fill="#F2BC18"/><path d="M2.05 44.187v21.49h65.9v-21.49H36.027v1.693a1.026 1.026 0 1 1-2.05 0v-1.693h-23.66a1.026 1.026 0 1 1 0-2.05h23.66v-8.383H2.05v1.93h1.492a1.026 1.026 0 1 1 0 2.05H2.05v4.403h3.62a1.025 1.025 0 1 1 0 2.05H2.05zm2.767 5.763l2.186-1.458c.457-.306.95-.457 1.45-.457.503 0 .996.151 1.453.457l2.186 1.458c.476.313.798.701.996 1.143.213.473.263.977.19 1.492l-1.031 7.301c-.082.558-.334 1.055-.74 1.407-.388.337-.888.535-1.489.535H6.891c-.566 0-1.058-.14-1.465-.469-.407-.33-.67-.806-.764-1.473l-1.03-7.301a2.666 2.666 0 0 1 .19-1.492c.209-.461.542-.845.995-1.143zm3.314.248l-2.186 1.457a.668.668 0 0 0-.256.271.694.694 0 0 0-.03.38c.089.643 1.05 7.46 1.057 7.468.008.008 3.016.004 3.302.004.082 0 .128-.012.148-.031.027-.02.042-.07.054-.14l1.03-7.301a.662.662 0 0 0-.03-.38c-.04-.093-.124-.182-.256-.271l-2.19-1.457a.588.588 0 0 0-.321-.113c-.101 0-.21.04-.322.113zm50.909 8.01l2.186 1.458c.112.073.22.112.321.112s.21-.039.322-.112l2.186-1.458a.675.675 0 0 0 .26-.27.735.735 0 0 0 .03-.38l-1.034-7.302c-.008-.07-.027-.12-.05-.14-.02-.02-.07-.03-.152-.03-.287 0-3.29-.005-3.298.003-.011.008-.972 6.825-1.062 7.468a.656.656 0 0 0 .035.38.67.67 0 0 0 .256.271zm1.054 3.163l-2.186-1.457a2.654 2.654 0 0 1-.992-1.144 2.666 2.666 0 0 1-.194-1.492l1.035-7.301c.093-.667.353-1.143.764-1.473.407-.33.895-.469 1.46-.469h3.128c.6 0 1.105.198 1.488.535.411.353.663.849.74 1.407l1.035 7.301c.074.516.02 1.02-.193 1.492-.194.442-.52.83-.993 1.144l-2.19 1.457c-.457.306-.949.457-1.449.457-.5 0-.995-.151-1.453-.457zm-22.292-3.163l2.186 1.458c.112.073.22.112.322.112.1 0 .209-.039.321-.112l2.186-1.458c.136-.089.221-.178.26-.27a.664.664 0 0 0 .03-.38l-1.034-7.302c-.02-.147-.05-.17-.198-.17-.286 0-3.294-.005-3.302.003-.011.008-.968 6.825-1.062 7.468a.726.726 0 0 0 .035.38.668.668 0 0 0 .256.271zm1.058 3.163l-2.19-1.457a2.68 2.68 0 0 1-.992-1.144 2.666 2.666 0 0 1-.194-1.492l1.035-7.301c.093-.667.357-1.143.764-1.473.407-.33.899-.469 1.465-.469h3.127c.597 0 1.1.198 1.484.535.411.353.663.849.74 1.407l1.035 7.301a2.69 2.69 0 0 1-.19 1.492c-.197.442-.523.83-.996 1.144l-2.185 1.457a2.593 2.593 0 0 1-1.454.457c-.5 0-.992-.151-1.449-.457zm-24.42-5.445a1.022 1.022 0 1 1 2.027.28l-.194 1.351a.727.727 0 0 0 .035.38.67.67 0 0 0 .256.271l2.186 1.458c.112.073.22.112.321.112s.21-.039.322-.112l2.19-1.458c.132-.089.217-.178.256-.27a.663.663 0 0 0 .03-.38l-1.03-7.302c-.012-.07-.027-.12-.054-.14-.02-.02-.066-.03-.148-.03-.286 0-3.294-.005-3.302.003a78.803 78.803 0 0 0-.217 1.52 1.023 1.023 0 0 1-2.027-.283l.19-1.35c.093-.666.357-1.143.764-1.472.407-.33.899-.469 1.465-.469h3.127c.601 0 1.101.198 1.485.535.41.352.662.849.744 1.407l1.03 7.301c.074.516.024 1.02-.19 1.492-.197.442-.518.83-.995 1.143l-2.186 1.458c-.457.306-.95.457-1.453.457-.5 0-.992-.151-1.45-.458l-2.19-1.457a2.705 2.705 0 0 1-.992-1.143 2.7 2.7 0 0 1-.194-1.492l.194-1.352zm38.446 2.329a1.023 1.023 0 0 1 2.027.283l-.194 1.348a2.239 2.239 0 0 1-.74 1.407c-.384.337-.888.535-1.485.535h-3.131c-.566 0-1.054-.14-1.461-.469-.411-.33-.67-.806-.764-1.473l-1.035-7.301a2.667 2.667 0 0 1 .194-1.492c.206-.461.539-.845.992-1.143l2.19-1.458c.453-.306.95-.457 1.45-.457s.995.151 1.453.457l2.186 1.458c.473.313.798.701.992 1.143.213.473.267.977.194 1.492l-.19 1.353c-.078.558-.597.95-1.155.871a1.019 1.019 0 0 1-.872-1.15l.19-1.353a.736.736 0 0 0-.031-.38.674.674 0 0 0-.26-.271l-2.186-1.457a.597.597 0 0 0-.321-.113c-.101 0-.21.04-.322.113l-2.186 1.457a.667.667 0 0 0-.255.271.655.655 0 0 0-.035.38c.093.643 1.05 7.46 1.062 7.468.007.008 3.01.004 3.301.004.078 0 .128-.012.148-.031.023-.02.042-.07.05-.14l.194-1.352zM26.05 49.95l2.19-1.458c.457-.306.95-.457 1.45-.457.504 0 .995.151 1.453.457l2.186 1.458c.473.313.798.701.996 1.143.209.473.263.977.19 1.492l-1.031 7.301c-.082.558-.334 1.055-.744 1.407-.384.337-.884.535-1.485.535H28.13c-.566 0-1.058-.14-1.465-.469-.407-.33-.67-.806-.764-1.473l-1.034-7.301a2.702 2.702 0 0 1 .194-1.492c.205-.461.542-.845.991-1.143zm3.318.248l-2.186 1.457a.668.668 0 0 0-.256.271.732.732 0 0 0-.035.38c.093.643 1.05 7.46 1.062 7.468.008.008 3.015.004 3.302.004.078 0 .128-.012.148-.031.023-.02.042-.07.054-.14l1.03-7.301a.662.662 0 0 0-.03-.38c-.04-.093-.124-.182-.256-.271l-2.19-1.457c-.22-.148-.418-.148-.643 0zm-2.864-39.643a1.022 1.022 0 1 1-1.577 1.302 3.281 3.281 0 0 1-.57-1.004 3.32 3.32 0 0 1 0-2.27 3.3 3.3 0 0 1 .57-1.009 1.025 1.025 0 0 1 1.441-.135c.434.36.496 1.007.136 1.442-.1.12-.179.251-.225.39-.05.133-.074.28-.074.447a1.253 1.253 0 0 0 .299.837zm18.571 1.302a1.023 1.023 0 1 1-1.581-1.302c.1-.12.178-.252.229-.391.046-.132.073-.283.073-.446 0-.167-.027-.314-.073-.446a1.298 1.298 0 0 0-.229-.391 1.026 1.026 0 0 1 1.581-1.306c.24.29.434.631.57 1.007a3.303 3.303 0 0 1 0 2.271c-.136.376-.33.713-.57 1.004zm4.384-7.906a1.025 1.025 0 0 1 1.577-1.306 11.1 11.1 0 0 1 0 14.145 1.026 1.026 0 0 1-1.442.136 1.026 1.026 0 0 1-.135-1.442 9.085 9.085 0 0 0 1.546-2.701c.341-.95.527-1.98.527-3.066a9.089 9.089 0 0 0-.527-3.069 9.122 9.122 0 0 0-1.546-2.697zm-3.016 2.492A1.026 1.026 0 0 1 46.58 5a1.025 1.025 0 0 1 1.442.136 7.23 7.23 0 0 1 1.65 4.58c0 .845-.15 1.663-.426 2.43a7.277 7.277 0 0 1-1.224 2.151 1.025 1.025 0 0 1-1.578-1.306c.38-.457.679-.976.88-1.534a5.224 5.224 0 0 0 0-3.484 5.162 5.162 0 0 0-.88-1.531zM18.963 2.645a1.022 1.022 0 0 1 1.442-.136c.438.36.5 1.004.14 1.442a8.947 8.947 0 0 0-2.078 5.767 8.95 8.95 0 0 0 .53 3.065c.354.989.88 1.9 1.547 2.701a1.026 1.026 0 1 1-1.581 1.306 11.007 11.007 0 0 1-1.887-3.317 11.044 11.044 0 0 1 0-7.51 11.005 11.005 0 0 1 1.887-3.318zm3.015 2.492A1.026 1.026 0 0 1 23.42 5c.438.36.496 1.008.135 1.442a5.148 5.148 0 0 0-.875 1.53 5.135 5.135 0 0 0-.299 1.745 5.094 5.094 0 0 0 1.174 3.275c.36.434.303 1.08-.135 1.441a1.026 1.026 0 0 1-1.442-.135 7.184 7.184 0 0 1-1.22-2.151 7.095 7.095 0 0 1-.427-2.43c0-.845.147-1.663.427-2.43a7.13 7.13 0 0 1 1.22-2.151zm38.887 35.252a1.025 1.025 0 0 1 0-2.05h2.52a1.025 1.025 0 0 1 0 2.05h-2.52zm-10.906 0a1.025 1.025 0 0 1 0-2.05h2.52a1.025 1.025 0 0 1 0 2.05h-2.52zm-10.905 0a1.025 1.025 0 0 1 0-2.05h2.519a1.025 1.025 0 0 1 0 2.05h-2.52zm-10.906 0a1.025 1.025 0 0 1 0-2.05h2.52a1.025 1.025 0 0 1 0 2.05h-2.52zm-10.902 0a1.026 1.026 0 1 1 0-2.05h2.516a1.026 1.026 0 0 1 0 2.05h-2.516zm-10.906 0a1.026 1.026 0 1 1 0-2.05h2.516a1.025 1.025 0 1 1 0 2.05H6.34zm60.118-2.655a1.025 1.025 0 0 1 0-2.05h1.492v-1.93h-3.62a1.026 1.026 0 0 1-1.023-1.027c0-.566.457-1.027 1.023-1.027h4.647c.566 0 1.023.461 1.023 1.027v33.977c0 .565-.457 1.023-1.023 1.023H1.027A1.025 1.025 0 0 1 0 66.704V32.727C0 32.16.461 31.7 1.027 31.7h19.626l10.053-15.064a2.964 2.964 0 0 1-1.02-.675 3.006 3.006 0 0 1-.887-2.131V5.602c0-.83.341-1.585.884-2.132a3.025 3.025 0 0 1 2.131-.883h6.372c.829 0 1.585.34 2.131.883.547.547.884 1.302.884 2.132v8.228c0 .833-.337 1.585-.884 2.131a2.98 2.98 0 0 1-1.023.675L49.347 31.7h10.34c.566 0 1.023.461 1.023 1.027 0 .566-.457 1.027-1.023 1.027h-23.66v8.382H67.95v-4.402h-1.492zm-10.906 0a1.025 1.025 0 0 1 0-2.05h2.519a1.026 1.026 0 0 1 0 2.05h-2.519zm-10.906 0a1.025 1.025 0 0 1 0-2.05h2.52a1.025 1.025 0 0 1 0 2.05h-2.52zm-21.807 0a1.026 1.026 0 1 1 0-2.05h2.515a1.026 1.026 0 1 1 0 2.05h-2.515zm-10.906 0a1.025 1.025 0 0 1 0-2.05h2.515a1.025 1.025 0 1 1 0 2.05h-2.515zM33.547 10.74a1.025 1.025 0 1 1 0-2.05h2.906c.57 0 1.027.46 1.027 1.027 0 .566-.457 1.023-1.027 1.023h-2.906zM23.11 31.7h10.867V16.849h-.954l-9.913 14.85zm12.917 0H46.89l-9.913-14.851h-.95v14.85zm2.159-27.063h-6.372a.946.946 0 0 0-.678.287.946.946 0 0 0-.287.678v8.228c0 .267.109.507.287.682a.961.961 0 0 0 .678.287h6.372a.97.97 0 0 0 .965-.97V5.603a.959.959 0 0 0-.283-.678.955.955 0 0 0-.682-.287z" fill="#000"/></g></symbol><symbol id="card-icon-10" viewBox="0 0 70 70"><g clip-path="url(#a)"><path d="M65.73 15.19a4.618 4.618 0 0 0-1.563 3.477v21A2.34 2.34 0 0 1 61.833 42H8.167a2.34 2.34 0 0 1-2.334-2.333v-21A4.618 4.618 0 0 0 4.27 15.19 6.895 6.895 0 0 1 8.167 14h53.666a6.896 6.896 0 0 1 3.897 1.19z" fill="#fff"/><path d="M49 4.667H21a2.333 2.333 0 0 0 0 4.666h28a2.333 2.333 0 1 0 0-4.667zM38.5 40.833v5.834h-7v-5.834a2.34 2.34 0 0 1 2.333-2.333h2.334a2.34 2.34 0 0 1 2.333 2.333z" fill="#F2BC18"/><path d="M40.81 36.914c-.233 4.06-2.31 5.285-2.31 8.586v-4.666a2.34 2.34 0 0 0-2.333-2.334h-2.334a2.34 2.34 0 0 0-2.333 2.334V45.5c0-3.5-2.333-4.666-2.333-9.333a5.834 5.834 0 0 1 6.218-5.822 6.112 6.112 0 0 1 5.425 6.569zM38.5 51.334v5.833a3.5 3.5 0 1 1-7 0v-5.834h7zM38.5 46.666h-7c-.644 0-1.167.523-1.167 1.167v2.334c0 .644.523 1.166 1.167 1.166h7c.644 0 1.167-.522 1.167-1.166v-2.334c0-.644-.523-1.166-1.167-1.166z" fill="#F2BC18"/><path d="M61.833 12.833h-5.209l-4.166-6.25A3.493 3.493 0 0 0 49 3.5H21a3.493 3.493 0 0 0-3.458 3.083l-4.166 6.25h-5.21A8.176 8.176 0 0 0 0 21v39.667A5.84 5.84 0 0 0 5.833 66.5h58.334A5.84 5.84 0 0 0 70 60.667V21a8.176 8.176 0 0 0-8.167-8.167zM21 5.833h28a1.167 1.167 0 0 1 0 2.334H21a1.167 1.167 0 0 1 0-2.334zm-2.533 3.57A3.48 3.48 0 0 0 21 10.5h28a3.48 3.48 0 0 0 2.533-1.098l2.288 3.431H16.179l2.288-3.43zm43.366 5.764c.708.004 1.41.139 2.069.396A5.82 5.82 0 0 0 63 18.667v21c0 .644-.522 1.166-1.167 1.166H41.115c.498-1.226.79-2.527.86-3.85a7.233 7.233 0 0 0-6.508-7.802 6.94 6.94 0 0 0-5.25 1.874A7.03 7.03 0 0 0 28 36.167a12.03 12.03 0 0 0 .882 4.666H8.167A1.167 1.167 0 0 1 7 39.667v-21a5.82 5.82 0 0 0-.902-3.104 5.784 5.784 0 0 1 2.069-.396h53.666zm-31.5 21a4.667 4.667 0 0 1 4.977-4.658 4.96 4.96 0 0 1 4.334 5.337 9.503 9.503 0 0 1-.414 2.333 3.49 3.49 0 0 0-3.063-1.846h-2.334a3.49 3.49 0 0 0-3.063 1.843 9.758 9.758 0 0 1-.437-3.01zm7 9.333h-4.666v-4.667c0-.644.522-1.166 1.166-1.166h2.334c.644 0 1.166.522 1.166 1.166V45.5zm1.167 2.333v2.334h-7v-2.334h7zM32.667 52.5h4.666v4.667a2.333 2.333 0 1 1-4.666 0V52.5zm35 8.167a3.5 3.5 0 0 1-3.5 3.5H5.833a3.5 3.5 0 0 1-3.5-3.5V21a5.81 5.81 0 0 1 1.784-4.184c.355.553.545 1.194.55 1.85v21a3.5 3.5 0 0 0 3.5 3.5h21.7c.304.741.462 1.534.466 2.334v.324a2.325 2.325 0 0 0-1.166 2.01v2.333c.002.83.447 1.595 1.166 2.009v4.99a4.667 4.667 0 0 0 9.334 0v-4.99a2.325 2.325 0 0 0 1.166-2.01v-2.333a2.325 2.325 0 0 0-1.166-2.009V45.5c.004-.8.162-1.593.466-2.333h21.7a3.5 3.5 0 0 0 3.5-3.5v-21a3.473 3.473 0 0 1 .55-1.85A5.81 5.81 0 0 1 67.667 21v39.667z" fill="#000"/><path d="M8.167 59.5H5.833a1.167 1.167 0 1 0 0 2.333h2.334a1.167 1.167 0 1 0 0-2.333zM26.833 59.5h-14a1.167 1.167 0 0 0 0 2.333h14a1.167 1.167 0 1 0 0-2.333zM64.167 59.5h-2.334a1.167 1.167 0 1 0 0 2.333h2.334a1.167 1.167 0 1 0 0-2.333zM57.167 59.5h-14a1.167 1.167 0 1 0 0 2.333h14a1.167 1.167 0 1 0 0-2.333z" fill="#000"/></g></symbol><symbol id="more-icon" viewBox="0 0 38 14"><path d="M31 1l6 6m0 0l-6 6m6-6H1" stroke="#000" stroke-width="2" stroke-miterlimit="10" stroke-linecap="round" stroke-linejoin="round"/></symbol><symbol id="social-icon-fa" viewBox="0 0 26 25"><g clip-path="url(#a)"><path d="M15.185 24.951h-4.011c-.67 0-1.215-.544-1.215-1.213v-9.03h-2.34c-.67 0-1.216-.544-1.216-1.212v-3.87c0-.669.545-1.212 1.215-1.212h2.34V6.476c0-1.921.605-3.556 1.749-4.727C12.855.573 14.46-.049 16.348-.049l3.06.005A1.216 1.216 0 0 1 20.62 1.17v3.593c0 .668-.545 1.212-1.215 1.212l-2.06.001c-.628 0-.788.126-.822.164-.056.064-.124.245-.124.743v1.531h2.851a1.217 1.217 0 0 1 1.226 1.213l-.001 3.87c0 .668-.545 1.212-1.215 1.212H16.4v9.03c0 .67-.546 1.213-1.216 1.213zm-3.758-1.465h3.505v-9.434c0-.446.364-.81.811-.81h3.264l.002-3.363h-3.266a.811.811 0 0 1-.811-.81V6.882c0-.572.058-1.223.491-1.713.523-.591 1.348-.66 1.923-.66h1.806V1.42l-2.805-.004c-3.034 0-4.92 1.938-4.92 5.059v2.593c0 .447-.364.81-.81.81H7.871v3.364h2.744c.447 0 .811.363.811.81v9.433zm7.978-22.064z" fill="#fff"/></g></symbol><symbol id="social-icon-inst" viewBox="0 0 26 25"><g clip-path="url(#a)" fill="#fff"><path d="M19.229 0H7.763A6.775 6.775 0 0 0 .996 6.767v11.466A6.775 6.775 0 0 0 7.763 25H19.23a6.775 6.775 0 0 0 6.767-6.767V6.767A6.775 6.775 0 0 0 19.229 0zm5.301 18.233a5.307 5.307 0 0 1-5.301 5.301H7.763a5.308 5.308 0 0 1-5.301-5.301V6.767a5.308 5.308 0 0 1 5.301-5.301H19.23a5.308 5.308 0 0 1 5.301 5.301v11.466z"/><path d="M13.497 5.664A6.843 6.843 0 0 0 6.66 12.5a6.843 6.843 0 0 0 6.836 6.836 6.843 6.843 0 0 0 6.836-6.836 6.843 6.843 0 0 0-6.836-6.836zm0 12.206a5.376 5.376 0 0 1-5.37-5.37c0-2.961 2.409-5.37 5.37-5.37 2.961 0 5.37 2.409 5.37 5.37a5.376 5.376 0 0 1-5.37 5.37zM20.497 3.237c-1.114 0-2.02.906-2.02 2.02 0 1.113.906 2.02 2.02 2.02 1.114 0 2.02-.907 2.02-2.02 0-1.114-.906-2.02-2.02-2.02zm0 2.574A.555.555 0 1 1 20.5 4.7a.555.555 0 0 1-.002 1.11z"/></g></symbol><symbol id="social-icon-tw" viewBox="0 0 26 25"><g clip-path="url(#a)"><path d="M1.489 20.411a14.508 14.508 0 0 0 7.79 2.245c4.072 0 7.804-1.564 10.51-4.405 2.588-2.719 4.012-6.372 3.941-10.08.982-.839 2.136-2.442 2.136-4.004 0-.6-.65-.98-1.177-.674-.922.541-1.763.683-2.628.44-1.765-1.72-4.393-2.083-6.608-.89-1.935 1.042-3.011 2.949-2.914 5.032a12.945 12.945 0 0 1-8.397-4.587.782.782 0 0 0-1.277.105C1.85 5.33 1.86 7.343 2.743 8.97a.813.813 0 0 0-.68.81 5.51 5.51 0 0 0 1.92 4.16.78.78 0 0 0-.2.81 5.609 5.609 0 0 0 3.174 3.4c-1.603.766-3.376 1.02-4.954.827-.816-.11-1.22.988-.514 1.434zm8.003-1.993c.584-.45.274-1.385-.46-1.4a4.075 4.075 0 0 1-3.2-1.665 5.505 5.505 0 0 0 1.067-.17c.793-.215.755-1.36-.05-1.52a4.01 4.01 0 0 1-3.039-2.73 5.39 5.39 0 0 0 1.192.159c.79.004 1.09-1.01.445-1.434-1.453-.957-2.073-2.648-1.663-4.237a14.524 14.524 0 0 0 9.622 4.295.78.78 0 0 0 .8-.956c-.495-2.144.702-3.648 1.989-4.34 1.273-.688 3.317-.902 4.883.741.466.491 2.037.51 2.836.323-.359.675-.91 1.316-1.425 1.676a.781.781 0 0 0-.333.678c.168 3.422-1.107 6.824-3.498 9.334-2.408 2.528-5.738 3.92-9.379 3.92a13.12 13.12 0 0 1-4.21-.689 10.55 10.55 0 0 0 4.423-1.985z" fill="#fff"/></g></symbol><symbol id="social-icon-vk" viewBox="0 0 26 25"><g clip-path="url(#a)"><path d="M13.647 20.313c3.617 0 2.327-2.29 2.606-2.948-.004-.492-.008-.965.009-1.252.229.064.77.338 1.886 1.424 1.724 1.739 2.165 2.776 3.558 2.776h2.563c.813 0 1.235-.337 1.447-.62.204-.272.404-.751.185-1.497-.572-1.796-3.907-4.897-4.114-5.224.031-.06.081-.14.107-.182h-.002c.658-.87 3.17-4.635 3.54-6.141a.02.02 0 0 0 .003-.008c.2-.688.016-1.134-.173-1.386-.286-.377-.74-.567-1.353-.567h-2.564c-.858 0-1.51.432-1.838 1.22-.552 1.401-2.1 4.283-3.26 5.302a66.863 66.863 0 0 1 .007-3.367c.038-1.6.159-3.155-1.5-3.155h-4.03c-1.04 0-2.034 1.135-.957 2.483.942 1.181.338 1.84.542 5.116-.792-.849-2.2-3.141-3.196-6.071-.28-.793-.702-1.527-1.893-1.527H2.657c-1.04 0-1.66.566-1.66 1.515 0 2.131 4.717 14.108 12.65 14.108zM5.22 6.25c.226 0 .249 0 .417.476 1.02 3.003 3.307 7.447 4.978 7.447 1.255 0 1.255-1.287 1.255-1.77l-.001-3.857c-.069-1.276-.533-1.912-.838-2.297l3.654.004c.002.018-.021 4.266.01 5.295 0 1.461 1.16 2.299 2.972.466C19.578 9.857 20.9 6.632 20.953 6.5c.079-.187.146-.251.392-.251h2.574l-.002.01c-.234 1.093-2.548 4.579-3.322 5.66l-.035.053c-.341.556-.618 1.17.047 2.035.061.073.218.244.447.482.713.735 3.157 3.25 3.373 4.25-.143.023-.3.006-2.721.011-.516 0-.92-.77-2.458-2.323-1.383-1.346-2.281-1.896-3.099-1.896-1.587 0-1.472 1.289-1.457 2.847.005 1.69-.005 1.155.006 1.262-.093.036-.358.109-1.05.109-6.61 0-10.914-10.49-11.08-12.496.057-.005.846-.002 2.652-.003z" fill="#fff"/></g></symbol><symbol id="temp-icon-left-arrow" viewBox="0 0 31.494 31.494"><path d="M10.273 5.01a1.117 1.117 0 0 1 1.587 1.57l-8.047 8.047h26.554c.62 0 1.127.492 1.127 1.11 0 .62-.508 1.128-1.127 1.128H3.813l8.047 8.032c.43.444.43 1.16 0 1.587a1.112 1.112 0 0 1-1.587 0L.32 16.532a1.12 1.12 0 0 1 0-1.57l9.953-9.953z" fill="#1E201D"/></symbol><symbol id="temp-icon-right-arrow" viewBox="0 0 31.49 31.49"><path d="M21.205 5.007a1.117 1.117 0 0 0-1.587 1.57l8.047 8.048H1.11c-.618 0-1.11.493-1.11 1.112 0 .62.492 1.127 1.11 1.127h26.555l-8.047 8.032c-.43.444-.43 1.16 0 1.587.444.444 1.16.444 1.587 0l9.952-9.952a1.092 1.092 0 0 0 0-1.57l-9.952-9.95z" fill="#1E201D"/></symbol><symbol id="work-icon-01" viewBox="0 0 114 75"><path d="M23.984 37.5h66.532V61c0 7.732-6.268 14-14 14H37.984c-7.732 0-14-6.268-14-14V37.5z" fill="#FFBA4A"/><path d="M66.323 42.339h14.516v19.193a5 5 0 0 1-5 5h-4.516a5 5 0 0 1-5-5V42.34z" fill="#CA8CBB"/><path d="M39.71 31.452h14.516v30.08a5 5 0 0 1-5 5h-4.517a5 5 0 0 1-5-5v-30.08z" fill="#A03C7D"/><circle cx="46.968" cy="18.145" r="16.936" fill="#A03C7D"/><path d="M70.557 13.47V42.34h6.048V13.47l1.815-5.248-1.815-4.593h-6.048l-1.815 4.593 1.815 5.248z" fill="#993280"/><path d="M46.968 22.984l-6.049-3.024V0h11.492v19.96l-5.443 3.024z" fill="#fff"/><path fill-rule="evenodd" clip-rule="evenodd" d="M15.081 42.339H1v14.08-7.04a7.04 7.04 0 0 1 7.04 7.015 7.04 7.04 0 0 1 7.016-7.014 7.04 7.04 0 0 1-7.015-7.015A7.04 7.04 0 0 1 1 49.379v-7.04h14.08zM83.258 22.12c8.195 0 14.841-6.633 14.862-14.824.02 8.191 6.667 14.825 14.863 14.825V7.258v29.726V22.12c-8.209 0-14.863 6.654-14.863 14.863 0-8.208-6.654-14.862-14.862-14.863z" fill="#EB5555"/></symbol><symbol id="work-icon-02" viewBox="0 0 114 75"><rect x="48.398" y="2.504" width="11.721" height="9.377" rx="2.344" fill="#A03C7D"/><rect x="71.832" y="8.94" width="5.263" height="7.017" rx=".877" transform="rotate(30 71.832 8.94)" fill="#A03C7D"/><path d="M70.496 7.952a.877.877 0 0 1 1.199-.32l6.013 3.471c.42.242.564.779.322 1.198l-1.605 2.779-7.533-4.35 1.605-2.778z" fill="#A03C7D"/><rect width="5.263" height="7.017" rx=".877" transform="scale(-1 1) rotate(30 -34.758 -60.905)" fill="#A03C7D"/><path d="M36.445 7.952a.877.877 0 0 0-1.198-.32l-6.014 3.471a.877.877 0 0 0-.32 1.198l1.603 2.779 7.533-4.35-1.604-2.778z" fill="#A03C7D"/><circle cx="53.673" cy="41.768" r="32.232" fill="#FFBA4A"/><circle cx="53.673" cy="41.768" r="29.105" fill="#FFBA4A" stroke="#EB5555" stroke-opacity=".3" stroke-width="6.254"/><path fill-rule="evenodd" clip-rule="evenodd" d="M96 0c0 7.18 5.82 13 13 13V0v26-13c-7.18 0-13 5.82-13 13-.001-7.18-5.82-13-13-13 7.18 0 13-5.82 13-13zM4 57.59a7.03 7.03 0 0 1 7.03 7.025 7.03 7.03 0 0 1 7.031-7.025v7.03-14.061h-7.03A7.03 7.03 0 0 1 4 57.589zm7.03-7.031h7.031v7.03a7.03 7.03 0 0 1-7.03-7.03z" fill="#EB5555"/><path d="M36.678 42.354h20.51s8.176-13.752 14.126-23.593" fill="#FFBA4A" stroke="#A03C7D" stroke-width="6.254"/></symbol><symbol id="work-icon-03" viewBox="0 0 114 75"><g clip-path="url(#a)"><path fill-rule="evenodd" clip-rule="evenodd" d="M88.391.012a5.435 5.435 0 0 1-5.434 5.423 5.435 5.435 0 0 1 5.434 5.433c.001-3 2.434-5.433 5.435-5.433v5.435V0h-5.435 5.435v5.435A5.435 5.435 0 0 1 88.391.012zM31.326 29.348H21v10.326c5.685 0 10.296-4.593 10.326-10.27.03 5.677 4.642 10.27 10.326 10.27V29.348 50 39.674c-5.703 0-10.326 4.623-10.326 10.326 0-5.703-4.623-10.326-10.326-10.326V29.348h10.326z" fill="#EB5555"/><path d="M23.174 17.435c0-6.628 5.372-12 12-12H73.13c6.628 0 12 5.372 12 12v8.652H23.174v-8.652z" fill="#FFBA4A"/><path d="M49.261 17.435c0-6.628 5.373-12 12-12h11.87c6.627 0 12 5.372 12 12V64.13H49.26V17.434z" fill="#FFBA4A"/><path d="M23.174 17.435c0-6.628 5.372-12 12-12h2.087c6.627 0 12 5.372 12 12v8.652H23.174v-8.652z" fill="#C99035"/><path fill="#993280" d="M57.956 20.652h33.696v4.891H57.956z"/><path fill="#A03C7D" d="M57.956 30.435h33.696v4.891H57.956zM57.956 40.217h22.826v4.891H57.956z"/><path d="M60.13 75V64.13h8.696V75l-4.348-4.348L60.13 75z" fill="#993280"/><circle cx="64.478" cy="59.783" r="6.522" fill="#EB5555"/></g></symbol><symbol id="work-icon-04" viewBox="0 0 114 75"><g clip-path="url(#a)"><path d="M23.638 54.086c0-7.732 6.268-14 14-14h44.414c7.732 0 14 6.268 14 14V75H23.638V54.086z" fill="#FFBA4A"/><path fill-rule="evenodd" clip-rule="evenodd" d="M102.519 29.741h-11.64v11.64-5.82a5.82 5.82 0 0 1 5.82 5.797 5.82 5.82 0 0 1 5.82-5.796 5.82 5.82 0 0 1-5.82-5.817 5.82 5.82 0 0 1-5.82 5.817v-5.82h11.64zM24.286 11.638c0 6.786 5.5 12.286 12.286 12.286V11.638h.001V36.21 23.925c-6.786 0-12.287 5.5-12.287 12.286 0-6.785-5.5-12.286-12.286-12.286 6.785 0 12.286-5.502 12.286-12.287z" fill="#EB5555"/><circle cx="60.491" cy="17.457" r="17.457" fill="#FFBA4A"/><path fill="#A03C7D" d="M39.155 62.069h41.379V75H39.155z"/><path fill="#A03C7D" d="M74.069 40.086h6.466V75h-6.466zM39.155 40.086h6.466V75h-6.466z"/></g></symbol></svg>