<svg id="Capa_1" enable-background="new 0 0 512 512" fill="#FFBA4A" height="512" viewBox="0 0 512 512" width="512" xmlns="http://www.w3.org/2000/svg"><g><circle cx="448.253" cy="281.019" r="10"/><path d="m274.289 149.508c4.531 3.181 10.78 2.085 13.958-2.445l30.35-43.243 51.167 95.035c1.731 3.215 5.073 5.233 8.724 5.269h.098c3.613 0 6.95-1.947 8.728-5.098l84.067-149.092 3.194 18.497c.842 4.876 5.076 8.317 9.862 8.316.566 0 1.14-.048 1.717-.148 5.453-.942 9.11-6.126 8.168-11.579l-7.797-45.147c-.499-2.888-2.238-5.413-4.757-6.91-2.521-1.496-5.569-1.815-8.344-.87l-43.375 14.759c-5.239 1.782-8.04 7.474-6.257 12.713 1.783 5.24 7.477 8.041 12.713 6.258l17.557-5.974-75.273 133.497-50.244-93.321c-1.647-3.059-4.762-5.047-8.231-5.252-3.476-.211-6.796 1.402-8.793 4.246l-39.678 56.532c-3.179 4.529-2.084 10.778 2.446 13.957z"/><path d="m512 143.44c0-5.534-4.486-10.02-10.02-10.02h-53.727c-5.533 0-10.02 4.486-10.02 10.02v92.733c0 5.534 4.486 10.02 10.02 10.02s10.02-4.486 10.02-10.02v-82.713h33.688v287.147h-33.688v-114.842c0-5.534-4.486-10.02-10.02-10.02s-10.02 4.486-10.02 10.02v114.841h-22.763v-193.168c0-5.534-4.486-10.02-10.02-10.02h-53.728c-5.533 0-10.02 4.486-10.02 10.02v193.169h-22.642v-251.832c0-5.534-4.486-10.02-10.02-10.02h-53.728c-5.533 0-10.02 4.486-10.02 10.02v80.328c-25.646-29.516-63.441-48.209-105.521-48.209-77.069 0-139.771 62.702-139.771 139.773s62.702 139.773 139.773 139.773c37.924 0 72.362-15.189 97.569-39.794h264.638c5.533 0 10.02-4.486 10.02-10.02 0-.36-.021-.715-.058-1.065.037-.35.058-.705.058-1.065zm-150.258 114.017h33.689v183.15h-33.689zm-96.409-58.662h33.689v241.812h-44.659c15.862-22.669 25.184-50.234 25.184-79.94 0-22.003-5.117-42.83-14.213-61.366v-100.506zm-115.54 281.183v-16.509c0-5.534-4.486-10.02-10.02-10.02s-10.02 4.486-10.02 10.02v16.509c-58.045-4.832-104.459-51.246-109.291-109.291h16.509c5.533 0 10.02-4.486 10.02-10.02s-4.486-10.02-10.02-10.02h-16.509c4.832-58.046 51.246-104.459 109.291-109.291v16.509c0 5.534 4.486 10.02 10.02 10.02s10.02-4.486 10.02-10.02v-16.509c58.046 4.832 104.459 51.246 109.291 109.291h-16.509c-5.533 0-10.02 4.486-10.02 10.02s4.486 10.02 10.02 10.02h16.509c-4.832 58.045-51.246 104.459-109.291 109.291z"/><path d="m189.952 350.647h-40.16v-49.202c0-5.534-4.486-10.02-10.02-10.02s-10.02 4.486-10.02 10.02v59.222c0 5.534 4.486 10.02 10.02 10.02h50.179c5.533 0 10.02-4.486 10.02-10.02s-4.486-10.02-10.019-10.02z"/></g></svg>
