<svg id="Capa_1" enable-background="new 0 0 599.69 599.69" height="512" fill="#FFBA4A" viewBox="0 0 599.69 599.69" width="512" xmlns="http://www.w3.org/2000/svg"><g><g id="Page-1_20_"><g id="_x30_21---Phishing-Personal-Information"><path id="Shape_39_" d="m569.667 89.967h-179.895v-59.965c0-8.825-3.888-17.203-10.629-22.899-6.741-5.697-15.649-8.134-24.351-6.663-14.682 2.838-25.214 15.8-24.985 30.752v58.776h-55.827l-18.259-18.249c-7.336-7.303-18.16-9.85-27.984-6.586-9.069 2.719-15.812 10.345-17.4 19.679-.318 1.7-.472 3.427-.46 5.157h-179.895c-16.558-.002-29.982 13.422-29.982 29.981v449.737c0 16.559 13.424 29.982 29.982 29.982h469.726c2.649-.006 5.189-1.059 7.066-2.928l89.947-89.947c.835-.849 1.512-1.841 1.999-2.928.14-.31.22-.62.33-.939.288-.828.46-1.693.51-2.568 0-.22.13-.41.13-.63v-379.779c0-7.959-3.164-15.591-8.796-21.215s-13.268-8.778-21.227-8.768zm-219.871-58.775c-.256-5.175 3.214-9.796 8.255-10.994 2.916-.533 5.916.278 8.165 2.209 2.246 1.886 3.551 4.663 3.568 7.596v59.965h-19.988zm-119.93 58.775c-.002-.544.055-1.087.17-1.619.356-2.045 1.877-3.692 3.888-4.208 2.673-.887 5.617-.234 7.666 1.699l21.158 21.118.08.08 12.912 12.912h-15.891c-5.52 0-9.994 4.475-9.994 9.994v38.278c-.011.858.029 1.715.12 2.568.322 19.593 12.084 37.184 30.068 44.967s38.859 4.318 53.363-8.858c10.416-9.476 16.365-22.897 16.39-36.978h19.868c-.831 36.392-28.789 66.391-65.032 69.779-19.333 1.413-38.373-5.345-52.489-18.629-14.166-13.245-22.228-31.756-22.277-51.15zm-209.878 479.72v-449.737c0-5.52 4.475-9.994 9.994-9.994h179.895v59.965c.056 24.932 10.415 48.731 28.623 65.762 16.531 15.577 38.4 24.231 61.114 24.186 2.109 0 4.228-.06 6.356-.21 46.7-4.195 82.763-42.859 83.701-89.738h10.094c5.52 0 9.994-4.475 9.994-9.994 0-5.52-4.475-9.994-9.994-9.994h-79.953c-5.52 0-9.994 4.475-9.994 9.994 0 5.52 4.475 9.994 9.994 9.994h9.994c-.01 8.456-3.58 16.516-9.834 22.207-6.26 5.725-14.67 8.496-23.106 7.616-15.264-1.9-26.772-14.792-26.934-30.172 0-.448-.03-.895-.09-1.339v-28.293h5.897c7.139.005 13.733-3.817 17.277-10.014 3.545-6.197 3.496-13.818-.127-19.969h276.778c5.52 0 9.994 4.475 9.994 9.994v369.784h-59.965c-16.559 0-29.982 13.424-29.982 29.983v59.965h-459.732c-5.519-.002-9.994-4.476-9.994-9.996zm489.714-4.138v-45.833c0-5.52 4.475-9.994 9.994-9.994h45.833z"/><path id="Shape_38_" d="m269.842 309.839h-199.883c-11.039 0-19.988 8.949-19.988 19.988v179.895c0 11.039 8.949 19.988 19.988 19.988h199.883c11.039 0 19.988-8.949 19.988-19.988v-179.895c.001-11.039-8.948-19.988-19.988-19.988zm-99.941 139.918c-22.078 0-39.977-17.898-39.977-39.977s17.898-39.977 39.977-39.977 39.977 17.898 39.977 39.977-17.899 39.977-39.977 39.977zm-32.981 9.994c19.991 13.251 45.971 13.251 65.961 0 17.017 10.883 27.217 29.773 26.984 49.971h-119.93c-.008-20.142 10.138-38.931 26.985-49.971zm112.934 49.971c.081-25.208-11.828-48.953-32.081-63.963 18.662-24.719 15.429-59.583-7.461-80.448s-57.903-20.865-80.793 0-26.123 55.729-7.461 80.448c-20.223 15.038-32.133 38.761-32.111 63.963h-19.988v-179.895h199.883v179.895z"/><g clip-rule="evenodd" fill-rule="evenodd"><path id="Path_81_" d="m319.813 359.81h219.872c5.52 0 9.994-4.475 9.994-9.994s-4.474-9.994-9.994-9.994h-219.872c-5.52 0-9.994 4.475-9.994 9.994s4.475 9.994 9.994 9.994z"/><path id="Path_80_" d="m319.813 409.781h219.872c5.52 0 9.994-4.475 9.994-9.994 0-5.52-4.474-9.994-9.994-9.994h-219.872c-5.52 0-9.994 4.475-9.994 9.994s4.475 9.994 9.994 9.994z"/><path id="Path_79_" d="m319.813 459.751h219.872c5.52 0 9.994-4.475 9.994-9.994s-4.474-9.994-9.994-9.994h-219.872c-5.52 0-9.994 4.475-9.994 9.994s4.475 9.994 9.994 9.994z"/><path id="Path_78_" d="m429.749 489.734h-109.936c-5.52 0-9.994 4.475-9.994 9.994s4.475 9.994 9.994 9.994h109.936c5.52 0 9.994-4.475 9.994-9.994s-4.474-9.994-9.994-9.994z"/></g></g></g></g></svg>
